999
dxfrw 0.6.3
  0
SECTION
  2
HEADER
  9
$ACADVER
  1
AC1021
  9
$DWGCODEPAGE
  3
ANSI_1252
  9
$INSBASE
 10
0
 20
0
 30
0
  9
$EXTMIN
 10
820
 20
0.5000000000168066
 30
0
  9
$EXTMAX
 10
1281.000000000001
 20
363.125
 30
0
  9
$LIMMIN
 10
-25
 20
-25
  9
$LIMMAX
 10
275
 20
175
  9
$ORTHOMODE
 70
    0
  9
$REGENMODE
 70
    1
  9
$FILLMODE
 70
    1
  9
$QTEXTMODE
 70
    0
  9
$MIRRTEXT
 70
    0
  9
$LTSCALE
 40
1
  9
$ATTMODE
 70
    0
  9
$TEXTSIZE
 40
2.5
  9
$TRACEWID
 40
15.68
  9
$TEXTSTYLE
  7
STANDARD
  9
$CLAYER
  8
0
  9
$CELTYPE
  6
BYLAYER
  9
$CECOLOR
 62
  256
  9
$CELTSCALE
 40
1
  9
$DISPSILH
 70
    0
  9
$DIMSCALE
 40
1
  9
$DIMASZ
 40
2.5
  9
$DIMEXO
 40
0.625
  9
$DIMDLI
 40
3.75
  9
$DIMRND
 40
0
  9
$DIMDLE
 40
0
  9
$DIMEXE
 40
1.25
  9
$DIMTP
 40
0
  9
$DIMTM
 40
0
  9
$DIMTXT
 40
2.5
  9
$DIMCEN
 40
2.5
  9
$DIMTSZ
 40
0
  9
$DIMTOL
 70
    0
  9
$DIMLIM
 70
    0
  9
$DIMTIH
 70
    0
  9
$DIMTOH
 70
    0
  9
$DIMSE1
 70
    0
  9
$DIMSE2
 70
    0
  9
$DIMTAD
 70
    1
  9
$DIMZIN
 70
    8
  9
$DIMBLK
  1

  9
$DIMASO
 70
    1
  9
$DIMSHO
 70
    1
  9
$DIMPOST
  1

  9
$DIMAPOST
  1

  9
$DIMALT
 70
    0
  9
$DIMALTD
 70
    3
  9
$DIMALTF
 40
0.03937
  9
$DIMLFAC
 40
1
  9
$DIMTOFL
 70
    1
  9
$DIMTVP
 40
0
  9
$DIMTIX
 70
    0
  9
$DIMSOXD
 70
    0
  9
$DIMSAH
 70
    0
  9
$DIMBLK1
  1

  9
$DIMBLK2
  1

  9
$DIMSTYLE
  2
Standard
  9
$DIMCLRD
 70
    0
  9
$DIMCLRE
 70
    0
  9
$DIMCLRT
 70
    0
  9
$DIMTFAC
 40
1
  9
$DIMGAP
 40
0.625
  9
$DIMJUST
 70
    0
  9
$DIMSD1
 70
    0
  9
$DIMSD2
 70
    0
  9
$DIMTOLJ
 70
    0
  9
$DIMTZIN
 70
    8
  9
$DIMALTZ
 70
    0
  9
$DIMALTTZ
 70
    0
  9
$DIMUPT
 70
    0
  9
$DIMDEC
 70
    2
  9
$DIMTDEC
 70
    2
  9
$DIMALTU
 70
    2
  9
$DIMALTTD
 70
    3
  9
$DIMTXSTY
  7
STANDARD
  9
$DIMAUNIT
 70
    0
  9
$DIMADEC
 70
    0
  9
$DIMALTRND
 40
0
  9
$DIMAZIN
 70
    0
  9
$DIMDSEP
 70
   44
  9
$DIMATFIT
 70
    3
  9
$DIMFRAC
 70
    0
  9
$DIMLDRBLK
  1
STANDARD
  9
$DIMLUNIT
 70
    2
  9
$DIMLWD
 70
   -2
  9
$DIMLWE
 70
   -2
  9
$DIMTMOVE
 70
    0
  9
$DIMFXL
 40
1
  9
$DIMFXLON
 70
    0
  9
$DIMJOGANG
 40
0.7854
  9
$DIMTFILL
 70
    0
  9
$DIMTFILLCLR
 70
    0
  9
$DIMARCSYM
 70
    0
  9
$DIMLTYPE
  6

  9
$DIMLTEX1
  6

  9
$DIMLTEX2
  6

  9
$LUNITS
 70
    2
  9
$LUPREC
 70
    4
  9
$SKETCHINC
 40
1
  9
$FILLETRAD
 40
0
  9
$AUNITS
 70
    0
  9
$AUPREC
 70
    2
  9
$MENU
  1
.
  9
$ELEVATION
 40
0
  9
$PELEVATION
 40
0
  9
$THICKNESS
 40
1.19888
  9
$LIMCHECK
 70
    0
  9
$CHAMFERA
 40
0
  9
$CHAMFERB
 40
0
  9
$CHAMFERC
 40
0
  9
$CHAMFERD
 40
0
  9
$SKPOLY
 70
    0
  9
$USRTIMER
 70
    1
  9
$ANGBASE
 50
0
  9
$ANGDIR
 70
    0
  9
$PDMODE
 70
   34
  9
$PDSIZE
 40
0
  9
$PLINEWID
 40
0
  9
$SPLFRAME
 70
    0
  9
$SPLINETYPE
 70
    2
  9
$SPLINESEGS
 70
    8
  9
$HANDSEED
  5
20000
  9
$SURFTAB1
 70
    6
  9
$SURFTAB2
 70
    6
  9
$SURFTYPE
 70
    6
  9
$SURFU
 70
    6
  9
$SURFV
 70
    6
  9
$UCSBASE
  2

  9
$UCSNAME
  2

  9
$UCSORG
 10
0
 20
0
 30
0
  9
$UCSXDIR
 10
1
 20
0
 30
0
  9
$UCSYDIR
 10
0
 20
1
 30
0
  9
$UCSORTHOREF
  2

  9
$UCSORTHOVIEW
 70
    0
  9
$UCSORGTOP
 10
0
 20
0
 30
0
  9
$UCSORGBOTTOM
 10
0
 20
0
 30
0
  9
$UCSORGLEFT
 10
0
 20
0
 30
0
  9
$UCSORGRIGHT
 10
0
 20
0
 30
0
  9
$UCSORGFRONT
 10
0
 20
0
 30
0
  9
$UCSORGBACK
 10
0
 20
0
 30
0
  9
$PUCSBASE
  2

  9
$PUCSNAME
  2

  9
$PUCSORG
 10
0
 20
0
 30
0
  9
$PUCSXDIR
 10
1
 20
0
 30
0
  9
$PUCSYDIR
 10
0
 20
1
 30
0
  9
$PUCSORTHOREF
  2

  9
$PUCSORTHOVIEW
 70
    0
  9
$PUCSORGTOP
 10
0
 20
0
 30
0
  9
$PUCSORGBOTTOM
 10
0
 20
0
 30
0
  9
$PUCSORGLEFT
 10
0
 20
0
 30
0
  9
$PUCSORGRIGHT
 10
0
 20
0
 30
0
  9
$PUCSORGFRONT
 10
0
 20
0
 30
0
  9
$PUCSORGBACK
 10
0
 20
0
 30
0
  9
$USERI1
 70
    0
  9
$USERI2
 70
    0
  9
$USERI3
 70
    0
  9
$USERI4
 70
    0
  9
$USERI5
 70
    0
  9
$USERR1
 40
0
  9
$USERR2
 40
0
  9
$USERR3
 40
0
  9
$USERR4
 40
0
  9
$USERR5
 40
0
  9
$WORLDVIEW
 70
    1
  9
$SHADEDGE
 70
    3
  9
$SHADEDIF
 70
   70
  9
$TILEMODE
 70
    1
  9
$MAXACTVP
 70
   64
  9
$PINSBASE
 10
0
 20
0
 30
0
  9
$PLIMCHECK
 70
    0
  9
$PEXTMIN
 10
0
 20
0
 30
0
  9
$PEXTMAX
 10
0
 20
0
 30
0
  9
$GRIDMODE
 70
    1
  9
$SNAPSTYLE
 70
    0
  9
$PLIMMIN
 10
0
 20
0
  9
$PLIMMAX
 10
210
 20
297
  9
$UNITMODE
 70
    0
  9
$VISRETAIN
 70
    1
  9
$PLINEGEN
 70
    0
  9
$PSLTSCALE
 70
    1
  9
$TREEDEPTH
 70
 3020
  9
$CMLSTYLE
  2
Standard
  9
$CMLJUST
 70
    0
  9
$CMLSCALE
 40
20
  9
$PROXYGRAPHICS
 70
    1
  9
$MEASUREMENT
 70
    1
  9
$CELWEIGHT
370
   -1
  9
$ENDCAPS
280
    0
  9
$JOINSTYLE
280
    0
  9
$LWDISPLAY
290
    0
  9
$INSUNITS
 70
    4
  9
$HYPERLINKBASE
  1

  9
$STYLESHEET
  1

  9
$XEDIT
290
    1
  9
$CEPSNTYPE
380
    0
  9
$PSTYLEMODE
290
    1
  9
$EXTNAMES
290
    1
  9
$PSVPSCALE
 40
1
  9
$OLESTARTUP
290
    0
  9
$SORTENTS
280
  127
  9
$INDEXCTL
280
    0
  9
$HIDETEXT
280
    1
  9
$XCLIPFRAME
290
    0
  9
$HALOGAP
280
    0
  9
$OBSCOLOR
 70
  257
  9
$OBSLTYPE
280
    0
  9
$INTERSECTIONDISPLAY
280
    0
  9
$INTERSECTIONCOLOR
 70
  257
  9
$DIMASSOC
280
    1
  9
$PROJECTNAME
  1

  9
$CAMERADISPLAY
290
    0
  9
$LENSLENGTH
 40
50
  9
$CAMERAHEIGHT
 40
0
  9
$STEPSPERSEC
 40
2
  9
$STEPSIZE
 40
50
  9
$3DDWFPREC
 40
2
  9
$PSOLWIDTH
 40
5
  9
$PSOLHEIGHT
 40
80
  9
$LOFTANG1
 40
1.570796326794897
  9
$LOFTANG2
 40
1.570796326794897
  9
$LOFTMAG1
 40
0
  9
$LOFTMAG2
 40
0
  9
$LOFTPARAM
 70
    7
  9
$LOFTNORMALS
280
    1
  9
$LATITUDE
 40
1
  9
$LONGITUDE
 40
1
  9
$NORTHDIRECTION
 40
0
  9
$TIMEZONE
 70
-8000
  9
$LIGHTGLYPHDISPLAY
280
    1
  9
$TILEMODELIGHTSYNCH
280
    1
  9
$SOLIDHIST
280
    1
  9
$SHOWHIST
280
    1
  9
$DWFFRAME
280
    2
  9
$DGNFRAME
280
    0
  9
$REALWORLDSCALE
290
    1
  9
$INTERFERECOLOR
 62
    1
  9
$CSHADOW
280
    0
  9
$SHADOWPLANELOCATION
 40
0
  0
ENDSEC
  0
SECTION
  2
CLASSES
  0
ENDSEC
  0
SECTION
  2
TABLES
  0
TABLE
  2
VPORT
  5
8
330
0
100
AcDbSymbolTable
 70
    1
  0
VPORT
  5
31
330
2
100
AcDbSymbolTableRecord
100
AcDbViewportTableRecord
  2
*ACTIVE
 70
    0
 10
0
 20
0
 11
1
 21
1
 12
736.6916348439024
 22
249.9988112000935
 13
0
 23
0
 14
10
 24
10
 15
10
 25
10
 16
0
 26
0
 36
1
 17
0
 27
0
 37
0
 40
515.1092456790363
 41
1.567602040816326
 42
50
 43
0
 44
0
 50
0
 51
0
 71
    0
 72
  100
 73
    1
 74
    3
 75
    0
 76
    1
 77
    0
 78
    0
281
    0
 65
    1
110
0
120
0
130
0
111
1
121
0
131
0
112
0
122
1
132
0
 79
    0
146
0
348
10020
 60
    7
 61
    5
292
1
282
    1
141
0
142
0
 63
  250
421
3358443
  0
ENDTAB
  0
TABLE
  2
LTYPE
  5
5
330
0
100
AcDbSymbolTable
 70
    4
  0
LTYPE
  5
14
330
5
100
AcDbSymbolTableRecord
100
AcDbLinetypeTableRecord
  2
ByBlock
 70
    0
  3

 72
   65
 73
    0
 40
0
  0
LTYPE
  5
15
330
5
100
AcDbSymbolTableRecord
100
AcDbLinetypeTableRecord
  2
ByLayer
 70
    0
  3

 72
   65
 73
    0
 40
0
  0
LTYPE
  5
16
330
5
100
AcDbSymbolTableRecord
100
AcDbLinetypeTableRecord
  2
Continuous
 70
    0
  3
Solid line
 72
   65
 73
    0
 40
0
  0
LTYPE
  5
32
330
5
100
AcDbSymbolTableRecord
100
AcDbLinetypeTableRecord
  2
DOT
 70
    0
  3
Dot . . . . . . . . . . . . . . . . . . . . . .
 72
   65
 73
    2
 40
6.35
 49
0
 74
    0
 49
-6.35
 74
    0
  0
LTYPE
  5
33
330
5
100
AcDbSymbolTableRecord
100
AcDbLinetypeTableRecord
  2
DOTTINY
 70
    0
  3
Dot (.15x) .....................................
 72
   65
 73
    2
 40
0.9525
 49
0
 74
    0
 49
-0.9525
 74
    0
  0
LTYPE
  5
34
330
5
100
AcDbSymbolTableRecord
100
AcDbLinetypeTableRecord
  2
DOT2
 70
    0
  3
Dot (.5x) .....................................
 72
   65
 73
    2
 40
3.175
 49
0
 74
    0
 49
-3.175
 74
    0
  0
LTYPE
  5
35
330
5
100
AcDbSymbolTableRecord
100
AcDbLinetypeTableRecord
  2
DOTX2
 70
    0
  3
Dot (2x) .  .  .  .  .  .  .  .  .  .  .  .  .
 72
   65
 73
    2
 40
12.7
 49
0
 74
    0
 49
-12.7
 74
    0
  0
LTYPE
  5
36
330
5
100
AcDbSymbolTableRecord
100
AcDbLinetypeTableRecord
  2
DASHED
 70
    0
  3
Dashed _ _ _ _ _ _ _ _ _ _ _ _ _ _ _ _ _
 72
   65
 73
    2
 40
19.05
 49
12.7
 74
    0
 49
-6.35
 74
    0
  0
LTYPE
  5
37
330
5
100
AcDbSymbolTableRecord
100
AcDbLinetypeTableRecord
  2
DASHEDTINY
 70
    0
  3
Dashed (.15x) _ _ _ _ _ _ _ _ _ _ _ _ _ _ _ _ _
 72
   65
 73
    2
 40
2.8575
 49
1.905
 74
    0
 49
-0.9525
 74
    0
  0
LTYPE
  5
38
330
5
100
AcDbSymbolTableRecord
100
AcDbLinetypeTableRecord
  2
DASHED2
 70
    0
  3
Dashed (.5x) _ _ _ _ _ _ _ _ _ _ _ _ _ _ _ _ _
 72
   65
 73
    2
 40
9.524999999999999
 49
6.35
 74
    0
 49
-3.175
 74
    0
  0
LTYPE
  5
39
330
5
100
AcDbSymbolTableRecord
100
AcDbLinetypeTableRecord
  2
DASHEDX2
 70
    0
  3
Dashed (2x) ____  ____  ____  ____  ____  ___
 72
   65
 73
    2
 40
38.09999999999999
 49
25.4
 74
    0
 49
-12.7
 74
    0
  0
LTYPE
  5
3A
330
5
100
AcDbSymbolTableRecord
100
AcDbLinetypeTableRecord
  2
DASHDOT
 70
    0
  3
Dash dot __ . __ . __ . __ . __ . __ . __ . __
 72
   65
 73
    4
 40
25.4
 49
12.7
 74
    0
 49
-6.35
 74
    0
 49
0
 74
    0
 49
-6.35
 74
    0
  0
LTYPE
  5
3B
330
5
100
AcDbSymbolTableRecord
100
AcDbLinetypeTableRecord
  2
DASHDOTTINY
 70
    0
  3
Dash dot (.15x) _._._._._._._._._._._._._._._.
 72
   65
 73
    4
 40
3.81
 49
1.905
 74
    0
 49
-0.9525
 74
    0
 49
0
 74
    0
 49
-0.9525
 74
    0
  0
LTYPE
  5
3C
330
5
100
AcDbSymbolTableRecord
100
AcDbLinetypeTableRecord
  2
DASHDOT2
 70
    0
  3
Dash dot (.5x) _._._._._._._._._._._._._._._.
 72
   65
 73
    4
 40
12.7
 49
6.35
 74
    0
 49
-3.175
 74
    0
 49
0
 74
    0
 49
-3.175
 74
    0
  0
LTYPE
  5
3D
330
5
100
AcDbSymbolTableRecord
100
AcDbLinetypeTableRecord
  2
DASHDOTX2
 70
    0
  3
Dash dot (2x) ____  .  ____  .  ____  .  ___
 72
   65
 73
    4
 40
50.8
 49
25.4
 74
    0
 49
-12.7
 74
    0
 49
0
 74
    0
 49
-12.7
 74
    0
  0
LTYPE
  5
3E
330
5
100
AcDbSymbolTableRecord
100
AcDbLinetypeTableRecord
  2
DIVIDE
 70
    0
  3
Divide ____ . . ____ . . ____ . . ____ . . ____
 72
   65
 73
    6
 40
31.75
 49
12.7
 74
    0
 49
-6.35
 74
    0
 49
0
 74
    0
 49
-6.35
 74
    0
 49
0
 74
    0
 49
-6.35
 74
    0
  0
LTYPE
  5
3F
330
5
100
AcDbSymbolTableRecord
100
AcDbLinetypeTableRecord
  2
DIVIDETINY
 70
    0
  3
Divide (.15x) __..__..__..__..__..__..__..__.._
 72
   65
 73
    6
 40
4.7625
 49
1.905
 74
    0
 49
-0.9525
 74
    0
 49
0
 74
    0
 49
-0.9525
 74
    0
 49
0
 74
    0
 49
-0.9525
 74
    0
  0
LTYPE
  5
40
330
5
100
AcDbSymbolTableRecord
100
AcDbLinetypeTableRecord
  2
DIVIDE2
 70
    0
  3
Divide (.5x) __..__..__..__..__..__..__..__.._
 72
   65
 73
    6
 40
15.875
 49
6.35
 74
    0
 49
-3.175
 74
    0
 49
0
 74
    0
 49
-3.175
 74
    0
 49
0
 74
    0
 49
-3.175
 74
    0
  0
LTYPE
  5
41
330
5
100
AcDbSymbolTableRecord
100
AcDbLinetypeTableRecord
  2
DIVIDEX2
 70
    0
  3
Divide (2x) ________  .  .  ________  .  .  _
 72
   65
 73
    6
 40
63.5
 49
25.4
 74
    0
 49
-12.7
 74
    0
 49
0
 74
    0
 49
-12.7
 74
    0
 49
0
 74
    0
 49
-12.7
 74
    0
  0
LTYPE
  5
42
330
5
100
AcDbSymbolTableRecord
100
AcDbLinetypeTableRecord
  2
BORDER
 70
    0
  3
Border __ __ . __ __ . __ __ . __ __ . __ __ .
 72
   65
 73
    6
 40
44.45
 49
12.7
 74
    0
 49
-6.35
 74
    0
 49
12.7
 74
    0
 49
-6.35
 74
    0
 49
0
 74
    0
 49
-6.35
 74
    0
  0
LTYPE
  5
43
330
5
100
AcDbSymbolTableRecord
100
AcDbLinetypeTableRecord
  2
BORDERTINY
 70
    0
  3
Border (.15x) __.__.__.__.__.__.__.__.__.__.__.
 72
   65
 73
    6
 40
6.6675
 49
1.905
 74
    0
 49
-0.9525
 74
    0
 49
1.905
 74
    0
 49
-0.9525
 74
    0
 49
0
 74
    0
 49
-0.9525
 74
    0
  0
LTYPE
  5
44
330
5
100
AcDbSymbolTableRecord
100
AcDbLinetypeTableRecord
  2
BORDER2
 70
    0
  3
Border (.5x) __.__.__.__.__.__.__.__.__.__.__.
 72
   65
 73
    6
 40
22.225
 49
6.35
 74
    0
 49
-3.175
 74
    0
 49
6.35
 74
    0
 49
-3.175
 74
    0
 49
0
 74
    0
 49
-3.175
 74
    0
  0
LTYPE
  5
45
330
5
100
AcDbSymbolTableRecord
100
AcDbLinetypeTableRecord
  2
BORDERX2
 70
    0
  3
Border (2x) ____  ____  .  ____  ____  .  ___
 72
   65
 73
    6
 40
88.89999999999999
 49
25.4
 74
    0
 49
-12.7
 74
    0
 49
25.4
 74
    0
 49
-12.7
 74
    0
 49
0
 74
    0
 49
-12.7
 74
    0
  0
LTYPE
  5
46
330
5
100
AcDbSymbolTableRecord
100
AcDbLinetypeTableRecord
  2
CENTER
 70
    0
  3
Center ____ _ ____ _ ____ _ ____ _ ____ _ ____
 72
   65
 73
    4
 40
50.8
 49
31.75
 74
    0
 49
-6.35
 74
    0
 49
6.35
 74
    0
 49
-6.35
 74
    0
  0
LTYPE
  5
47
330
5
100
AcDbSymbolTableRecord
100
AcDbLinetypeTableRecord
  2
CENTERTINY
 70
    0
  3
Center (.15x) ___ _ ___ _ ___ _ ___ _ ___ _ ___
 72
   65
 73
    4
 40
7.62
 49
4.7625
 74
    0
 49
-0.9525
 74
    0
 49
0.9525
 74
    0
 49
-0.9525
 74
    0
  0
LTYPE
  5
48
330
5
100
AcDbSymbolTableRecord
100
AcDbLinetypeTableRecord
  2
CENTER2
 70
    0
  3
Center (.5x) ___ _ ___ _ ___ _ ___ _ ___ _ ___
 72
   65
 73
    4
 40
28.575
 49
19.05
 74
    0
 49
-3.175
 74
    0
 49
3.175
 74
    0
 49
-3.175
 74
    0
  0
LTYPE
  5
49
330
5
100
AcDbSymbolTableRecord
100
AcDbLinetypeTableRecord
  2
CENTERX2
 70
    0
  3
Center (2x) ________  __  ________  __  _____
 72
   65
 73
    4
 40
101.6
 49
63.5
 74
    0
 49
-12.7
 74
    0
 49
12.7
 74
    0
 49
-12.7
 74
    0
  0
ENDTAB
  0
TABLE
  2
LAYER
  5
2
330
0
100
AcDbSymbolTable
 70
    1
  0
LAYER
  5
10
330
2
100
AcDbSymbolTableRecord
100
AcDbLayerTableRecord
  2
0
 70
    0
 62
    7
  6
CONTINUOUS
370
    0
390
F
  0
LAYER
  5
4A
330
2
100
AcDbSymbolTableRecord
100
AcDbLayerTableRecord
  2
noname
 70
    0
 62
    3
  6
DASHED2
370
    0
390
F
  0
ENDTAB
  0
TABLE
  2
STYLE
  5
3
330
0
100
AcDbSymbolTable
 70
    3
  0
STYLE
  5
4B
330
2
100
AcDbSymbolTableRecord
100
AcDbTextStyleTableRecord
  2
Standard
 70
    0
 40
0
 41
1
 50
0
 71
    0
 42
1
  3
txt
  4

  0
ENDTAB
  0
TABLE
  2
VIEW
  5
6
330
0
100
AcDbSymbolTable
 70
    0
  0
ENDTAB
  0
TABLE
  2
UCS
  5
7
330
0
100
AcDbSymbolTable
 70
    0
  0
ENDTAB
  0
TABLE
  2
APPID
  5
9
330
0
100
AcDbSymbolTable
 70
    1
  0
APPID
  5
12
330
9
100
AcDbSymbolTableRecord
100
AcDbRegAppTableRecord
  2
ACAD
 70
    0
  0
APPID
  5
4C
330
9
100
AcDbSymbolTableRecord
100
AcDbRegAppTableRecord
  2
LibreCad
 70
    0
  0
ENDTAB
  0
TABLE
  2
DIMSTYLE
  5
A
330
0
100
AcDbSymbolTable
 70
    1
100
AcDbDimStyleTable
 71
    1
  0
DIMSTYLE
105
4D
330
A
100
AcDbSymbolTableRecord
100
AcDbDimStyleTableRecord
  2
Standard
 70
    0
 40
1
 41
2.5
 42
0.625
 43
0.38
 44
1.25
 45
0
 46
0
 47
0
 48
0
 49
1
140
2.5
141
0.09
142
0
143
25.4
144
1
145
0
146
1
147
0.625
148
0
 71
    0
 72
    0
 73
    0
 74
    1
 75
    0
 76
    0
 77
    0
 78
    8
 79
    0
170
    0
171
    2
172
    0
173
    0
174
    0
175
    0
176
    0
177
    0
178
    0
179
    0
271
    2
272
    4
273
    2
274
    2
275
    0
276
    0
277
    2
278
   44
279
    0
280
    0
281
    0
282
    0
283
    1
284
    0
285
    0
286
    0
288
    0
289
    3
340
STANDARD
341

371
   -2
372
   -2
  0
ENDTAB
  0
TABLE
  2
BLOCK_RECORD
  5
1
330
0
100
AcDbSymbolTable
 70
    2
  0
BLOCK_RECORD
  5
1F
330
1
100
AcDbSymbolTableRecord
100
AcDbBlockTableRecord
  2
*Model_Space
 70
    0
280
    1
281
    0
  0
BLOCK_RECORD
  5
1E
330
1
100
AcDbSymbolTableRecord
100
AcDbBlockTableRecord
  2
*Paper_Space
 70
    0
280
    1
281
    0
  0
BLOCK_RECORD
  5
4E
330
1
100
AcDbSymbolTableRecord
100
AcDbBlockTableRecord
  2
*D2
 70
    0
280
    1
281
    0
  0
BLOCK_RECORD
  5
51
330
1
100
AcDbSymbolTableRecord
100
AcDbBlockTableRecord
  2
*D3
 70
    0
280
    1
281
    0
  0
BLOCK_RECORD
  5
54
330
1
100
AcDbSymbolTableRecord
100
AcDbBlockTableRecord
  2
*D1
 70
    0
280
    1
281
    0
  0
BLOCK_RECORD
  5
57
330
1
100
AcDbSymbolTableRecord
100
AcDbBlockTableRecord
  2
FIGURE_CIRCLE
 70
    0
280
    1
281
    0
  0
BLOCK_RECORD
  5
5A
330
1
100
AcDbSymbolTableRecord
100
AcDbBlockTableRecord
  2
FIGURE_SQUARE
 70
    0
280
    1
281
    0
  0
BLOCK_RECORD
  5
5D
330
1
100
AcDbSymbolTableRecord
100
AcDbBlockTableRecord
  2
FIGURE_HEX
 70
    0
280
    1
281
    0
  0
BLOCK_RECORD
  5
60
330
1
100
AcDbSymbolTableRecord
100
AcDbBlockTableRecord
  2
FIGURE_OCT
 70
    0
280
    1
281
    0
  0
BLOCK_RECORD
  5
63
330
1
100
AcDbSymbolTableRecord
100
AcDbBlockTableRecord
  2
FIGURE_OBLONG
 70
    0
280
    1
281
    0
  0
BLOCK_RECORD
  5
66
330
1
100
AcDbSymbolTableRecord
100
AcDbBlockTableRecord
  2
FIGURE_TRI
 70
    0
280
    1
281
    0
  0
BLOCK_RECORD
  5
69
330
1
100
AcDbSymbolTableRecord
100
AcDbBlockTableRecord
  2
FIGURE_CROSS
 70
    0
280
    1
281
    0
  0
BLOCK_RECORD
  5
6C
330
1
100
AcDbSymbolTableRecord
100
AcDbBlockTableRecord
  2
FIGURE_DIAMOND
 70
    0
280
    1
281
    0
  0
ENDTAB
  0
ENDSEC
  0
SECTION
  2
BLOCKS
  0
BLOCK
  5
20
330
1F
100
AcDbEntity
  8
0
100
AcDbBlockBegin
  2
*Model_Space
 70
    0
 10
0
 20
0
 30
0
  3
*Model_Space
  1

  0
ENDBLK
  5
21
330
1F
100
AcDbEntity
  8
0
100
AcDbBlockEnd
  0
BLOCK
  5
1C
330
1B
100
AcDbEntity
  8
0
100
AcDbBlockBegin
  2
*Paper_Space
 70
    0
 10
0
 20
0
 30
0
  3
*Paper_Space
  1

  0
ENDBLK
  5
1D
330
1F
100
AcDbEntity
  8
0
100
AcDbBlockEnd
  0
BLOCK
  5
4F
330
4E
100
AcDbEntity
  8
0
100
AcDbBlockBegin
  2
*D2
 70
    1
 10
0
 20
0
  3
*D2
  1

  0
LINE
  5
6F
100
AcDbEntity
  8
0
  6
ByBlock
 62
    0
370
   -2
100
AcDbLine
 10
820
 20
360
 11
1185.999999999974
 21
360
  0
SOLID
  5
70
100
AcDbEntity
  8
0
  6
ByBlock
 62
    0
370
   -2
100
AcDbTrace
 10
820
 20
360
 30
0
 11
822.5
 21
360.4162846577728
 31
0
 12
822.5
 22
359.5837153422272
 32
0
 13
822.5
 23
359.5837153422272
 33
0
  0
SOLID
  5
71
100
AcDbEntity
  8
0
  6
ByBlock
 62
    0
370
   -2
100
AcDbTrace
 10
1185.999999999974
 20
360
 30
0
 11
1183.499999999974
 21
359.5837153422272
 31
0
 12
1183.499999999974
 22
360.4162846577728
 32
0
 13
1183.499999999974
 23
360.4162846577728
 33
0
  0
MTEXT
  5
72
100
AcDbEntity
  8
0
  6
CONTINUOUS
 62
    0
370
   -2
100
AcDbMText
 10
1002.999999999987
 20
361.875
 30
0
 40
2.5
 41
5.000000000000465
 71
    5
 72
    1
  1
366
  7
STANDARD
210
0
220
0
230
1
 50
0
 73
    2
 44
1
  0
LINE
  5
73
100
AcDbEntity
  8
0
  6
ByBlock
 62
    0
370
   -2
100
AcDbLine
 10
820
 20
296.125
 11
820
 21
361.25
  0
LINE
  5
74
100
AcDbEntity
  8
0
  6
ByBlock
 62
    0
370
   -2
100
AcDbLine
 10
1185.999999999974
 20
268.6249844089731
 11
1185.999999999974
 21
361.25
  0
ENDBLK
  5
50
330
4E
100
AcDbEntity
  8
0
100
AcDbBlockEnd
  0
BLOCK
  5
52
330
51
100
AcDbEntity
  8
0
100
AcDbBlockBegin
  2
*D3
 70
    1
 10
0
 20
0
  3
*D3
  1

  0
LINE
  5
75
100
AcDbEntity
  8
0
  6
ByBlock
 62
    0
370
   -2
100
AcDbLine
 10
980.625
 20
350
 11
1211.25
 21
349.9999999999999
  0
LINE
  5
76
100
AcDbEntity
  8
0
  6
ByBlock
 62
    0
370
   -2
100
AcDbLine
 10
980.625
 20
80
 11
1211.25
 21
79.99999999999994
  0
LINE
  5
77
100
AcDbEntity
  8
0
  6
ByBlock
 62
    0
370
   -2
100
AcDbLine
 10
1210
 20
349.9999999999999
 11
1210
 21
79.99999999999994
  0
SOLID
  5
78
100
AcDbEntity
  8
0
  6
ByBlock
 62
    0
370
   -2
100
AcDbTrace
 10
1210
 20
349.9999999999999
 30
0
 11
1210.416284657773
 21
347.4999999999999
 31
0
 12
1209.583715342227
 22
347.4999999999999
 32
0
 13
1209.583715342227
 23
347.4999999999999
 33
0
  0
SOLID
  5
79
100
AcDbEntity
  8
0
  6
ByBlock
 62
    0
370
   -2
100
AcDbTrace
 10
1210
 20
79.99999999999994
 30
0
 11
1209.583715342227
 21
82.49999999999994
 31
0
 12
1210.416284657773
 22
82.49999999999994
 32
0
 13
1210.416284657773
 23
82.49999999999994
 33
0
  0
MTEXT
  5
7A
100
AcDbEntity
  8
0
  6
CONTINUOUS
 62
    0
370
   -2
100
AcDbMText
 10
1208.125
 20
214.9999999999999
 30
0
 40
2.5
 41
5
 71
    5
 72
    1
  1
270
  7
STANDARD
210
0
220
0
230
1
 50
90
 73
    2
 44
1
  0
ENDBLK
  5
53
330
51
100
AcDbEntity
  8
0
100
AcDbBlockEnd
  0
BLOCK
  5
55
330
54
100
AcDbEntity
  8
0
100
AcDbBlockBegin
  2
*D1
 70
    1
 10
0
 20
0
  3
*D1
  1

  0
LINE
  5
7B
100
AcDbEntity
  8
0
  6
ByBlock
 62
    0
370
   -2
100
AcDbLine
 10
958.7279220613578
 20
262.7279220613578
 11
933.2720779386422
 21
237.2720779386422
  0
SOLID
  5
7C
100
AcDbEntity
  8
0
  6
ByBlock
 62
    0
370
   -2
100
AcDbTrace
 10
958.7279220613578
 20
262.7279220613578
 30
0
 11
957.2545128128065
 21
260.6657974039764
 31
0
 12
956.6657974039764
 22
261.2545128128066
 32
0
 13
956.6657974039764
 23
261.2545128128066
 33
0
  0
SOLID
  5
7D
100
AcDbEntity
  8
0
  6
ByBlock
 62
    0
370
   -2
100
AcDbTrace
 10
933.2720779386422
 20
237.2720779386422
 30
0
 11
934.7454871871935
 21
239.3342025960236
 31
0
 12
935.3342025960236
 22
238.7454871871934
 32
0
 13
935.3342025960236
 23
238.7454871871934
 33
0
  0
MTEXT
  5
7E
100
AcDbEntity
  8
0
  6
CONTINUOUS
 62
    0
370
   -2
100
AcDbMText
 10
944.6741747852752
 20
251.3258252147248
 30
0
 40
2.5
 41
3.055555555555866
 71
    5
 72
    1
  1
36
  7
STANDARD
210
0
220
0
230
1
 50
45
 73
    2
 44
1
  0
ENDBLK
  5
56
330
54
100
AcDbEntity
  8
0
100
AcDbBlockEnd
  0
BLOCK
  5
58
330
57
100
AcDbEntity
  8
0
100
AcDbBlockBegin
  2
FIGURE_CIRCLE
 70
    0
 10
0
 20
0
  3
FIGURE_CIRCLE
  1

  0
CIRCLE
  5
7F
100
AcDbEntity
  8
0
  6
ByLayer
 62
  256
370
   -1
100
AcDbCircle
 10
0
 20
0
 40
0.5
  0
ENDBLK
  5
59
330
57
100
AcDbEntity
  8
0
100
AcDbBlockEnd
  0
BLOCK
  5
5B
330
5A
100
AcDbEntity
  8
0
100
AcDbBlockBegin
  2
FIGURE_SQUARE
 70
    0
 10
0
 20
0
  3
FIGURE_SQUARE
  1

  0
LWPOLYLINE
  5
80
100
AcDbEntity
  8
0
  6
ByLayer
 62
  256
370
   -1
100
AcDbPolyline
 90
    4
 70
    1
 43
0
 10
-0.5
 20
-0.5
 10
-0.5
 20
0.5
 10
0.5
 20
0.5
 10
0.5
 20
-0.5
  0
ENDBLK
  5
5C
330
5A
100
AcDbEntity
  8
0
100
AcDbBlockEnd
  0
BLOCK
  5
5E
330
5D
100
AcDbEntity
  8
0
100
AcDbBlockBegin
  2
FIGURE_HEX
 70
    0
 10
0
 20
0
  3
FIGURE_HEX
  1

  0
LWPOLYLINE
  5
81
100
AcDbEntity
  8
0
  6
ByLayer
 62
  256
370
   -1
100
AcDbPolyline
 90
    6
 70
    1
 43
0
 10
-0.5
 20
0
 10
-0.25
 20
0.5
 10
0.25
 20
0.5
 10
0.5
 20
0
 10
0.25
 20
-0.5
 10
-0.25
 20
-0.5
  0
ENDBLK
  5
5F
330
5D
100
AcDbEntity
  8
0
100
AcDbBlockEnd
  0
BLOCK
  5
61
330
60
100
AcDbEntity
  8
0
100
AcDbBlockBegin
  2
FIGURE_OCT
 70
    0
 10
0
 20
0
  3
FIGURE_OCT
  1

  0
LWPOLYLINE
  5
82
100
AcDbEntity
  8
0
  6
ByLayer
 62
  256
370
   -1
100
AcDbPolyline
 90
    8
 70
    1
 43
0
 10
-0.5
 20
-0.2071
 10
-0.5
 20
0.2071
 10
-0.2071
 20
0.5
 10
0.2071
 20
0.5
 10
0.5
 20
0.2071
 10
0.5
 20
-0.2071
 10
0.2071
 20
-0.5
 10
-0.2071
 20
-0.5
  0
ENDBLK
  5
62
330
60
100
AcDbEntity
  8
0
100
AcDbBlockEnd
  0
BLOCK
  5
64
330
63
100
AcDbEntity
  8
0
100
AcDbBlockBegin
  2
FIGURE_OBLONG
 70
    0
 10
0
 20
0
  3
FIGURE_OBLONG
  1

  0
LWPOLYLINE
  5
83
100
AcDbEntity
  8
0
  6
ByLayer
 62
  256
370
   -1
100
AcDbPolyline
 90
   12
 70
    1
 43
0
 10
-0.5
 20
-0.125
 10
-0.5
 20
0.125
 10
-0.416
 20
0.375
 10
-0.25
 20
0.5
 10
0.25
 20
0.5
 10
0.416
 20
0.375
 10
0.5
 20
0.125
 10
0.5
 20
-0.125
 10
0.416
 20
-0.375
 10
0.25
 20
-0.5
 10
-0.25
 20
-0.5
 10
-0.416
 20
-0.375
  0
ENDBLK
  5
65
330
63
100
AcDbEntity
  8
0
100
AcDbBlockEnd
  0
BLOCK
  5
67
330
66
100
AcDbEntity
  8
0
100
AcDbBlockBegin
  2
FIGURE_TRI
 70
    0
 10
0
 20
0
  3
FIGURE_TRI
  1

  0
LWPOLYLINE
  5
84
100
AcDbEntity
  8
0
  6
ByLayer
 62
  256
370
   -1
100
AcDbPolyline
 90
    3
 70
    1
 43
0
 10
-0.5
 20
-0.5
 10
0
 20
0.5
 10
0.5
 20
-0.5
  0
ENDBLK
  5
68
330
66
100
AcDbEntity
  8
0
100
AcDbBlockEnd
  0
BLOCK
  5
6A
330
69
100
AcDbEntity
  8
0
100
AcDbBlockBegin
  2
FIGURE_CROSS
 70
    0
 10
0
 20
0
  3
FIGURE_CROSS
  1

  0
LWPOLYLINE
  5
85
100
AcDbEntity
  8
0
  6
ByLayer
 62
  256
370
   -1
100
AcDbPolyline
 90
    2
 70
    0
 43
0
 10
-0.5
 20
0
 10
0.5
 20
0
  0
LWPOLYLINE
  5
86
100
AcDbEntity
  8
0
  6
ByLayer
 62
  256
370
   -1
100
AcDbPolyline
 90
    2
 70
    0
 43
0
 10
0
 20
0.5
 10
0
 20
-0.5
  0
ENDBLK
  5
6B
330
69
100
AcDbEntity
  8
0
100
AcDbBlockEnd
  0
BLOCK
  5
6D
330
6C
100
AcDbEntity
  8
0
100
AcDbBlockBegin
  2
FIGURE_DIAMOND
 70
    0
 10
0
 20
0
  3
FIGURE_DIAMOND
  1

  0
LWPOLYLINE
  5
87
100
AcDbEntity
  8
0
  6
ByLayer
 62
  256
370
   -1
100
AcDbPolyline
 90
    4
 70
    1
 43
0
 10
-0.5
 20
0
 10
0
 20
0.5
 10
0.5
 20
0
 10
0
 20
-0.5
  0
ENDBLK
  5
6E
330
6C
100
AcDbEntity
  8
0
100
AcDbBlockEnd
  0
ENDSEC
  0
SECTION
  2
ENTITIES
  0
LINE
  5
88
100
AcDbEntity
  8
0
  6
ByLayer
 62
  256
370
   -1
100
AcDbLine
 10
840
 20
280
 11
900
 21
280
  0
LINE
  5
89
100
AcDbEntity
  8
0
  6
ByLayer
 62
  256
370
   -1
100
AcDbLine
 10
1120
 20
280
 11
1060
 21
280
  0
CIRCLE
  5
8A
100
AcDbEntity
  8
0
  6
ByLayer
 62
  256
370
   -1
100
AcDbCircle
 10
904.9999999999999
 20
310
 40
1
  0
CIRCLE
  5
8B
100
AcDbEntity
  8
0
  6
ByLayer
 62
  256
370
   -1
100
AcDbCircle
 10
955
 20
310
 40
1
  0
CIRCLE
  5
8C
100
AcDbEntity
  8
0
  6
ByLayer
 62
  256
370
   -1
100
AcDbCircle
 10
1005
 20
310
 40
1
  0
CIRCLE
  5
8D
100
AcDbEntity
  8
0
  6
ByLayer
 62
  256
370
   -1
100
AcDbCircle
 10
1055
 20
310
 40
1
  0
ARC
  5
8E
100
AcDbEntity
  8
0
  6
ByLayer
 62
  256
370
   -1
100
AcDbCircle
 10
980
 20
160
 40
10
100
AcDbArc
 50
180
 51
1.526666247102488e-013
  0
LINE
  5
8F
100
AcDbEntity
  8
0
  6
ByLayer
 62
  256
370
   -1
100
AcDbLine
 10
840
 20
280
 11
840
 21
309.9833287011296
  0
LINE
  5
90
100
AcDbEntity
  8
0
  6
ByLayer
 62
  256
370
   -1
100
AcDbLine
 10
1120
 20
280
 11
1120
 21
309.9833287011296
  0
ARC
  5
91
100
AcDbEntity
  8
0
  6
ByLayer
 62
  256
370
   -1
100
AcDbCircle
 10
980
 20
340
 40
10
100
AcDbArc
 50
0
 51
180
  0
LINE
  5
92
100
AcDbEntity
  8
noname
  6
ByLayer
 62
  256
370
   -1
100
AcDbLine
 10
1060.000000756299
 20
100
 11
1060
 21
159.9999999999996
  0
LINE
  5
93
100
AcDbEntity
  8
noname
  6
ByLayer
 62
  256
370
   -1
100
AcDbLine
 10
900
 20
100
 11
900
 21
159.9999999999996
  0
LINE
  5
94
100
AcDbEntity
  8
noname
  6
ByLayer
 62
  256
370
   -1
100
AcDbLine
 10
899.9999994393079
 20
189.9999999999996
 11
900.0000000261289
 21
340
  0
LINE
  5
95
100
AcDbEntity
  8
noname
  6
ByLayer
 62
  256
370
   -1
100
AcDbLine
 10
1060
 20
340
 11
1060
 21
190
  0
LINE
  5
96
100
AcDbEntity
  8
noname
  6
ByLayer
 62
  256
370
   -1
100
AcDbLine
 10
899.999999556672
 20
220
 11
1060
 21
220
  0
LINE
  5
97
100
AcDbEntity
  8
noname
  6
ByLayer
 62
  256
370
   -1
100
AcDbLine
 10
900
 20
280
 11
1060
 21
280
  0
LINE
  5
98
100
AcDbEntity
  8
noname
  6
ByLayer
 62
  256
370
   -1
100
AcDbLine
 10
840
 20
309.9833287011296
 11
840
 21
340
  0
LINE
  5
99
100
AcDbEntity
  8
noname
  6
ByLayer
 62
  256
370
   -1
100
AcDbLine
 10
1120
 20
340
 11
1120
 21
309.9833287011296
  0
LINE
  5
9A
100
AcDbEntity
  8
0
  6
ByLayer
 62
  256
370
   -1
100
AcDbLine
 10
899.9999994393079
 20
189.9999999999996
 11
899.9999999427237
 21
159.9999999999996
  0
LINE
  5
9B
100
AcDbEntity
  8
0
  6
ByLayer
 62
  256
370
   -1
100
AcDbLine
 10
1060
 20
190
 11
1060
 21
159.9999999999996
  0
LINE
  5
9C
100
AcDbEntity
  8
0
  6
ByLayer
 62
  256
370
   -1
100
AcDbLine
 10
967.5799999999975
 20
100
 11
991.5800000000028
 21
100.0000000000001
  0
LINE
  5
9D
100
AcDbEntity
  8
noname
  6
ByLayer
 62
  256
370
   -1
100
AcDbLine
 10
900
 20
100
 11
967.5799999999975
 21
100
  0
LINE
  5
9E
100
AcDbEntity
  8
noname
  6
ByLayer
 62
  256
370
   -1
100
AcDbLine
 10
991.5799999999982
 20
100
 11
1060.000000756299
 21
100
  0
CIRCLE
  5
9F
100
AcDbEntity
  8
0
  6
ByLayer
 62
  256
370
   -1
100
AcDbCircle
 10
980.0000000000002
 20
305
 40
1
  0
LINE
  5
A0
100
AcDbEntity
  8
0
  6
ByLayer
 62
  256
370
   -1
100
AcDbLine
 10
964.9999999999966
 20
313.4999999999991
 11
965.0000000000002
 21
307
  0
ARC
  5
A1
100
AcDbEntity
  8
0
  6
ByLayer
 62
  256
370
   -1
100
AcDbCircle
 10
966.4999999999966
 20
313.5
 40
1.5
100
AcDbArc
 50
90
 51
180.0000000000326
  0
LINE
  5
A2
100
AcDbEntity
  8
0
  6
ByLayer
 62
  256
370
   -1
100
AcDbLine
 10
966.4999999999966
 20
315
 11
993.500000000001
 21
315
  0
LINE
  5
A3
100
AcDbEntity
  8
0
  6
ByLayer
 62
  256
370
   -1
100
AcDbLine
 10
995.0000000000011
 20
313.5000000000009
 11
995.0000000000049
 21
307
  0
ARC
  5
A4
100
AcDbEntity
  8
0
  6
ByLayer
 62
  256
370
   -1
100
AcDbCircle
 10
993.500000000001
 20
313.5
 40
1.5
100
AcDbArc
 50
3.256887993818641e-011
 51
90
  0
LINE
  5
A5
100
AcDbEntity
  8
noname
  6
ByLayer
 62
  256
370
   -1
100
AcDbLine
 10
969.9999999999968
 20
340
 11
989.9999999999882
 21
340
  0
LINE
  5
A6
100
AcDbEntity
  8
0
  6
ByLayer
 62
  256
370
   -1
100
AcDbLine
 10
1113.457396856364
 20
158.2180839606342
 11
1060
 21
159.9999999999996
  0
ARC
  5
A7
100
AcDbEntity
  8
0
  6
ByLayer
 62
  256
370
   -1
100
AcDbCircle
 10
1113.390767090913
 20
156.2191941501754
 40
2
100
AcDbArc
 50
315.0000003611059
 51
88.09084455770368
  0
LINE
  5
A8
100
AcDbEntity
  8
0
  6
ByLayer
 62
  256
370
   -1
100
AcDbLine
 10
1060
 20
159.9999999999996
 11
1116.066629555474
 21
161.8688847038339
  0
ARC
  5
A9
100
AcDbEntity
  8
0
  6
ByLayer
 62
  256
370
   -1
100
AcDbCircle
 10
1115.999999999995
 20
163.8677745212917
 40
2
100
AcDbArc
 50
271.9091494236983
 51
7.897953385010205e-011
  0
LINE
  5
AA
100
AcDbEntity
  8
0
  6
ByLayer
 62
  256
370
   -1
100
AcDbLine
 10
1116.066629660388
 20
218.1311123446537
 11
1060
 21
220
  0
ARC
  5
AB
100
AcDbEntity
  8
0
  6
ByLayer
 62
  256
370
   -1
100
AcDbCircle
 10
1115.999999999923
 20
216.1322225306955
 40
2
100
AcDbArc
 50
7.897953385010205e-011
 51
88.09084756700589
  0
LINE
  5
AC
100
AcDbEntity
  8
0
  6
ByLayer
 62
  256
370
   -1
100
AcDbLine
 10
1060
 20
280
 11
1113.457399408155
 21
278.2180866863948
  0
LINE
  5
AD
100
AcDbEntity
  8
0
  6
ByLayer
 62
  256
370
   -1
100
AcDbLine
 10
1114.804983310063
 20
274.8049833100633
 11
1060
 21
220
  0
ARC
  5
AE
100
AcDbEntity
  8
0
  6
ByLayer
 62
  256
370
   -1
100
AcDbCircle
 10
1113.39076974769
 20
276.2191968724365
 40
2
100
AcDbArc
 50
314.9999999999988
 51
88.09084756700597
  0
LINE
  5
AF
100
AcDbEntity
  8
0
  6
ByLayer
 62
  256
370
   -1
100
AcDbLine
 10
900
 20
220
 11
843.933370542924
 21
218.1311123514308
  0
ARC
  5
B0
100
AcDbEntity
  8
0
  6
ByLayer
 62
  256
370
   -1
100
AcDbCircle
 10
844.0000002033893
 20
216.1322225374725
 40
2
100
AcDbArc
 50
91.90915243299733
 51
180.0000030126238
  0
LINE
  5
B1
100
AcDbEntity
  8
0
  6
ByLayer
 62
  256
370
   -1
100
AcDbLine
 10
843.9333733959863
 20
161.8688846054354
 11
900
 21
159.9999999999996
  0
ARC
  5
B2
100
AcDbEntity
  8
0
  6
ByLayer
 62
  256
370
   -1
100
AcDbCircle
 10
844.0000029514649
 20
163.8677744228933
 40
2
100
AcDbArc
 50
180.0000030126238
 51
268.0908505763213
  0
LINE
  5
B3
100
AcDbEntity
  8
0
  6
ByLayer
 62
  256
370
   -1
100
AcDbLine
 10
846.5426032308079
 20
158.2180838698459
 11
900
 21
159.9999999999996
  0
ARC
  5
B4
100
AcDbEntity
  8
0
  6
ByLayer
 62
  256
370
   -1
100
AcDbCircle
 10
846.6092329997588
 20
156.2191940595038
 40
2
100
AcDbArc
 50
91.90915554260553
 51
224.9999996388929
  0
LINE
  5
B5
100
AcDbEntity
  8
0
  6
ByLayer
 62
  256
370
   -1
100
AcDbLine
 10
900
 20
280
 11
846.5426005918445
 21
278.2180866863948
  0
LINE
  5
B6
100
AcDbEntity
  8
0
  6
ByLayer
 62
  256
370
   -1
100
AcDbLine
 10
845.1950166899367
 20
274.8049833100633
 11
900
 21
220
  0
ARC
  5
B7
100
AcDbEntity
  8
0
  6
ByLayer
 62
  256
370
   -1
100
AcDbCircle
 10
846.6092302523098
 20
276.2191968724365
 40
2
100
AcDbArc
 50
91.9091524329973
 51
225.0000000000011
  0
LINE
  5
B8
100
AcDbEntity
  8
0
  6
ByLayer
 62
  256
370
   -1
100
AcDbLine
 10
822
 20
280
 11
840
 21
280
  0
ARC
  5
B9
100
AcDbEntity
  8
0
  6
ByLayer
 62
  256
370
   -1
100
AcDbCircle
 10
822
 20
282
 40
2
100
AcDbArc
 50
180
 51
270
  0
LINE
  5
BA
100
AcDbEntity
  8
0
  6
ByLayer
 62
  256
370
   -1
100
AcDbLine
 10
969.9999999999968
 20
340
 11
822
 21
340
  0
ARC
  5
BB
100
AcDbEntity
  8
0
  6
ByLayer
 62
  256
370
   -1
100
AcDbCircle
 10
822
 20
338
 40
2
100
AcDbArc
 50
90
 51
180
  0
LINE
  5
BC
100
AcDbEntity
  8
0
  6
ByLayer
 62
  256
370
   -1
100
AcDbLine
 10
990
 20
340
 11
1138
 21
340
  0
ARC
  5
BD
100
AcDbEntity
  8
0
  6
ByLayer
 62
  256
370
   -1
100
AcDbCircle
 10
1138
 20
338
 40
2
100
AcDbArc
 50
0
 51
90
  0
LINE
  5
BE
100
AcDbEntity
  8
0
  6
ByLayer
 62
  256
370
   -1
100
AcDbLine
 10
1138
 20
280
 11
1120
 21
280
  0
ARC
  5
BF
100
AcDbEntity
  8
0
  6
ByLayer
 62
  256
370
   -1
100
AcDbCircle
 10
1138
 20
282
 40
2
100
AcDbArc
 50
270
 51
0
  0
ARC
  5
C0
100
AcDbEntity
  8
0
  6
ByLayer
 62
  256
370
   -1
100
AcDbCircle
 10
1039.171573876269
 20
81.99999999999999
 40
2
100
AcDbArc
 50
270
 51
315.0000003611045
  0
LINE
  5
C1
100
AcDbEntity
  8
0
  6
ByLayer
 62
  256
370
   -1
100
AcDbLine
 10
920.8284261237311
 20
80
 11
1039.171573876269
 21
80
  0
ARC
  5
C2
100
AcDbEntity
  8
0
  6
ByLayer
 62
  256
370
   -1
100
AcDbCircle
 10
920.8284261237311
 20
82
 40
2
100
AcDbArc
 50
224.9999996388935
 51
270
  0
LINE
  5
C3
100
AcDbEntity
  8
0
  6
ByLayer
 62
  256
370
   -1
100
AcDbLine
 10
842.0000016300074
 20
188.9999983750054
 11
842.0000029514649
 21
163.8677743177329
  0
LINE
  5
C4
100
AcDbEntity
  8
0
  6
ByLayer
 62
  256
370
   -1
100
AcDbLine
 10
820
 20
309
 11
820
 21
282
  0
LINE
  5
C5
100
AcDbEntity
  8
0
  6
ByLayer
 62
  256
370
   -1
100
AcDbLine
 10
1140
 20
309
 11
1140
 21
282
  0
LINE
  5
C6
100
AcDbEntity
  8
0
  6
ByLayer
 62
  256
370
   -1
100
AcDbLine
 10
1117.999999999995
 20
163.8677745212945
 11
1117.999999999959
 21
188.9999985259963
  0
LINE
  5
C7
100
AcDbEntity
  8
0
  6
ByLayer
 62
  256
370
   -1
100
AcDbLine
 10
1076.988277278117
 20
116.9882767359545
 11
1040.585787447555
 21
80.58578644653988
  0
LINE
  5
C8
100
AcDbEntity
  8
0
  6
ByLayer
 62
  256
370
   -1
100
AcDbLine
 10
883.0117227671726
 20
116.9882766906649
 11
919.414212552445
 21
80.58578644654
  0
LINE
  5
C9
100
AcDbEntity
  8
noname
  6
ByLayer
 62
  256
370
   -1
100
AcDbLine
 10
990
 20
160
 11
1060
 21
159.9999999999996
  0
LINE
  5
CA
100
AcDbEntity
  8
noname
  6
ByLayer
 62
  256
370
   -1
100
AcDbLine
 10
900
 20
159.9999999999996
 11
970
 21
160
  0
CIRCLE
  5
CB
100
AcDbEntity
  8
0
  6
ByLayer
 62
  256
370
   -1
100
AcDbCircle
 10
955
 20
317.5
 40
1.5
  0
CIRCLE
  5
CC
100
AcDbEntity
  8
0
  6
ByLayer
 62
  256
370
   -1
100
AcDbCircle
 10
1005
 20
317.5
 40
1.5
  0
ARC
  5
CD
100
AcDbEntity
  8
0
  6
ByLayer
 62
  256
370
   -1
100
AcDbCircle
 10
933.4999999999997
 20
140.000000000007
 40
2.5
100
AcDbArc
 50
90
 51
180
  0
LINE
  5
CE
100
AcDbEntity
  8
0
  6
ByLayer
 62
  256
370
   -1
100
AcDbLine
 10
930.9999999999997
 20
140.000000000007
 11
930.9999999999997
 21
140.000000000007
  0
ARC
  5
CF
100
AcDbEntity
  8
0
  6
ByLayer
 62
  256
370
   -1
100
AcDbCircle
 10
933.4999999999997
 20
140.000000000007
 40
2.5
100
AcDbArc
 50
180
 51
270
  0
LINE
  5
D0
100
AcDbEntity
  8
0
  6
ByLayer
 62
  256
370
   -1
100
AcDbLine
 10
933.4999999999997
 20
142.500000000007
 11
958.5000000000003
 21
142.500000000007
  0
ARC
  5
D1
100
AcDbEntity
  8
0
  6
ByLayer
 62
  256
370
   -1
100
AcDbCircle
 10
958.5000000000003
 20
140.000000000007
 40
2.5
100
AcDbArc
 50
0
 51
90
  0
LINE
  5
D2
100
AcDbEntity
  8
0
  6
ByLayer
 62
  256
370
   -1
100
AcDbLine
 10
961.0000000000003
 20
140.000000000007
 11
961.0000000000003
 21
140.000000000007
  0
LINE
  5
D3
100
AcDbEntity
  8
0
  6
ByLayer
 62
  256
370
   -1
100
AcDbLine
 10
933.4999999999997
 20
137.500000000007
 11
958.5000000000003
 21
137.500000000007
  0
ARC
  5
D4
100
AcDbEntity
  8
0
  6
ByLayer
 62
  256
370
   -1
100
AcDbCircle
 10
958.5000000000003
 20
140.000000000007
 40
2.5
100
AcDbArc
 50
270
 51
0
  0
ARC
  5
D5
100
AcDbEntity
  8
0
  6
ByLayer
 62
  256
370
   -1
100
AcDbCircle
 10
958.5000000000003
 20
130.000000000007
 40
2.5
100
AcDbArc
 50
0
 51
90
  0
LINE
  5
D6
100
AcDbEntity
  8
0
  6
ByLayer
 62
  256
370
   -1
100
AcDbLine
 10
961.0000000000003
 20
130.000000000007
 11
961.0000000000003
 21
130.0000000000034
  0
ARC
  5
D7
100
AcDbEntity
  8
0
  6
ByLayer
 62
  256
370
   -1
100
AcDbCircle
 10
958.5000000000003
 20
130.0000000000034
 40
2.5
100
AcDbArc
 50
270
 51
0
  0
LINE
  5
D8
100
AcDbEntity
  8
0
  6
ByLayer
 62
  256
370
   -1
100
AcDbLine
 10
933.4999999999997
 20
132.500000000007
 11
958.5000000000003
 21
132.500000000007
  0
ARC
  5
D9
100
AcDbEntity
  8
0
  6
ByLayer
 62
  256
370
   -1
100
AcDbCircle
 10
933.4999999999997
 20
130.000000000007
 40
2.5
100
AcDbArc
 50
90
 51
180
  0
LINE
  5
DA
100
AcDbEntity
  8
0
  6
ByLayer
 62
  256
370
   -1
100
AcDbLine
 10
930.9999999999997
 20
130.000000000007
 11
930.9999999999997
 21
130.0000000000034
  0
LINE
  5
DB
100
AcDbEntity
  8
0
  6
ByLayer
 62
  256
370
   -1
100
AcDbLine
 10
933.4999999999997
 20
127.5000000000034
 11
958.5000000000003
 21
127.5000000000034
  0
ARC
  5
DC
100
AcDbEntity
  8
0
  6
ByLayer
 62
  256
370
   -1
100
AcDbCircle
 10
933.4999999999997
 20
130.0000000000034
 40
2.5
100
AcDbArc
 50
180
 51
270
  0
ARC
  5
DD
100
AcDbEntity
  8
0
  6
ByLayer
 62
  256
370
   -1
100
AcDbCircle
 10
933.4999999999997
 20
120.0000000000058
 40
2.5
100
AcDbArc
 50
90
 51
180
  0
LINE
  5
DE
100
AcDbEntity
  8
0
  6
ByLayer
 62
  256
370
   -1
100
AcDbLine
 10
930.9999999999997
 20
120.0000000000058
 11
930.9999999999997
 21
120.0000000000063
  0
ARC
  5
DF
100
AcDbEntity
  8
0
  6
ByLayer
 62
  256
370
   -1
100
AcDbCircle
 10
933.4999999999997
 20
120.0000000000063
 40
2.5
100
AcDbArc
 50
180
 51
270
  0
LINE
  5
E0
100
AcDbEntity
  8
0
  6
ByLayer
 62
  256
370
   -1
100
AcDbLine
 10
933.4999999999997
 20
117.5000000000063
 11
958.5000000000003
 21
117.5000000000063
  0
ARC
  5
E1
100
AcDbEntity
  8
0
  6
ByLayer
 62
  256
370
   -1
100
AcDbCircle
 10
958.5000000000003
 20
120.0000000000063
 40
2.5
100
AcDbArc
 50
270
 51
0
  0
LINE
  5
E2
100
AcDbEntity
  8
0
  6
ByLayer
 62
  256
370
   -1
100
AcDbLine
 10
958.5000000000003
 20
122.5000000000058
 11
933.4999999999997
 21
122.5000000000058
  0
LINE
  5
E3
100
AcDbEntity
  8
0
  6
ByLayer
 62
  256
370
   -1
100
AcDbLine
 10
961.0000000000003
 20
120.0000000000058
 11
961.0000000000003
 21
120.0000000000063
  0
ARC
  5
E4
100
AcDbEntity
  8
0
  6
ByLayer
 62
  256
370
   -1
100
AcDbCircle
 10
958.5000000000003
 20
120.0000000000058
 40
2.5
100
AcDbArc
 50
0
 51
90
  0
ARC
  5
E5
100
AcDbEntity
  8
0
  6
ByLayer
 62
  256
370
   -1
100
AcDbCircle
 10
1029
 20
179.9999999999958
 40
2.5
100
AcDbArc
 50
270
 51
0
  0
LINE
  5
E6
100
AcDbEntity
  8
0
  6
ByLayer
 62
  256
370
   -1
100
AcDbLine
 10
1031.5
 20
179.9999999999958
 11
1031.5
 21
179.9999999999958
  0
ARC
  5
E7
100
AcDbEntity
  8
0
  6
ByLayer
 62
  256
370
   -1
100
AcDbCircle
 10
1029
 20
179.9999999999958
 40
2.5
100
AcDbArc
 50
0
 51
90
  0
LINE
  5
E8
100
AcDbEntity
  8
0
  6
ByLayer
 62
  256
370
   -1
100
AcDbLine
 10
1029
 20
177.4999999999958
 11
1004
 21
177.4999999999958
  0
ARC
  5
E9
100
AcDbEntity
  8
0
  6
ByLayer
 62
  256
370
   -1
100
AcDbCircle
 10
1004
 20
179.9999999999958
 40
2.5
100
AcDbArc
 50
180
 51
270
  0
LINE
  5
EA
100
AcDbEntity
  8
0
  6
ByLayer
 62
  256
370
   -1
100
AcDbLine
 10
1001.5
 20
179.9999999999958
 11
1001.5
 21
179.9999999999958
  0
LINE
  5
EB
100
AcDbEntity
  8
0
  6
ByLayer
 62
  256
370
   -1
100
AcDbLine
 10
1029
 20
182.4999999999958
 11
1004
 21
182.4999999999958
  0
ARC
  5
EC
100
AcDbEntity
  8
0
  6
ByLayer
 62
  256
370
   -1
100
AcDbCircle
 10
1004
 20
179.9999999999958
 40
2.5
100
AcDbArc
 50
90
 51
180
  0
ARC
  5
ED
100
AcDbEntity
  8
0
  6
ByLayer
 62
  256
370
   -1
100
AcDbCircle
 10
1004
 20
189.9999999999958
 40
2.5
100
AcDbArc
 50
180
 51
270
  0
LINE
  5
EE
100
AcDbEntity
  8
0
  6
ByLayer
 62
  256
370
   -1
100
AcDbLine
 10
1001.5
 20
189.9999999999958
 11
1001.5
 21
189.9999999999994
  0
ARC
  5
EF
100
AcDbEntity
  8
0
  6
ByLayer
 62
  256
370
   -1
100
AcDbCircle
 10
1004
 20
189.9999999999994
 40
2.5
100
AcDbArc
 50
90
 51
180
  0
LINE
  5
F0
100
AcDbEntity
  8
0
  6
ByLayer
 62
  256
370
   -1
100
AcDbLine
 10
1029
 20
187.4999999999958
 11
1004
 21
187.4999999999958
  0
ARC
  5
F1
100
AcDbEntity
  8
0
  6
ByLayer
 62
  256
370
   -1
100
AcDbCircle
 10
1029
 20
189.9999999999958
 40
2.5
100
AcDbArc
 50
270
 51
0
  0
LINE
  5
F2
100
AcDbEntity
  8
0
  6
ByLayer
 62
  256
370
   -1
100
AcDbLine
 10
1031.5
 20
189.9999999999958
 11
1031.5
 21
189.9999999999994
  0
LINE
  5
F3
100
AcDbEntity
  8
0
  6
ByLayer
 62
  256
370
   -1
100
AcDbLine
 10
1029
 20
192.4999999999994
 11
1004
 21
192.4999999999994
  0
ARC
  5
F4
100
AcDbEntity
  8
0
  6
ByLayer
 62
  256
370
   -1
100
AcDbCircle
 10
1029
 20
189.9999999999994
 40
2.5
100
AcDbArc
 50
0
 51
90
  0
ARC
  5
F5
100
AcDbEntity
  8
0
  6
ByLayer
 62
  256
370
   -1
100
AcDbCircle
 10
1029
 20
199.999999999997
 40
2.5
100
AcDbArc
 50
270
 51
0
  0
LINE
  5
F6
100
AcDbEntity
  8
0
  6
ByLayer
 62
  256
370
   -1
100
AcDbLine
 10
1031.5
 20
199.999999999997
 11
1031.5
 21
199.9999999999965
  0
ARC
  5
F7
100
AcDbEntity
  8
0
  6
ByLayer
 62
  256
370
   -1
100
AcDbCircle
 10
1029
 20
199.9999999999965
 40
2.5
100
AcDbArc
 50
0
 51
90
  0
LINE
  5
F8
100
AcDbEntity
  8
0
  6
ByLayer
 62
  256
370
   -1
100
AcDbLine
 10
1029
 20
202.4999999999965
 11
1004
 21
202.4999999999965
  0
ARC
  5
F9
100
AcDbEntity
  8
0
  6
ByLayer
 62
  256
370
   -1
100
AcDbCircle
 10
1004
 20
199.9999999999965
 40
2.5
100
AcDbArc
 50
90
 51
180
  0
LINE
  5
FA
100
AcDbEntity
  8
0
  6
ByLayer
 62
  256
370
   -1
100
AcDbLine
 10
1004
 20
197.499999999997
 11
1029
 21
197.499999999997
  0
LINE
  5
FB
100
AcDbEntity
  8
0
  6
ByLayer
 62
  256
370
   -1
100
AcDbLine
 10
1001.5
 20
199.999999999997
 11
1001.5
 21
199.9999999999965
  0
ARC
  5
FC
100
AcDbEntity
  8
0
  6
ByLayer
 62
  256
370
   -1
100
AcDbCircle
 10
1004
 20
199.999999999997
 40
2.5
100
AcDbArc
 50
180
 51
270
  0
ARC
  5
FD
100
AcDbEntity
  8
0
  6
ByLayer
 62
  256
370
   -1
100
AcDbCircle
 10
1026.500000000004
 20
117.4999999999994
 40
2.5
100
AcDbArc
 50
270
 51
0
  0
LINE
  5
FE
100
AcDbEntity
  8
0
  6
ByLayer
 62
  256
370
   -1
100
AcDbLine
 10
1026.500000000004
 20
114.9999999999994
 11
1026.500000000004
 21
114.9999999999994
  0
ARC
  5
FF
100
AcDbEntity
  8
0
  6
ByLayer
 62
  256
370
   -1
100
AcDbCircle
 10
1026.500000000004
 20
117.4999999999994
 40
2.5
100
AcDbArc
 50
180
 51
270
  0
LINE
  5
100
100
AcDbEntity
  8
0
  6
ByLayer
 62
  256
370
   -1
100
AcDbLine
 10
1029.000000000004
 20
117.4999999999994
 11
1029.000000000004
 21
142.5000000000002
  0
ARC
  5
101
100
AcDbEntity
  8
0
  6
ByLayer
 62
  256
370
   -1
100
AcDbCircle
 10
1026.500000000004
 20
142.5000000000002
 40
2.5
100
AcDbArc
 50
0
 51
90
  0
LINE
  5
102
100
AcDbEntity
  8
0
  6
ByLayer
 62
  256
370
   -1
100
AcDbLine
 10
1026.500000000004
 20
145.0000000000002
 11
1026.500000000004
 21
145.0000000000002
  0
LINE
  5
103
100
AcDbEntity
  8
0
  6
ByLayer
 62
  256
370
   -1
100
AcDbLine
 10
1024.000000000004
 20
117.4999999999994
 11
1024.000000000004
 21
142.5000000000002
  0
ARC
  5
104
100
AcDbEntity
  8
0
  6
ByLayer
 62
  256
370
   -1
100
AcDbCircle
 10
1026.500000000004
 20
142.5000000000002
 40
2.5
100
AcDbArc
 50
90
 51
180
  0
ARC
  5
105
100
AcDbEntity
  8
0
  6
ByLayer
 62
  256
370
   -1
100
AcDbCircle
 10
1016.500000000004
 20
142.5000000000002
 40
2.5
100
AcDbArc
 50
0
 51
90
  0
LINE
  5
106
100
AcDbEntity
  8
0
  6
ByLayer
 62
  256
370
   -1
100
AcDbLine
 10
1016.500000000004
 20
145.0000000000002
 11
1016.5
 21
145.0000000000002
  0
ARC
  5
107
100
AcDbEntity
  8
0
  6
ByLayer
 62
  256
370
   -1
100
AcDbCircle
 10
1016.5
 20
142.5000000000002
 40
2.5
100
AcDbArc
 50
90
 51
180
  0
LINE
  5
108
100
AcDbEntity
  8
0
  6
ByLayer
 62
  256
370
   -1
100
AcDbLine
 10
1019.000000000004
 20
117.4999999999994
 11
1019.000000000004
 21
142.5000000000002
  0
ARC
  5
109
100
AcDbEntity
  8
0
  6
ByLayer
 62
  256
370
   -1
100
AcDbCircle
 10
1016.500000000004
 20
117.4999999999994
 40
2.5
100
AcDbArc
 50
270
 51
0
  0
LINE
  5
10A
100
AcDbEntity
  8
0
  6
ByLayer
 62
  256
370
   -1
100
AcDbLine
 10
1016.500000000004
 20
114.9999999999994
 11
1016.5
 21
114.9999999999994
  0
LINE
  5
10B
100
AcDbEntity
  8
0
  6
ByLayer
 62
  256
370
   -1
100
AcDbLine
 10
1014
 20
117.4999999999994
 11
1014
 21
142.5000000000002
  0
ARC
  5
10C
100
AcDbEntity
  8
0
  6
ByLayer
 62
  256
370
   -1
100
AcDbCircle
 10
1016.5
 20
117.4999999999994
 40
2.5
100
AcDbArc
 50
180
 51
270
  0
ARC
  5
10D
100
AcDbEntity
  8
0
  6
ByLayer
 62
  256
370
   -1
100
AcDbCircle
 10
1006.500000000002
 20
117.4999999999994
 40
2.5
100
AcDbArc
 50
270
 51
0
  0
LINE
  5
10E
100
AcDbEntity
  8
0
  6
ByLayer
 62
  256
370
   -1
100
AcDbLine
 10
1006.500000000002
 20
114.9999999999994
 11
1006.500000000003
 21
114.9999999999994
  0
ARC
  5
10F
100
AcDbEntity
  8
0
  6
ByLayer
 62
  256
370
   -1
100
AcDbCircle
 10
1006.500000000003
 20
117.4999999999994
 40
2.5
100
AcDbArc
 50
180
 51
270
  0
LINE
  5
110
100
AcDbEntity
  8
0
  6
ByLayer
 62
  256
370
   -1
100
AcDbLine
 10
1004.000000000003
 20
117.4999999999994
 11
1004.000000000003
 21
142.5000000000002
  0
ARC
  5
111
100
AcDbEntity
  8
0
  6
ByLayer
 62
  256
370
   -1
100
AcDbCircle
 10
1006.500000000003
 20
142.5000000000002
 40
2.5
100
AcDbArc
 50
90
 51
180
  0
LINE
  5
112
100
AcDbEntity
  8
0
  6
ByLayer
 62
  256
370
   -1
100
AcDbLine
 10
1009.000000000002
 20
142.5000000000002
 11
1009.000000000002
 21
117.4999999999994
  0
LINE
  5
113
100
AcDbEntity
  8
0
  6
ByLayer
 62
  256
370
   -1
100
AcDbLine
 10
1006.500000000002
 20
145.0000000000002
 11
1006.500000000003
 21
145.0000000000002
  0
ARC
  5
114
100
AcDbEntity
  8
0
  6
ByLayer
 62
  256
370
   -1
100
AcDbCircle
 10
1006.500000000002
 20
142.5000000000002
 40
2.5
100
AcDbArc
 50
0
 51
90
  0
CIRCLE
  5
115
100
AcDbEntity
  8
0
  6
ByLayer
 62
  256
370
   -1
100
AcDbCircle
 10
946
 20
250
 40
18
  0
LINE
  5
116
100
AcDbEntity
  8
0
  6
ByLayer
 62
  256
370
   -1
100
AcDbLine
 10
845.1950194284726
 20
154.8049805060438
 11
882.3046159904588
 21
117.695383476292
  0
LINE
  5
117
100
AcDbEntity
  8
0
  6
ByLayer
 62
  256
370
   -1
100
AcDbLine
 10
1114.804980662199
 20
154.8049805967154
 11
1077.695384054877
 21
117.6953835216276
  0
LINE
  5
118
100
AcDbEntity
  8
0
  6
ByLayer
 62
  256
370
   -1
100
AcDbLine
 10
1117.999999999957
 20
189.9999985257981
 11
1117.999999999923
 21
216.1322225306982
  0
LINE
  5
119
100
AcDbEntity
  8
0
  6
ByLayer
 62
  256
370
   -1
100
AcDbLine
 10
842.0000002033893
 20
216.1322224323121
 11
842.000001524847
 21
189.9999983750396
  0
LINE
  5
11A
100
AcDbEntity
  8
0
  6
ByLayer
 62
  256
370
   -1
100
AcDbLine
 10
1140
 20
338
 11
1140
 21
309.9999999997279
  0
LINE
  5
11B
100
AcDbEntity
  8
0
  6
ByLayer
 62
  256
370
   -1
100
AcDbLine
 10
820
 20
338
 11
820
 21
310.0000000001381
  0
DIMENSION
  5
11C
100
AcDbEntity
  8
0
  6
ByLayer
 62
  256
370
   -1
100
AcDbDimension
  2
*D1
 10
958.7279220613578
 20
262.7279220613578
 30
0
 11
944.6741747852752
 21
251.3258252147248
 31
0
 70
   35
 71
    5
  3
Standard
 53
0
210
0
220
0
230
1
100
AcDbDiametricDimension
 15
933.2720779386422
 25
237.2720779386422
 35
0
 40
0
  0
LINE
  5
11D
100
AcDbEntity
  8
0
  6
ByLayer
 62
  256
370
   -1
100
AcDbLine
 10
1149.499999999974
 20
260
 11
1130.000000000007
 21
260.0000000000055
  0
LINE
  5
11E
100
AcDbEntity
  8
noname
  6
ByLayer
 62
  256
370
   -1
100
AcDbLine
 10
1149.999999999973
 20
129
 11
1129.999999999991
 21
129
  0
LINE
  5
11F
100
AcDbEntity
  8
0
  6
ByLayer
 62
  256
370
   -1
100
AcDbLine
 10
1185.999999999974
 20
180
 11
1149.999999999973
 21
180
  0
LINE
  5
120
100
AcDbEntity
  8
0
  6
ByLayer
 62
  256
370
   -1
100
AcDbLine
 10
1185.999999999974
 20
149.0000000000002
 11
1149.999999999973
 21
149
  0
LINE
  5
121
100
AcDbEntity
  8
noname
  6
ByLayer
 62
  256
370
   -1
100
AcDbLine
 10
1185.999999999974
 20
200
 11
1130
 21
200
  0
LINE
  5
122
100
AcDbEntity
  8
noname
  6
ByLayer
 62
  256
370
   -1
100
AcDbLine
 10
1185.999999999974
 20
220.0000000000018
 11
1130.000000000003
 21
220.0000000000018
  0
LINE
  5
123
100
AcDbEntity
  8
noname
  6
ByLayer
 62
  256
370
   -1
100
AcDbLine
 10
1185.999999999974
 20
240
 11
1130.000000000005
 21
240
  0
LINE
  5
124
100
AcDbEntity
  8
0
  6
ByLayer
 62
  256
370
   -1
100
AcDbLine
 10
1149.999999999973
 20
180
 11
1149.999999999973
 21
129
  0
ARC
  5
125
100
AcDbEntity
  8
0
  6
ByLayer
 62
  256
370
   -1
100
AcDbCircle
 10
1183.999999999974
 20
268.0000000000055
 40
2
100
AcDbArc
 50
0
 51
90
  0
LINE
  5
126
100
AcDbEntity
  8
0
  6
ByLayer
 62
  256
370
   -1
100
AcDbLine
 10
1183.999999999974
 20
270.0000000000055
 11
1132.000000000008
 21
270.0000000000055
  0
ARC
  5
127
100
AcDbEntity
  8
0
  6
ByLayer
 62
  256
370
   -1
100
AcDbCircle
 10
1132.000000000008
 20
268.0000000000055
 40
2
100
AcDbArc
 50
89.9999999999998
 51
179.9999999999935
  0
ARC
  5
128
100
AcDbEntity
  8
0
  6
ByLayer
 62
  256
370
   -1
100
AcDbCircle
 10
1183.999999999974
 20
120.9999999999998
 40
2
100
AcDbArc
 50
270.0000000000024
 51
0
  0
LINE
  5
129
100
AcDbEntity
  8
0
  6
ByLayer
 62
  256
370
   -1
100
AcDbLine
 10
1130.000000000008
 20
268.0000000000055
 11
1129.99999999999
 21
121
  0
ARC
  5
12A
100
AcDbEntity
  8
0
  6
ByLayer
 62
  256
370
   -1
100
AcDbCircle
 10
1131.99999999999
 20
121
 40
2
100
AcDbArc
 50
179.9999999999935
 51
269.9999999999974
  0
LINE
  5
12B
100
AcDbEntity
  8
0
  6
ByLayer
 62
  256
370
   -1
100
AcDbLine
 10
1183.999999999974
 20
118.9999999999998
 11
1169.049875621098
 21
118.9999999999991
  0
ARC
  5
12C
100
AcDbEntity
  8
0
  6
ByLayer
 62
  256
370
   -1
100
AcDbCircle
 10
1169.049875621098
 20
120.9999999999991
 40
2
100
AcDbArc
 50
217.0976018013095
 51
270.0000000000024
  0
ARC
  5
12D
100
AcDbEntity
  8
0
  6
ByLayer
 62
  256
370
   -1
100
AcDbCircle
 10
1158.999999999973
 20
113.3999999999992
 40
10.6
100
AcDbArc
 50
37.09760180130853
 51
142.9023981986577
  0
LINE
  5
12E
100
AcDbEntity
  8
0
  6
ByLayer
 62
  256
370
   -1
100
AcDbLine
 10
1148.950124378861
 20
118.9999999999991
 11
1131.99999999999
 21
119
  0
ARC
  5
12F
100
AcDbEntity
  8
0
  6
ByLayer
 62
  256
370
   -1
100
AcDbCircle
 10
1148.950124378861
 20
120.9999999999991
 40
2
100
AcDbArc
 50
269.9999999999974
 51
322.9023981986572
  0
LINE
  5
130
100
AcDbEntity
  8
0
  6
ByLayer
 62
  256
370
   -1
100
AcDbLine
 10
1185.999999999974
 20
180
 11
1185.999999999974
 21
268.0000000000055
  0
LINE
  5
131
100
AcDbEntity
  8
0
  6
ByLayer
 62
  256
370
   -1
100
AcDbLine
 10
1185.999999999974
 20
120.9999999999998
 11
1185.999999999974
 21
149.0000000000002
  0
DIMENSION
  5
132
100
AcDbEntity
  8
0
  6
ByLayer
 62
  256
370
   -1
100
AcDbDimension
  2
*D2
 10
1185.999999999974
 20
360
 30
0
 11
1002.999999999987
 21
361.875
 31
0
 70
   32
 71
    5
  3
Standard
 53
0
210
0
220
0
230
1
100
AcDbAlignedDimension
 13
820
 23
295.5
 33
0
 14
1185.999999999974
 24
267.9999844089731
 34
0
100
AcDbRotatedDimension
  0
DIMENSION
  5
133
100
AcDbEntity
  8
0
  6
ByLayer
 62
  256
370
   -1
100
AcDbDimension
  2
*D3
 10
1210
 20
79.99999999999993
 30
0
 11
1208.125
 21
214.9999999999999
 31
0
 70
   33
 71
    5
  3
Standard
 53
0
210
0
220
0
230
1
100
AcDbAlignedDimension
 13
980
 23
350
 33
0
 14
980
 24
80
 34
0
  0
ENDSEC
  0
SECTION
  2
OBJECTS
  0
DICTIONARY
  5
C
330
0
100
AcDbDictionary
281
    1
  3
ACAD_GROUP
350
D
  0
DICTIONARY
  5
D
330
C
100
AcDbDictionary
281
    1
  0
ENDSEC
  0
EOF
