<svg xmlns="http://www.w3.org/2000/svg" viewBox="0 0 1920 1080"><style><![CDATA[.B{stroke-linejoin:round}.C{stroke-width:.756}.D{stroke-width:1.89}.E{stroke-width:3}.F{stroke-opacity:.96}]]></style><g fill="none" stroke="#0f0"><g class="B"><g stroke-width=".189"><path d="M510.03 380.76l-.842.07"/><path d="M509.2 380.82l1.648 1.054m-1.648-1.054l.788 1.215"/><path d="M508.33 381.06c.55.325 1.08 1.204.795 1.318m-.005.002l1.65 1.053m-1.65-1.053l.78 1.477m-1.75-1.037c.585.348 1.093 1.38.763 1.548m-9.793 5.452l-1.72 1.007m1.72-1.007l-2.313-.7m-.007 0c.198.57-.965 1.3-1.745 1.08"/><path d="M496.8 389.12l-1.745 1.08m.005-.001l.567 1.674m1.173-2.753l-2.34-.547m0 .007l.595 1.628m-.595-1.628l-1.757 1.158m-.003.002c.784.157 1.16 1.22.564 1.597m-.564-1.597c.188.532-.998 1.35-1.78 1.228"/><path d="M492.7 389.74l-1.78 1.228m1.2-2.788c.195.518-.995 1.287-1.786 1.153m-.004-.003l.593 1.63m-.593-1.63l-1.767 1.3m.007.01l2.36.33m-1.76 1.37c.585-.46 2.138-.262 2.33.296m-2.93-1.996c.202.57-.952 1.53-1.73 1.443"/><path d="M488.57 390.64l-1.73 1.443m1.1-3.103c.207.55-.955 1.46-1.743 1.366m.003.004c.2.576-.92 1.575-1.697 1.498"/><path d="M486.2 390.35l-1.697 1.498m-.653-1.748c.22.58-.883 1.6-1.653 1.544m.003.006l.677 1.816m-.677-1.816c-.526.552-2.044.445-2.277-.16m-2.223-.12c-.484.566-1.933.5-2.174-.085m-.026-.005l-1.38 1.702m1.38-1.702l-2.105-.048m.005.008l-2.023-.01m3.423-1.63c-.467.542-1.868.54-2.1-.004m0 .004l-1.323 1.62m1.323-1.62l-2.013.044m.013.006c.23.525-.597 1.594-1.24 1.603"/><path d="M470.7 389.65c-.414.534-1.69.596-1.913.093"/><path d="M470.7 389.65l-1.913.093m3.243-1.643c-.446.514-1.778.586-1.997.108"/><path d="m470.04 388.22-1.255 1.526"/><path d="M470.04 388.22l-1.9.167m-.01-.007l.636 1.36m-.626-1.36l-1.166 1.5"/><path d="M466.36 388.62c-.548 3.085 5.162-.804 1.27 2.694m.5-2.934l-1.787.24m3.057-1.7c-.42.484-1.617.597-1.795.17m.005 0l-1.254 1.523"/><path d="M467.6 387.1l-1.75.32m.01 0l.497 1.202m-1.727.398c.576-.133.962.65.58 1.176m.65-2.776c-.4.534-1.53.853-1.68.478m1.68-.478l-1.68.478m3.02-1.998c-.446.512-1.584.778-1.707.398m.007-.018c-.437.54-1.523.906-1.63.55m1.63-.55l-1.63.55m1.38-1.63c-.462.54-1.5.952-1.573.618m.003.012l-1.34 1.705m1.34-1.705c-.488.255-.524-.368-.053-.934m.073-.856c-.444.3-.303-.23.2-.78m-.01 0l-1.262.9m1.272-.9l.343-.698m.017-.002l.47-.613m.83-.207c-.436.275-.17-.156.397-.646"/><path d="M465.96 381.1l-1.234.858m1.234-.858l.52-.55"/><path d="M466.48 380.54c-.88-.212 17.424-9.785 25.132-6.915 5.615.32 11.185 1.897 16.06 4.72"/><path d="M467.74 379.76c-.42.26-.047-.058.56-.476m39.37-.944l-.742-.36"/><path d="m506.93 377.98 1.905 1.103"/><path d="M506.93 377.98l1.142.82m-.002 0l1.035.926"/><path d="M506.14 377.8c.643.336 1.4.936 1.123.9m.007 0l1.84 1.032"/><path d="m507.27 378.7 1.016 1.012"/><path d="M508.28 379.7c1.4-.767 3.186 3.398 0 0zm-1-1l-.832.064m-.008-.004l1.848.948"/><path d="M506.44 378.76l1 1.098m0 .002c.282-.05 1.45.594 1.752.966"/><path d="M507.44 379.86c.584.322 1.18 1.126.892 1.206"/><path d="M507.44 379.86l.892 1.206M505.6 379c.616.3 1.277 1.08.992 1.184m-.012-.014l1.747.894m-1.747-.894l.787 1.245m.003.005c.32-.117 1.5.528 1.755.967m-1.755-.967c.585.322 1.106 1.255.782 1.4"/><path d="M507.37 381.42l.782 1.4m-2.632-2.28c.617.292 1.135 1.174.777 1.324"/><path d="M506.3 381.86l1.855.95m-1.855-.95l.768 1.47m-.008 0c.362-.173 1.596.513 1.85 1.03m-1.85-1.03c.617.343 1.113 1.415.744 1.608"/><path d="M507.06 383.33l.744 1.608M505.1 382.4c.65.308 1.15 1.328.752 1.53"/><path d="M505.87 383.94c.647.335 1.13 1.44.726 1.657m-.726-1.657l.726 1.657"/><path d="M506.6 385.6l1.922 1.087M506.6 385.6c.23.592-.65 1.074-1.32.722m-.7-1.702c.675.324 1.146 1.453.706 1.694m-.006.006c.222.6-.72 1.127-1.415.8m-.005-.02c.215.605-.787 1.172-1.503.85"/><path d="M503.86 387.1l-1.503.85m.003.01l.625 1.818m-.625-1.818l-1.584.908m.924-2.648c.222.578-.82 1.182-1.562.906m-.008.004l.643 1.736m-.643-1.736l-1.632.97"/><path d="M498.5 388.1c5.947-1.028-1.124 4.356 0 0zm1.63-.97l-2.28-.687m0-.003l.65 1.656m-.65-1.656l-1.667 1.037"/><path d="M496.18 387.48c5.94-1.332-.968 4.3 0 0zm1.67-1.04l-2.313-.545m-.007.005l.646 1.582m-.646-1.582l-1.7 1.108m.01-.008c.778.158 1.2 1.207.617 1.574M493.84 387c.206.525-.945 1.3-1.726 1.177"/><path d="M493.84 387l-1.726 1.177m1.086-2.677c.212.504-.92 1.293-1.696 1.183m-.004-.003l.605 1.506m-.595-1.506l-1.792 1.083m.002-.003c.8.14 1.206 1.192.6 1.576m-.6-1.576c.204.525-.98 1.343-1.776 1.226"/><path d="M489.72 387.76l-1.776 1.226m1.156-2.746c.2.505-.98 1.275-1.783 1.155m-.017.005l.633 1.586m-.633-1.586l-1.753 1.3m.013 0c.795.1 1.224 1.207.643 1.662m-.643-1.662c.214.554-.926 1.5-1.7 1.42"/><path d="M485.56 388.7l-1.7 1.42m1.05-3.02c.217.53-.93 1.426-1.72 1.345m.01.005l.66 1.662m-.67-1.662l-1.668 1.466"/><path d="M481.52 389.9c.776.065 1.227 1.225.676 1.74m-.676-1.74c.225.58-.842 1.633-1.6 1.58"/><path d="M481.52 389.9l-1.6 1.58m.92-3.22c.225.55-.854 1.55-1.618 1.502m.008-.002l.692 1.728m-.692-1.728l-1.54 1.604"/><path d="M477.7 391.37c5.4-2.46-.715 5.15 0 0zm1.53-1.6l-2.24-.1"/><path d="M477 389.66c.233.568-.75 1.648-1.474 1.62"/><path d="M477 389.66c-.49.54-1.943.505-2.178-.053"/><path d="M477 389.66l-2.178-.053m3.718-1.467c-.52.5-2.016.464-2.245-.068"/><path d="M476.3 388.07l-1.5 1.543m1.5-1.543l-2.174-.01m-.006 0c.228.517-.718 1.55-1.418 1.548"/><path d="M474.12 388.06c-.473.516-1.867.55-2.092.05"/><path d="M474.12 388.06l-2.092.05m3.602-1.5c-.5.5-1.945.52-2.166.046"/><path d="m473.46 386.64-1.428 1.472"/><path d="M473.46 386.64l-2.078.113m-.002-.003c.217.453-.68 1.43-1.347 1.467"/><path d="M471.38 386.75c-.45.49-1.766.6-1.976.182"/><path d="M471.38 386.75l-1.976.182m3.416-1.582c-.478.467-1.85.6-2.058.186"/><path d="m470.76 385.54-1.352 1.396"/><path d="M470.76 385.54l-1.798.102m-.002-.002c.15.43-.75 1.407-1.35 1.464"/><path d="M468.96 385.64c-.45.488-1.625.653-1.763.248"/><path d="M468.96 385.64l-1.763.248m3.203-1.648c-.48.465-1.66.585-1.77.18"/><path d="m468.63 384.42-1.432 1.465"/><path d="M468.63 384.42l-1.723.323m-.007-.003c.097.38-.847 1.407-1.416 1.54"/><path d="M466.9 384.74c-.472.513-1.578.827-1.66.47"/><path d="M466.9 384.74l-1.66.47m3.18-1.9c-.503.485-1.62.748-1.677.394"/><path d="m466.74 383.68-1.49 1.532"/><path d="M466.74 383.68l-1.604.537m-.006.003c.038.332-.935 1.407-1.46 1.613"/><path d="M465.13 384.22c-.486.538-1.494 1-1.512.68"/><path d="M465.13 384.22l-1.512.68m3.082-2.2c-.52.504-1.55.903-1.545.598"/><path d="m465.15 383.3-1.527 1.594"/><path d="M465.15 383.3l-1.447.735m-.003.005c.778 1.744-4.462 2.698 0 0zm1.45-.74l.144-.83m.006 0c-.53.522-1.45 1.044-1.38.784m1.38-.784c-.46.26-.28-.23.27-.74"/><path d="M465.3 382.47l.27-.74m1.2.1c-.493.218-.36-.308.202-.788m.008-.012l-1.4.702m1.4-.702l.323-.687"/><path d="M467.3 380.35c-.578.463-1.47.958-1.337.743m1.337-.743c-.446.248-.15-.14.443-.583"/><path d="M467.3 380.35l.443-.583m.987-.047c-.477.2-.232-.208.367-.625"/><path d="M469.1 379.1l-1.354.668m1.354-.668l.478-.512"/><path d="M469.57 378.58c-4.023 3.107-.856.032 0 0zm0 0a36.7 36.7 0 0 1 1.862-1.03"/><path d="M470.93 377.98c-.453.2-.118-.088.503-.432"/><path d="M471.44 377.55l.752-.38m31.408-.83l1.314.667m.006-.007c.255.088 1.593.737 2.007.973"/><path d="M504.92 377c.67.324 1.483.848 1.22.786"/><path d="M504.92 377l1.22.786m-3.3-1.616c.697.28 1.56.775 1.294.742"/><path d="M504.12 376.9l2.02.886"/><path d="M504.12 376.9l1.204.866m.006.014c1.355-.627 3.757 2.994 0 0z"/><path d="M504.12 376.9l-.818.06m-.002.01l2.022.807"/><path d="M503.3 376.97l1.2.948m.01.002c.278-.047 1.57.516 1.94.844"/><path d="M504.5 377.92c.646.28 1.375.995 1.093 1.07"/><path d="M504.5 377.92l1.093 1.07m-3.113-1.8c.672.246 1.457.933 1.178 1.03"/><path d="M503.66 378.2l1.93.777"/><path d="M503.66 378.2l1.086 1.153m-.006.007c.282-.125 1.506.413 1.837.808"/><path d="M504.74 379.36c.612.27 1.128 1.055.774 1.178"/><path d="M504.74 379.36l.774 1.178m-2.684-1.898c.64.24 1.145.983.758 1.115m-.008.005l1.934.78m-1.934-.78l.766 1.256m.004.004c.4-.158 1.686.408 1.945.85m-1.945-.85c.648.283 1.158 1.212.764 1.393"/><path d="M504.35 381.02l.764 1.393m-2.784-2.143c.674.25 1.178 1.13.755 1.323m-.005.007l2.032.816m-2.032-.816l.75 1.453m0-.003c.427-.212 1.783.382 2.034.892m-2.034-.892c.678.297 1.168 1.35.735 1.577m-.735-1.577l.735 1.577m-2.845-2.357c.703.258 1.192 1.26.734 1.5m.006 0l2.1.85m-2.1-.85l.715 1.614"/><path d="M503.17 385.4c.465-.254 1.866.366 2.1.93m-2.1-.93c.7.3 1.158 1.457.686 1.72m-.686-1.72c.23.573-.76 1.13-1.482.836M501 384.58c.726.268 1.2 1.36.695 1.64"/><path d="M501 384.58l.695 1.64m-.695-1.64l-1.54.9"/><path d="M499.46 385.47c5.785-1.023-.956 4.2 0 0zm1.54-.9l-2.234-.672m-.006.002l.694 1.563m-.694-1.563l-1.585.952"/><path d="M497.18 384.86c5.796-1.303-.814 4.13 0 0zm1.58-.96l-2.27-.54m.01.01l.686 1.493m-.696-1.493l-1.618 1.018m-.002.012c.768.158 1.2 1.164.662 1.508m-.662-1.508c.22.503-.887 1.24-1.662 1.104"/><path d="M494.87 384.4l-1.662 1.104m.992-2.534c.225.476-.866 1.2-1.637 1.088m-.003-.008l.65 1.443m-.65-1.443l-1.667 1.178m.007.002c.772.088 1.186 1.054.62 1.448m-.62-1.448c.207.483-1 1.16-1.797 1.016"/><path d="M490.9 385.23l-1.797 1.016m1.167-2.406c.2.46-1 1.097-1.8.954m-.01.006l.638 1.446m-.638-1.446l-1.788 1.087m-.002-.007c.8.12 1.237 1.13.643 1.514m-.643-1.514c.214.505-.96 1.316-1.76 1.217"/><path d="M486.67 385.88l-1.76 1.217m1.1-2.647c.217.478-.96 1.244-1.766 1.15m-.004 0l.655 1.502m-.655-1.502l-1.73 1.273m.01-.003c.795.076 1.238 1.126.664 1.574m-.664-1.574c.22.525-.898 1.45-1.68 1.4"/><path d="M482.52 386.87l-1.68 1.4m1.02-2.87c.22.493-.903 1.37-1.687 1.317m-.003-.017l.672 1.553m-.672-1.553l-1.63 1.426"/><path d="M478.54 388.14c5.572-2.43-.615 4.7 0 0zm1.63-1.44l-2.304-.093m.004.013c.225.506-.822 1.474-1.57 1.45"/><path d="M477.87 386.62c-.523.484-2.018.467-2.242-.025"/><path d="M477.87 386.62l-2.242-.025m3.872-1.335c-.545.45-2.08.418-2.3-.05"/><path d="m477.2 385.21-1.577 1.378"/><path d="M477.2 385.2l-2.234.03m.004.01c.22.45-.787 1.38-1.5 1.395"/><path d="M474.97 385.24c-.503.465-1.938.537-2.153.108"/><path d="M474.97 385.24l-2.153.108m3.733-1.418c-.527.437-2.008.498-2.222.092"/><path d="m474.33 384.02-1.511 1.327"/><path d="M474.33 384.02l-2.135.18m.005 0c.208.382-.748 1.27-1.434 1.333"/><path d="M472.2 384.2c-.478.444-1.674.47-1.794.04"/><path d="M472.2 384.2l-1.794.04m3.294-1.3c-.503.422-1.695.4-1.788-.017"/><path d="m471.92 382.92-1.516 1.322"/><path d="M471.92 382.92l-1.768.115m-.002.005c.084.402-.927 1.326-1.517 1.386"/><path d="M470.15 383.04c-.506.462-1.66.63-1.732.253"/><path d="M470.15 383.04l-1.732.253m3.322-1.563c-.53.434-1.685.56-1.732.2"/><path d="m470 381.92-1.59 1.365"/><path d="M470 381.92l-1.687.323m.007.007c.032.347-1.02 1.305-1.58 1.436"/><path d="M468.32 382.25c-.527.48-1.61.785-1.624.46"/><path d="M468.32 382.25l-1.624.46m3.274-1.8c-.55.445-1.64.704-1.634.4"/><path d="m468.34 381.3-1.644 1.406"/><path d="M468.34 381.3l-1.565.52m-.005 0c.902 1.9-4.837 2.054 0 0zm1.57-.52l.137-.843m.003.003c-.567.455-1.567.84-1.5.576m1.5-.576c-.5.192-.33-.3.253-.737"/><path d="M468.48 380.46l.253-.737m1.317.277c-.525.15-.4-.38.187-.793m.003-.007l-1.5.506m1.5-.506l.295-.675"/><path d="M470.53 378.54c-.6.394-1.56.764-1.437.556m1.437-.556c-.48.185-.212-.185.4-.555"/><path d="M470.53 378.54l.4-.555m1.1.115c-.504.147-.286-.257.326-.607"/><path d="M472.37 377.5l-1.437.494m1.437-.494l.423-.477"/><path d="M472.8 377c-.62.324-1.525.683-1.357.54m1.357-.54c-.452.18.046-.113.748-.44"/><path d="M472.8 377l.748-.44m.672.02c-.477.146.02-.18.747-.5"/><path d="M474.97 376.08c-.477.163.03-.074.76-.356m-.76.356a33.75 33.75 0 0 1 2.257-.791M494.72 374c.25.012 1.763.265 2.27.38m.01.02c.252.032 1.752.374 2.25.513"/><path d="M497 374.4l2.25.513"/><path d="M499.24 374.9a48.09 48.09 0 0 1 2.211.65"/><path d="M499.24 374.9l2.21.65"/><path d="M498.46 374.88c.26.008 1.732.395 2.2.58m0 0l.78.095"/><path d="M500.67 375.46l2.16.7"/><path d="m502.83 376.17-1.378-0.615"/><path d="M502.83 376.17c2.916.796-3.494-1.3-.62-.37m-1.54-.34l1.358.7"/><path d="M502.03 376.15c1.314-.476 4.232 2.467 0 0zm-3.57-1.27c.736.193 1.677.614 1.4.63"/><path d="M499.87 375.5l2.156.64"/><path d="M499.87 375.5l1.342.768"/><path d="M501.22 376.28c.27-.043 1.665.418 2.09.692"/><path d="M501.22 376.28c.697.23 1.54.832 1.264.902"/><path d="M501.22 376.28l1.264.902m-3.414-1.482c.716.192 1.602.757 1.33.848"/><path d="M500.4 376.55l2.082.63"/><path d="M500.4 376.55l1.255.984m-.005-.004c.276-.118 1.612.333 2.005.677"/><path d="M501.65 377.53c.668.226 1.45.967 1.173 1.112"/><path d="M501.65 377.53l1.173 1.112m-3.243-1.682c.7.192 1.524.9 1.25 1.063"/><path d="M500.84 378.02l2 .625m-2-.625l.74 1.058m0 .002c.417-.144 1.756.3 2 .682m-2-.682c.67.227 1.17 1.022.752 1.192"/><path d="M501.58 379.08l.752 1.192M499.5 378.5c.7.193 1.18.95.735 1.133"/><path d="M500.24 379.63l2.1.64m-2.1-.64l.743 1.26"/><path d="M500.98 380.9c.45-.207 1.85.262 2.1.703m-2.1-.703c.7.234 1.195 1.155.742 1.38"/><path d="M500.98 380.9l.742 1.38m-2.902-1.98c.72.197 1.206 1.074.73 1.316m0 .004l2.17.655m-2.17-.655l.727 1.43m.003-.01c.48-.258 1.932.227 2.177.727"/><path d="M500.28 383.04c5.584-.97-.766 3.903 0 0zm-.73-1.42l-1.5.828m0-.008c5.617-1.228-.638 3.846 0 0zm.77-2.14c.243.44-.747.96-1.485.78m.005 0l.715 1.363m-.715-1.363l-1.545.9m.005-.01c.753.158 1.218 1.1.697 1.4m-.697-1.4c.232.467-.832 1.127-1.596 1"/><path d="M495.8 381.97l-1.596 1m.896-2.3c.233.434-.82 1.07-1.578.954m-.002-.004l.682 1.34m-.682-1.34l-1.615 1.06m-.005 0c.766.093 1.206 1.004.66 1.367m-.66-1.367c.22.456-.874 1.23-1.64 1.16"/><path d="M491.9 382.68l-1.64 1.16m.97-2.44c.222.428-.857 1.184-1.62 1.133m.01-.003l.644 1.313m-.644-1.313l-1.804.896m-.016.004c.816.14 1.247 1.053.647 1.37m-.647-1.37c.216.457-.978 1.14-1.8 1.024"/><path d="M487.8 383.43l-1.8 1.024m1.15-2.314c.218.43-.978 1.073-1.793.965m.003-.005l.655 1.348m-.655-1.348l-1.77 1.086m.01.014c.808.087 1.248 1.028.66 1.4m-.66-1.4c.22.47-.937 1.273-1.735 1.204"/><path d="M483.6 384.2l-1.735 1.204m1.075-2.524c.22.438-.94 1.198-1.738 1.14m-.002-.02l.662 1.378M481.2 384l-1.693 1.25"/><path d="M479.5 385.26c5.684-2.37-.45 4.22 0 0zm1.7-1.26l-2.353-.086m-.007.016c.22.445-.874 1.302-1.64 1.285"/><path d="M478.84 383.93c-.547.428-2.077.43-2.295.003"/><path d="M478.84 383.93l-2.295.003m3.995-1.193c-.565.395-2.13.373-2.348-.033"/><path d="M478.2 382.7l-1.642 1.22"/><path d="M478.2 382.7l-2.283.065m-.017.015c.214.385-.84 1.217-1.58 1.248"/><path d="M475.9 382.78c-.527.416-1.998.524-2.206.162"/><path d="M475.9 382.78l-2.206.162m3.856-1.342c-.547.388-2.06.478-2.27.135"/><path d="M475.28 381.75l-1.578 1.2m1.578-1.2l-1.78-.07m0 0c.067.42-1 1.25-1.586 1.243"/><path d="M473.5 381.68c-.53.414-1.705.452-1.764.057"/><path d="M473.5 381.68l-1.764.057m3.414-1.217c-.55.386-1.72.4-1.757.004"/><path d="M473.4 380.52l-1.654 1.21"/><path d="M473.4 380.52l-1.73.13m-.01 0c.025.36-1.08 1.207-1.656 1.27"/><path d="M471.66 380.65c-.552.423-1.678.595-1.69.258"/><path d="M471.66 380.65l-1.7.258m3.4-1.428c-.57.4-1.695.522-1.686.2"/><path d="m471.69 379.68-1.716 1.228"/><path d="M471.7 379.68l-1.638.324m-.012-.004c.986 2.055-5.03 1.477 0 0zm1.65-.32l.127-.854m-.007.004c-.588.393-1.64.65-1.578.385m1.578-.385c-.526.128-.374-.36.228-.732"/><path d="M471.82 378.83l.228-.732m1.402.462c-.545.088-.433-.442.168-.795"/><path d="M473.62 377.77l-1.575.328m1.575-.328l.258-.664"/><path d="M473.88 377.1c-.6.33-1.616.587-1.507.385m1.507-.385c-.502.128-.27-.225.347-.53"/><path d="M473.88 377.1l.347-.53m1.213.26c-.523.092-.337-.302.278-.6"/><path d="M475.72 376.24l-1.5.335m1.5-.335l.746-.537"/><path d="M476.47 375.7c-.748.3-1.747.545-1.498.38m1.498-.38c-.5.127.007-.146.76-.4"/><path d="M476.47 375.7l.76-.4m.8.13c-.52.1-.015-.215.757-.458"/><path d="M478.78 374.97l-1.558.32m1.558-.32l.763-.33"/><path d="M479.55 374.64c-5.334 1.762-.853-.03 0 0zm0 0l.767-.194m.843-.046c-.536.085-.028-.08.763-.25m-.003-.01l2.407-.356m-.757.176c.252-.057 1.878-.244 2.44-.28m-.01-.01a54.25 54.25 0 0 1 2.45-.128"/><path d="M486 373.67l2.45-.128m.01.008l.73-.02m-.73.02l2.445.027m-3.185.123c.247-.047 1.887-.08 2.46-.05"/><path d="M490.18 373.64l.724-.065m-.724.065l2.265.124"/><path d="M492.45 373.76c-.514-.063-.023-.076.736-.02m-.736.02c.245-.007 1.762.16 2.275.248"/><path d="M492.45 373.76l2.275.248m-3.025-.108c.25-.047 1.757.087 2.262.2m-.002 0l.76-.094m-.76.094l2.26.324"/><path d="M496.22 374.43c-.5-.14.014-.165.77-.038m-.77.038c.257-.013 1.752.287 2.242.45"/><path d="M496.22 374.43l2.242.45"/><path d="M495.44 374.6c.26-.057 1.748.206 2.232.394m-.002.006c.263-.038 1.73.307 2.2.517"/><path d="M497.67 375c.733.172 1.663.645 1.395.71"/><path d="M497.67 375l1.395.7m-3.625-1.1c.744.13 1.702.56 1.437.643"/><path d="M496.88 375.24l2.2.46"/><path d="M496.88 375.24l1.384.788m-.004.002c.27-.1 1.692.237 2.135.52"/><path d="M498.26 376.03c.712.173 1.592.792 1.32.928"/><path d="M498.26 376.03l1.32.928m-3.48-1.338c.725.137 1.643.715 1.377.867"/><path d="M497.46 376.48l2.12.472"/><path d="M497.46 376.48l1.32 1.007m0 .013c.267-.178 1.635.174 2.052.528"/><path d="M498.78 377.5c.684.176 1.164.847.72 1.006"/><path d="M498.78 377.5l.72 1.006m-2.82-1.446c.702.143 1.17.782.702.958"/><path d="M497.38 378.02l2.124.477m-2.124-.477l.717 1.08m.003 0c.47-.2 1.897.152 2.142.53m-2.142-.53c.714.177 1.2.976.727 1.2"/><path d="M498.1 379.1l.727 1.2m-2.927-1.62c.728.14 1.2.903.7 1.144m.02-.004c.733.158 1.2.996.715 1.256m-.715-1.256c.238.42-.782.98-1.53.842"/><path d="M496.62 379.82l-1.53.842m.8-1.982c.237.38-.777.905-1.52.785m.03.005l.7 1.2m-.7-1.2l-1.563.908m-.007-.008c.754.098 1.2.93.685 1.247m-.685-1.247c.228.416-.836 1.098-1.596 1.023"/><path d="M492.83 380.37l-1.596 1.023m.916-2.173c.228.384-.827 1.034-1.582.976m-.008.004l.67 1.198m-.67-1.198l-1.6 1.095m0 .005c.757.034 1.2.858.65 1.236m-.65-1.236c.217.412-.987.974-1.806.843"/><path d="M488.96 381.3l-1.806.843m1.146-2.003c.218.384-.987.914-1.808.795m.008.005l.656 1.2m-.656-1.2l-1.795.9m-.005.01c.817.097 1.256.933.658 1.255m-.658-1.255c.22.418-.96 1.103-1.77 1.027"/><path d="M484.7 381.85l-1.77 1.027m1.12-2.177c.22.386-.963 1.034-1.773.973"/><path d="M482.28 381.66l.658 1.2m-.658-1.2l-1.738 1.08"/><path d="M480.54 382.74c5.755-2.275-.262 3.773 0 0zm1.74-1.08l-2.4-.08m.02 0c.218.386-.912 1.137-1.695 1.126"/><path d="M479.9 381.58c-.565.375-2.123.394-2.337.028"/><path d="M479.9 381.58l-2.337.028m4.067-1.048c-.58.342-2.168.33-2.383-.017"/><path d="m479.24 380.54-1.693 1.072"/><path d="M479.24 380.54l-2.324.096m.004.004c.2.325-.882 1.066-1.638 1.1"/><path d="M476.92 380.64c-.546.37-1.727.292-1.77-.117"/><path d="M476.92 380.64l-1.77-.117m3.45-.923c-.564.34-1.74.234-1.763-.16"/><path d="M476.85 379.45l-1.7 1.068m1.7-1.068l-1.75-.043m0-.007c.017.37-1.12 1.114-1.707 1.115"/><path d="M475.1 379.4c-.57.372-1.718.422-1.724.076"/><path d="M475.1 379.4l-1.724.076m3.474-1.076c-.583.34-1.728.358-1.717.028"/><path d="m475.13 378.42-1.757 1.066"/><path d="M475.13 378.42l-1.68.146m0-.006c1.046 2.182-5.108.978 0 0zm1.68-.14l.116-.86m.004 0c-.6.336-1.685.477-1.63.212m1.63-.212c-.543.07-.412-.414.197-.727"/><path d="M475.25 377.56l.197-.727m1.473.627c-.558.033-.462-.497.144-.795m-.004-.005l-1.62.166m1.62-.166l.216-.654"/><path d="M477.28 376c-.612.273-1.652.427-1.56.23m1.56-.23c-.52.077-.022-.3.747-.58"/><path d="M477.28 376l.747-.58m.873.48c-.538.04-.04-.37.748-.618"/><path d="M479.64 375.27l-1.614.162m1.614-.162l.755-.5"/><path d="M480.4 374.77c-.8.22-1.864.358-1.612.205m1.612-.205c-.537.068-.03-.184.76-.38"/><path d="M480.4 374.77l.76-.38m.9.3c-.552.03-.047-.25.758-.422"/><path d="M482.8 374.25l-1.655.135m1.655-.135l.76-.3"/><path d="M483.57 373.96c-5.537 1.505-.9-.352 0 0zm-.77.3l2.446-.36"/><path d="M485.26 373.9c-.562.02-.06-.126.752-.22m-.752.22c.25-.073 1.892-.2 2.462-.206"/><path d="M485.26 373.9l2.462-.206m-3.222.546c.252-.114 1.898-.305 2.47-.286"/><path d="M486.97 373.95l.747-.262m-.747.262l2.473-.13"/><path d="M489.45 373.82c-.575-.044-.085-.166.735-.183m-.735.183c.245-.06 1.747-.006 2.253.082"/><path d="M489.45 373.82l2.253.082m-3.003.218c.248-.1 1.742-.07 2.24.044"/><path d="M490.94 374.16l.755-.262m-.755.262l2.25.158"/><path d="M493.2 374.32c-.5-.14.012-.286.766-.22m-.766.22c.255-.073 1.753.1 2.247.275"/><path d="M493.2 374.32l2.247.275m-3.017.065c.256-.114 1.746.04 2.235.23m-.005.01c.26-.1 1.74.13 2.218.345"/><path d="M494.66 374.9c.74.115 1.7.596 1.426.722"/><path d="M494.66 374.9l1.426.722m-3.656-.962c.745.077 1.715.512 1.455.652m-.005.008l2.206.3"/><path d="M493.88 375.32l1.42.8m0 0c.262-.167 1.703.078 2.162.367"/><path d="M495.3 376.12c.72.122 1.637.752 1.375.945"/><path d="M495.3 376.12l1.375.945m-3.575-1.205c.73.087 1.678.672 1.42.878m.01.002l2.148.328m-2.148-.328l.684.915m-.014-.005c.488-.196 1.932.052 2.166.37m-2.166-.37c.722.124 1.2.8.7 1.03"/><path d="M495.2 377.65l.7 1.03m-2.88-1.3c.732.088 1.187.746.683.986m-.003.004c.738.103 1.2.833.693 1.095m-.693-1.095c.23.365-.804.933-1.553.852"/><path d="M493.7 378.37l-1.553.852m.873-1.842c.228.33-.804.854-1.547.788m-.003.002l.677 1.05m-.677-1.05l-1.573.92m.003.01c.75.043 1.195.78.668 1.106m-.668-1.106c.223.37-.835 1.067-1.587 1.048"/><path d="M489.9 379.1l-1.587 1.048m.917-2.058c.22.336-.83.997-1.578 1m.008-.01l.654 1.065m-.654-1.065l-1.8.75m-.01 0c.82.105 1.26.844.656 1.1m-.656-1.1c.22.37-.978.945-1.795.863"/><path d="M485.85 379.83l-1.795.863m1.145-1.873c.218.337-.98.883-1.796.818m-.004-.008l.654 1.057m-.654-1.057l-1.77.924"/><path d="M481.63 380.56c5.785-2.148-.057 3.353 0 0zm1.77-.93l-2.417-.07m-.003 0c.215.332-.943.984-1.737.978"/><path d="M480.98 379.56c-.58.326-2.16.36-2.37.05"/><path d="M480.98 379.56l-2.37.05m4.14-.93c-.6.293-2.195.3-2.407-.004"/><path d="M480.34 378.68l-1.734.934m1.734-.934l-1.755-.2m.015 0c.007.378-1.154 1.027-1.742.973"/><path d="M478.6 378.48c-.58.324-1.74.266-1.74-.088"/><path d="M478.6 378.48l-1.74-.088m3.5-.792c-.6.292-1.747.207-1.734-.127"/><path d="M478.63 377.48l-1.78.915m1.78-.915l-1.708-.016"/><path d="M476.92 377.46c1.086 2.293-5.122.542 0 0zm1.7.02l.103-.866m.007-.014c-.604.283-1.715.32-1.667.055m1.667-.055c-.556.018-.448-.463.162-.722"/><path d="M478.73 376.6l.162-.722m1.538.782c-.567-.018-.487-.548.12-.794"/><path d="M480.55 375.87l-1.66.017m1.66-.017l.747-.653"/><path d="M481.3 375.22c-.802.223-1.907.258-1.658.052m1.658-.052c-.553.017-.05-.343.754-.54"/><path d="M481.3 375.22l.754-.54m.946.6c-.565-.02-.063-.404.753-.577m-.003-.003l-1.694-.02m1.694.02l.755-.46"/><path d="M484.5 374.24c-5.377 2.192-1.095-1.064 0 0zm-.75.46l2.473-.366m-.003-.004c-.573-.032-.07-.286.752-.38m-.752.38c.25-.127 1.905-.267 2.482-.2"/><path d="M486.22 374.33l2.482-.2m-3.232.7c.25-.166 1.9-.36 2.488-.292m.002.002l.747-.416m-.747.416l2.23.01m.01 0c-.495-.142.01-.396.757-.38m-.757.38c.252-.127 1.745-.048 2.24.12"/><path d="M490.2 374.55l2.24.12m-3 .37c.252-.166 1.738-.1 2.23.083m-.01.007c.256-.154 1.737-.026 2.222.2m-2.222-.2c.74.064 1.707.55 1.45.73"/><path d="M491.66 375.13l1.45.73m-3.68-.82c.743.028 1.722.467 1.468.66"/><path d="M490.9 375.7l2.21.155"/><path d="M490.9 375.7l1.45.808m0-.008c.253-.218 1.707-.068 2.18.225m-2.18-.225c.727.075 1.172.658.668.875"/><path d="M492.35 376.5l.668.875m-2.868-.975c.734.04 1.17.6.654.84"/><path d="M490.8 377.23c.738.052 1.184.682.668.945m-.668-.945c.223.315-.823.886-1.568.857"/><path d="M490.8 377.23l-1.568.857m.918-1.687c.218.28-.828.805-1.57.788"/><path d="M488.58 377.18l.655.908m-.655-.908l-1.575.928"/><path d="M487 378.1c.743-.007 1.178.64.652.97m-.652-.97c.217.324-1 .797-1.8.7"/><path d="M487 378.1l-1.8.7m1.17-1.57c.215.3-.993.74-1.812.672m-.008-.002l.646.9m-.646-.9l-1.796.777"/><path d="M482.75 378.68c5.772-1.995.155 2.957 0 0zm1.8-.78l-2.434-.066m-.016.006c.213.28-.967.84-1.77.84"/><path d="M482.1 377.84c-.6.28-1.756.122-1.75-.237"/><path d="M482.1 377.84l-1.75-.237m3.55-.503c-.6.246-1.763.065-1.747-.272"/><path d="M482.16 376.83l-1.8.774m1.8-.774l-1.73-.164"/><path d="M480.43 376.66c1.108 2.4-5.096.158 0 0zm1.73.17l.088-.867"/><path d="M482.25 375.96c-.606.234-1.737.174-1.697-.1m1.697.1c-.566-.03-.07-.488.745-.687"/><path d="M482.25 375.96l.745-.687m.985.887c-.575-.066-.08-.546.743-.72m-.003 0l-1.724-.165m1.724.165l.75-.6"/><path d="M485.47 374.83c-5.202 2.692-1.278-1.64 0 0zm-.75.6l2.5-.37"/><path d="M487.2 375.07c-.58-.08-.08-.434.748-.53m-.748.53c.25-.177 1.73-.194 2.222-.025"/><path d="M487.2 375.07l2.222-.025m-2.962.655c.25-.214 1.727-.25 2.217-.056m.003.006c.25-.204 1.73-.172 2.22.048m-2.22-.048c.74.016 1.72.506 1.47.735"/><path d="M488.68 375.65l1.47.735m-3.7-.685c.74-.02 1.72.423 1.473.663m.017.007c.738.005 1.167.54.644.804m-.644-.804c.215.268-.836.84-1.576.86"/><path d="M487.94 376.37l-1.576.86m.096-1.53c.5.22-.002.722-.74.752"/><path d="M485.72 376.46l.636.77m-.636-.77l-1.814.638"/><path d="M483.9 377.1c5.723-1.8.367 2.578 0 0zm2.56-1.4c-.246.25-1.904.55-2.486.45"/><path d="M483.98 376.16c1.116 2.482-5.06-.198 0 0z"/><path d="M486.46 375.7c-5.034 3.062-1.428-2.126 0 0zM898.78 254l-.356-.06"/><path d="M898.42 253.93l1.287.943"/><path d="M898.42 253.93l.912.963"/><path d="M898.04 254.02c.43.3 1.04.994.912 1.054m-.002.006l1.288.943"/><path d="M898.95 255.08l.884 1.194m-1.374-.944c.457.312 1.03 1.15.86 1.258M893 260.6l-1.24.786m1.24-.786l-1.864-.635m-.006-.015c.208.474-.638 1.04-1.27.85"/><path d="M891.13 259.95l-1.27.85m0 0l.6 1.398m.67-2.248l-1.9-.5m0 0l.632 1.352m-.632-1.352l-1.287.92m-.003 0c.64.144 1.034 1.03.592 1.33m-.592-1.33c.197.443-.687 1.1-1.327.987"/><path d="M887.94 260.37l-1.327.987m.687-2.257c.2.43-.675 1.043-1.328.92"/><path d="M885.98 260l.632 1.353M885.98 260l-1.326 1.052m.006.008l1.958.3m-1.318 1.12c.442-.374 1.72-.2 1.918.277m-2.558-1.697c.2.474-.666 1.26-1.315 1.18"/><path d="M884.66 261.06l-1.315 1.18m.655-2.54c.223.456-.655 1.196-1.317 1.1m-.013 0c.223.48-.64 1.3-1.296 1.23"/><path d="M882.67 260.8l-1.296 1.23m-.704-1.43c.235.48-.612 1.33-1.27 1.273m0-.013l.7 1.5m-.7-1.5c-.4.46-1.723.373-1.97-.13m-1.95-.08c-.38.473-1.668.44-1.93-.05m0 0l-1.092 1.427"/><path d="M873.55 261.6h-1.895m-.005-.02l-1.847.03m2.947-1.38c-.367.453-1.636.473-1.904.03m.004 0l-1.043 1.356m1.043-1.356l-1.85.08m0 0c.27.425-.386 1.323-.983 1.346"/><path d="M869 260.34c-.328.45-1.52.534-1.787.128"/><path d="M869 260.34l-1.787.128m2.827-1.418c-.35.43-1.58.52-1.847.138"/><path d="M868.2 259.2l-.987 1.277"/><path d="M868.2 259.2l-1.778.195m-.002-.015l.8 1.082m-.8-1.082l-.923 1.258"/><path d="M864.7 259.65c-.04 2.503 4.682-.833 1.58 2.144m.14-2.414l-1.708.265"/><path d="M867.4 258.17c-.33.404-1.47.538-1.7.2m0 0l-.986 1.276"/><path d="M865.7 258.37l-1.684.335M864 258.7l.698.94m-1.658.4c.558-.135 1.063.48.758.92m.202-2.27c-.325.45-1.418.765-1.64.474m1.64-.464l-1.64.474m2.7-1.754c-.35.428-1.452.696-1.654.402m-.006.008c-.344.452-1.4.8-1.6.537"/><path d="M863.4 257.83l-1.6.537m1.1-1.367c-.362.45-1.397.848-1.552.595m-.008.005l-1.055 1.43m1.055-1.43c-.5.242-.733-.222-.365-.696m-.255-.624c-.45.27-.554-.102-.155-.56m-.005 0l-1.3.846m1.3-.846l-.05-.488m-.01-.002l.057-.413m1.273-.357c-.44.257-.448-.036-.01-.44m0 0l-1.254.798m1.254-.798l.1-.356"/><path d="M861.9 253.66c-.448.385-1.237.93-1.183.818"/><path d="M861.9 253.66c-.394.273-.267.092.19-.27"/><path d="M861.9 253.66l.2-.27m1.1-.45c-.423.243-.345.05.117-.3"/><path d="M863.3 252.64l-1.195.748m1.195-.748l.213-.197"/><path d="M897.74 253.2c-10.786-7.35-26.43-7.027-36.75 1.035"/><path d="M896.3 252.26l1.1.8m0 0c.97.248 2.678 2.25 0 0z"/><path d="M894.76 251.44c.512.276 1.303.788 1.186.767m-.006-.007l1.46.85"/><path d="M895.94 252.2l1.095.863m.005-.003c.122-.004 1.042.574 1.38.867"/><path d="M897.04 253.06c.46.29 1.126.926 1 .956"/><path d="M897.04 253.06l1 .956m-2.46-1.736c.488.262 1.2.888 1.083.94m-.003 0l1.38.803"/><path d="M896.66 253.22l.9 1m.01-.01c.157-.062 1.078.517 1.382.868"/><path d="M897.57 254.2c.46.29 1.057 1.04.894 1.125"/><path d="M897.57 254.2l.894 1.125m-2.364-1.905c.5.263 1.085.97.895 1.06m.005 0l1.465.854"/><path d="M897 254.48l.872 1.188m-.002.002c.198-.1 1.167.505 1.454.924"/><path d="M897.87 255.67c.485.308 1.042 1.183.836 1.312"/><path d="M897.87 255.67l.836 1.312m-2.376-2.152c.515.277 1.08 1.105.85 1.24m0 .01c.5.3 1.05 1.206.8 1.357"/><path d="M897.18 256.08l.8 1.357m.02-.007l1.505.977"/><path d="M898 257.43c.252.5-.294.833-.82.517m-.8-1.387c.534.292 1.056 1.22.783 1.393m.007-.003c.242.497-.367.882-.914.577m-.006.003c.232.502-.437.926-1.004.635"/><path d="M896.25 258.53l-1.004.635m.004-.005l.667 1.512m-.667-1.512l-1.088.7m.368-2.12c.24.478-.464.933-1.057.683"/><path d="M893.47 258.4l.692 1.44m-.692-1.44l-1.134.744"/><path d="M892.34 259.16c4.7-.766-.745 3.592 0 0zm1.13-.76l-1.838-.625m-.002.025l.704 1.37m-.704-1.37l-1.17.803"/><path d="M890.46 258.6c4.725-1.032-.6 3.545 0 0zm1.17-.8l-1.878-.5m-.002 0l.708 1.302m-.708-1.302l-1.195.867"/><path d="M888.56 258.15c.634.145 1.082 1 .67 1.3m-.67-1.3c.224.433-.608 1.054-1.247.932"/><path d="M888.56 258.15l-1.247.932m.537-2.182c.235.414-.57 1.036-1.207.933"/><path d="M886.65 257.85l.665 1.24m-.665-1.24l-1.33.86"/><path d="M885.32 258.7c.665.127 1.1.995.667 1.302m-.667-1.302c.222.434-.662 1.092-1.327.987"/><path d="M885.32 258.7l-1.327.987m.627-2.227c.232.414-.654 1.03-1.33.924"/><path d="M883.3 258.4l.7 1.306m-.7-1.306l-1.32 1.045"/><path d="M881.97 259.43c.673.087 1.14 1.002.7 1.372m-.7-1.372c.234.457-.632 1.23-1.3 1.16"/><path d="M881.97 259.43l-1.3 1.16m.57-2.46c.243.434-.625 1.163-1.3 1.094m0-.004l.73 1.368m-.73-1.368l-1.274 1.204m.004.006c.668.055 1.157 1.013.734 1.437m-.734-1.437c.245.48-.58 1.35-1.236 1.308"/><path d="M878.67 260.43l-1.236 1.308m.466-2.658c.25.45-.576 1.276-1.24 1.238"/><path d="M876.67 260.3l.76 1.423m-.76-1.413l-1.197 1.333"/><path d="M875.48 261.65c4.58-2.222-.3 4.356 0 0zm1.2-1.35l-1.977-.067m-.003.017c.26.467-.507 1.366-1.15 1.35"/><path d="M874.7 260.25c-.383.45-1.68.437-1.945-.02"/><path d="M874.7 260.25l-1.945-.02m3.145-1.25c-.4.42-1.73.398-1.992-.035"/><path d="m873.91 258.95-1.155 1.28"/><path d="M873.9 258.95l-1.954.023m.004-.003c.266.42-.47 1.278-1.105 1.288"/><path d="M871.95 258.97c-.368.43-1.64.483-1.908.08"/><path d="M871.95 258.97l-1.908.08m3.058-1.3c-.386.404-1.692.452-1.96.072"/><path d="m871.15 257.83-1.107 1.222"/><path d="M871.15 257.83l-1.905.14m.005 0c.266.36-.433 1.175-1.05 1.22"/><path d="M869.25 257.97c-.35.407-1.576.543-1.84.204"/><path d="M869.25 257.97l-1.84.204m2.94-1.374c-.37.386-1.633.522-1.896.203"/><path d="M868.46 257l-1.05 1.16"/><path d="M868.46 257l-1.707.142m-.003.008c.22.34-.482 1.152-1.052 1.22"/><path d="M866.75 257.15c-.35.406-1.477.587-1.69.27"/><path d="M866.75 257.15l-1.7.27m2.8-1.42c-.37.385-1.496.525-1.7.2"/><path d="M866.17 256.2l-1.11 1.217"/><path d="M866.17 256.2l-1.66.336m-.01.004c.183.294-.553 1.15-1.104 1.283"/><path d="M864.5 256.54c-.368.428-1.446.738-1.617.466"/><path d="M864.5 256.54l-1.617.466m2.797-1.666c-.4.402-1.473.668-1.626.4"/><path d="m864.05 255.74-1.157 1.273"/><path d="M864.05 255.74l-1.572.523m.002-.003c.138.25-.62 1.147-1.137 1.345"/><path d="M862.48 256.26c-.38.448-1.38.88-1.502.65"/><path d="M862.48 256.26l-1.502.65m2.702-1.9c-.402.418-1.417.802-1.522.576"/><path d="m862.16 255.58-1.186 1.326"/><path d="M862.16 255.58l-1.447.696m.007.004c1.554 1.356-4.02 2.322 0 0zm1.44-.7l-.216-.6m.006 0c-.4.432-1.334.924-1.386.737"/><path d="M861.95 254.98c-.462.246-.538-.102-.114-.522"/><path d="M861.95 254.98l-.114-.522m1.564-.098c-.5.208-.606-.168-.175-.564"/><path d="M863.24 253.8l-1.406.665m1.406-.665l-.077-.474"/><path d="M863.16 253.32c-.443.38-1.336.846-1.34.7"/><path d="M863.16 253.32c-.447.233-.434-.024.02-.385"/><path d="M863.16 253.32l.02-.385m1.4-.215c-.472.2-.504-.08-.048-.42"/><path d="M864.53 252.3l-1.348.632m1.348-.632l.044-.32"/><path d="M864.57 251.98c-.464.318-1.314.76-1.275.662"/><path d="M864.57 251.98c-.425.22-.335.074.135-.22"/><path d="M864.57 251.98l.135-.22m1.215-.36c-.45.2-.4.023.06-.25"/><path d="M865.98 251.16c-.424.2-.23.06.292-.213m-.292.213c.097-.07 1.187-.593 1.634-.783m25.886.393l1.27.665m-.01.005l.337.134"/><path d="M891.8 250.08l1.334.626m.016-.006l1.613.73"/><path d="M893.15 250.7l1.257.735"/><path d="M894.4 251.44c.12-.002 1.147.506 1.542.762"/><path d="M894.4 251.44c.514.254 1.296.813 1.173.84"/><path d="M894.4 251.44l1.173.84m-2.773-1.5c.538.223 1.37.76 1.247.806"/><path d="M894.04 251.58l1.54.702"/><path d="M894.04 251.58l1.162.912m-.002.008c.126-.07 1.1.416 1.46.73"/><path d="M895.2 252.5c.487.243 1.1.863.905.93"/><path d="M895.2 252.5l.905.93m-2.445-1.6c.5.217 1.108.8.895.875"/><path d="M894.56 252.7l1.544.705"/><path d="M894.56 252.7l.9.998m0 .002c.218-.098 1.25.413 1.548.766"/><path d="M895.45 253.7c.516.255 1.1 1.003.876 1.122"/><path d="M895.45 253.7l.876 1.122m-2.496-1.782c.54.225 1.123.93.874 1.06m-.004 0l1.622.737"/><path d="M894.7 254.1l.856 1.174m.004-.004c.255-.146 1.333.4 1.616.804"/><path d="M895.56 255.27c.54.268 1.088 1.125.824 1.285"/><path d="M895.56 255.27l.824 1.285m-2.514-1.985c.563.234 1.118 1.046.832 1.218m-.002.012l1.682.768m-1.682-.768l.798 1.32"/><path d="M895.5 257.1c.295-.184 1.406.376 1.667.84m-1.667-.84c.556.28 1.058 1.225.753 1.417m-.753-1.417c.25.472-.398.885-.974.62m-.766-1.34c.58.242 1.094 1.14.77 1.346"/><path d="M893.76 256.38l.77 1.346m-.77-1.346l-1.025.667"/><path d="M892.73 257.05c4.56-.772-.564 3.44 0 0zm1.03-.67l-1.8-.612m0 .002l.776 1.28m-.776-1.28l-1.068.72"/><path d="M890.9 256.5c4.585-1.018-.43 3.388 0 0zm1.06-.73l-1.843-.495"/><path d="M890.1 255.28l.775 1.216m-.775-1.216l-1.102.78m.002 0c.626.145 1.12.967.742 1.232M889 256.06c.247.4-.525.983-1.158.858"/><path d="M889 256.06l-1.158.858m.398-2.018c.256.386-.493.947-1.124.84m.004 0l.735 1.176m-.735-1.176l-1.17.924m0-.004c.635.084 1.1.874.697 1.185m-.697-1.185c.232.395-.654.93-1.33.8"/><path d="M885.95 256.66l-1.33.8m.6-1.92c.242.375-.646.874-1.33.748"/><path d="M883.9 256.28l.726 1.178m-.726-1.178l-1.33.865m-.01.005c.685.104 1.17.93.727 1.237m-.727-1.237c.242.412-.638 1.066-1.32.98"/><path d="M882.56 257.15l-1.32.98m.56-2.15c.25.388-.63 1.003-1.32.922m.02-.002l.75 1.223m-.75-1.223l-1.302 1.03m.002.01c.684.064 1.186.92.752 1.286m-.752-1.286c.25.43-.6 1.187-1.276 1.137"/><path d="M879.2 257.94l-1.276 1.137m.506-2.337c.257.4-.594 1.115-1.277 1.073m-.013-.013l.773 1.264m-.773-1.264l-1.243 1.17"/><path d="M875.9 258.98c4.692-2.198-.15 3.933 0 0zm1.24-1.18l-2.03-.06m-.01.01c.263.4-.54 1.208-1.204 1.196"/><path d="M875.1 257.75c-.4.4-1.735.403-2 .006"/><path d="M875.1 257.75l-2 .006m3.25-1.116c-.415.37-1.776.357-2.04-.02"/><path d="m874.31 256.62-1.204 1.133"/><path d="M874.3 256.62l-2.005.055m.005.005c.267.36-.505 1.126-1.158 1.15"/><path d="M872.3 256.68c-.386.383-1.69.47-1.957.13"/><path d="M872.3 256.68l-1.957.13m3.157-1.2c-.4.358-1.737.432-2.004.1"/><path d="m871.51 255.72-1.157 1.092"/><path d="M871.5 255.72l-1.95.194"/><path d="M869.56 255.9c.264.3-.47 1.033-1.103 1.1"/><path d="M869.56 255.9c-.368.367-1.5.425-1.7.087"/><path d="M869.56 255.9l-1.7.087m2.84-1.117c-.385.346-1.512.37-1.7.037"/><path d="m869.02 254.91-1.162 1.088"/><path d="M869.02 254.9l-1.683.154m.003.006c.174.3-.605 1.074-1.168 1.144"/><path d="M867.34 255.06c-.39.38-1.498.564-1.663.274"/><path d="M867.34 255.06l-1.663.274M868.55 254c-.405.356-1.5.5-1.66.218"/><path d="m866.9 254.22-1.219 1.123"/><path d="M866.9 254.22l-1.628.336m-.002-.006c.136.262-.675 1.053-1.217 1.186"/><path d="M865.27 254.55c-.406.395-1.46.7-1.583.456"/><path d="M865.27 254.55l-1.583.456m2.843-1.546c-.422.365-1.48.627-1.586.393"/><path d="m864.95 253.85-1.262 1.157"/><path d="M864.95 253.85l-1.533.5m-.017 0c1.642 1.45-4.215 1.827 0 0zm1.55-.5l-.23-.6m0-.01c-.434.373-1.42.743-1.478.555"/><path d="M864.72 253.24c-.493.185-.586-.16-.14-.517"/><path d="M864.72 253.24l-.14-.517m1.67.077c-.512.15-.643-.227-.196-.564m.006-.006l-1.48.493m1.48-.493l-.1-.462"/><path d="M865.94 251.77c-.456.318-1.4.676-1.417.536"/><path d="M865.94 251.77c-.472.18-.5-.06-.026-.357"/><path d="M865.94 251.77l-.026-.357m1.506-.083c-.492.146-.553-.122-.1-.4"/><path d="M867.33 250.93l-1.4.48m1.4-.48l-.012-.3"/><path d="M867.32 250.64c-.466.257-1.36.603-1.34.52"/><path d="M867.32 250.64c-.447.173-.25-.003.294-.264"/><path d="M867.32 250.64l.294-.264m1.106-.176c-.467.144-.268-.064.3-.3m0 0l-1.406.478m1.406-.478l.302-.193"/><path d="M870.78 249.27c.24-.362-4.536 1.724-2.872.963m22.492-.673l-.333-.07m.013.01l1.734.584"/><path d="M890.08 249.5l1.4.58m0 0c.115.001 1.234.42 1.68.63"/><path d="M891.47 250.08c.56.2 1.44.673 1.322.695"/><path d="M891.47 250.08l1.322.695m-3.052-1.225c.577.176 1.497.6 1.38.65"/><path d="M891.12 250.2l1.674.575"/><path d="M891.12 250.2l1.312.766m-.002-.006c.12-.064 1.193.346 1.6.615"/><path d="M892.43 250.96c.536.205 1.36.8 1.237.877"/><path d="M892.43 250.96l1.237.877m-2.907-1.397c.556.176 1.426.732 1.305.835m-.005-.005l1.6.57"/><path d="M892.06 251.27l.884.825m.006.005c.24-.085 1.314.327 1.612.62"/><path d="M892.95 252.1c.537.206 1.126.835.883.943"/><path d="M892.95 252.1l.883.943m-2.563-1.483c.558.177 1.14.77.874.9m.006 0l1.682.582"/><path d="M892.15 252.46l.868 1.002m.002-.002c.27-.14 1.397.286 1.688.64"/><path d="M893.02 253.46c.563.213 1.132.954.854 1.112"/><path d="M893.02 253.46l.854 1.112m-2.604-1.652c.58.18 1.147.882.85 1.054m0-.004l1.748.597m-1.748-.597l.83 1.155m0 .005c.306-.186 1.472.254 1.75.66"/><path d="M892.95 255.13c4.4-.733-.38 3.187 0 0zm-.83-1.16l-.97.607m0 .003c4.427-.957-.26 3.13 0 0zm.12-1.66c.283.35-.348.727-.947.564m.007-.004l.826 1.097m-.826-1.097l-1.012.66m-.018 0c.613.146 1.145.9.8 1.132m-.8-1.132c.266.377-.448.88-1.072.753"/><path d="M889.3 254.14l-1.072.753m.272-1.793c.273.348-.424.826-1.045.717"/><path d="M887.45 253.82l.8 1.08m-.8-1.08l-1.093.815m.003-.005c.628.088 1.135.826.76 1.106m-.76-1.106c.253.37-.503.972-1.134.905"/><path d="M886.36 254.63l-1.134.905m.354-1.935c.26.344-.475.93-1.103.878m-.007.002l.75 1.06m-.75-1.06l-1.332.698m.002.002c.694.12 1.195.86.75 1.1m-.75-1.1c.25.37-.636.9-1.33.8"/><path d="M883.14 255.18l-1.33.8m.56-1.84c.257.345-.63.85-1.33.76m0 0l.77 1.084m-.77-1.084l-1.32.866m0 .004c.697.073 1.2.833.77 1.14m-.77-1.14c.257.38-.612 1.027-1.303.97"/><path d="M879.72 255.77l-1.303.97m.523-2.02c.262.35-.607.96-1.303.915m-.007-.005l.786 1.108m-.786-1.108l-1.277 1.013"/><path d="M876.36 256.64c4.773-2.13.015 3.5 0 0zm1.27-1l-2.074-.053m.004-.007c.266.355-.564 1.053-1.244 1.047"/><path d="M875.56 255.58c-.415.35-1.778.368-2.045.03"/><path d="M875.56 255.58l-2.045.03m3.325-1c-.426.32-1.812.316-2.08-.005"/><path d="M874.76 254.6l-1.243.992"/><path d="M874.76 254.6l-2.045.084m-.015.016c.267.303-.534.982-1.202 1.02"/><path d="M872.7 254.7c-.4.34-1.733.456-1.998.175"/><path d="M872.7 254.7l-1.998.175m3.248-1.115c-.413.314-1.773.412-2.04.147"/><path d="M871.9 253.9l-1.197.97m1.197-.97h-1.68m.01 0c.16.326-.644 1.003-1.208 1.015"/><path d="M870.23 253.9c-.403.338-1.52.406-1.676.102"/><path d="M870.23 253.9l-1.676.102m2.926-1.042c-.415.313-1.526.35-1.666.056"/><path d="M869.8 253l-1.256.985"/><path d="M869.8 253l-1.652.166m.012.014c.132.273-.7.964-1.263 1.037"/><path d="M868.16 253.18c-.42.346-1.505.532-1.626.28"/><path d="M868.16 253.18l-1.626.28m2.916-1.23c-.432.315-1.5.466-1.618.226"/><path d="M867.84 252.46l-1.304 1"/><path d="M867.84 252.46l-1.584.336m-.006.004c1.706 1.534-4.287 1.388 0 0zm1.6-.34l-.247-.617m.007-.003c-.446.318-1.468.577-1.533.4"/><path d="M867.6 251.84c-.51.13-.623-.2-.168-.5"/><path d="M867.6 251.84l-.168-.5m1.738.22c-.526.094-.672-.282-.22-.564m0 .004l-1.526.337m1.526-.337l-.15-.45"/><path d="M868.8 250.54c-.46.262-1.438.52-1.468.386m1.468-.386c-.5.13-.542-.094-.08-.334m.08.334l-.08-.334m1.58.044c-.505.097-.597-.16-.138-.384"/><path d="M870.18 249.87l-1.457.342m1.457-.342l.304-.353"/><path d="M870.48 249.52c-.587.232-1.562.488-1.462.384"/><path d="M870.48 249.52c-.487.128-.284-.033.305-.24"/><path d="M870.48 249.52l.305-.24m1.215-.05c-.504.096-.298-.092.3-.283"/><path d="M872.3 248.94l-1.515.33m1.515-.33l.308-.172"/><path d="M874.17 248.5c.3-.408-4.814 1.325-3.075.655m12.025-1.055c.103-.005 1.338.128 1.853.2m-.003 0l.315.028"/><path d="M884.97 248.3l1.84.308m-.33.042c.1-.012 1.318.234 1.814.37m.006 0c.1.005 1.297.323 1.78.477"/><path d="M888.3 249.02c.593.16 1.55.512 1.437.53"/><path d="M888.3 249.02l1.437.53m-3.257-.9c.605.123 1.6.438 1.476.472"/><path d="M887.96 249.12l1.775.426"/><path d="M887.96 249.12l1.428.596m.012.004c.116-.057 1.267.263 1.727.48"/><path d="M889.4 249.72c.576.16 1.49.638 1.37.718"/><path d="M889.4 249.72l1.37.718m-3.15-1.098c.6.127 1.536.57 1.42.665m0-.005l1.72.435"/><path d="M889.04 250l1.365.786m-.005.014c.118-.117 1.224.206 1.66.484"/><path d="M890.4 250.8c.553.16 1.133.68.87.78"/><path d="M890.4 250.8l.87.78m-2.57-1.18c.57.133 1.142.625.858.738"/><path d="M889.55 251.13l1.722.44m-1.722-.44l.86.844m-.01-.004c.287-.135 1.444.2 1.735.486"/><path d="M890.4 251.97c.578.162 1.152.795.86.95"/><path d="M890.4 251.97l.86.95m-2.62-1.34c.592.13 1.157.73.848.902m-.008-.002c.596.146 1.157.813.84 1m-.84-1c.28.334-.38.745-1 .617"/><path d="M889.48 252.48l-1 .617m.15-1.517c.283.3-.365.678-.97.566"/><path d="M887.67 252.15l.83.953m-.83-.953l-1.023.675m-.007-.005c.618.093 1.156.756.808.995m-.808-.995c.27.332-.44.85-1.066.778"/><path d="M886.64 252.82l-1.066.778m.246-1.698c.273.303-.423.793-1.044.735"/><path d="M884.78 252.65l.797.952m-.797-.952l-1.076.84m-.004.01c.624.037 1.138.696.77 1m-.77-1c.257.33-.63.765-1.332.653"/><path d="M883.7 253.5l-1.332.653m.552-1.573c.262.304-.626.712-1.333.6"/><path d="M881.58 253.2l.788.955m-.788-.955l-1.33.714"/><path d="M880.25 253.9c.706.08 1.23.748.788 1m-.788-1c.263.334-.617.877-1.32.815"/><path d="M880.25 253.9l-1.32.815m.53-1.715c.266.305-.613.817-1.32.77"/><path d="M878.14 253.76l.8.96m-.8-.96l-1.3.864"/><path d="M876.84 254.62c4.83-2.017.187 3.074 0 0zm1.3-.86l-2.106-.048m-.004-.012c.268.304-.58.9-1.274.907"/><path d="M876.03 253.7c-.425.302-1.81.336-2.08.05"/><path d="M876.03 253.7l-2.08.05m3.38-.85c-.433.273-1.838.277-2.107.007"/><path d="M875.22 252.9l-1.272.86"/><path d="M875.22 252.9l-2.076.1m.006-.01c.268.25-.556.848-1.236.897"/><path d="M873.15 253c-.412.3-1.525.265-1.67-.05"/><path d="M873.15 253l-1.67-.05m2.92-.75c-.423.273-1.53.214-1.66-.1"/><path d="M872.75 252.1l-1.278.857"/><path d="M872.75 252.1l-1.657.014"/><path d="M871.1 252.1c.126.28-.732.88-1.287.9"/><path d="M871.1 252.1c-.43.3-1.524.38-1.643.12"/><path d="M871.1 252.1l-1.643.12m2.943-.92c-.437.27-1.526.32-1.633.076"/><path d="M870.78 251.38l-1.322.854"/><path d="M870.78 251.38l-1.6.18m-.01 0c1.75 1.604-4.277 1.002 0 0zm1.6-.18l-.26-.62m0 0c-.45.267-1.495.425-1.568.237"/><path d="M870.52 250.76c-.523.08-.657-.258-.2-.505"/><path d="M870.52 250.76l-.2-.505m1.8.365c-.533.046-.695-.33-.243-.562m-.007.002l-1.558.195m1.558-.195l-.2-.44"/><path d="M871.68 249.62c-.456.212-1.46.38-1.506.25m1.506-.25c-.502.084-.296-.177.3-.4"/><path d="M871.68 249.62l.3-.4m1.24.23c-.516.053-.306-.23.314-.425"/><path d="M873.54 249.03l-1.552.193m1.552-.193l.312-.322"/><path d="M873.86 248.7c-.62.172-1.658.326-1.555.232m1.555-.232c-.518.077-.3-.066.3-.215"/><path d="M873.86 248.7l.3-.215m1.27.095c-.53.044-.32-.125.314-.254m.016-.006l-1.592.17m1.592-.17l.3-.148"/><path d="M876.07 248.18l-1.593.215m1.283-.075l1.927-.255"/><path d="M877.68 248.07c-.54.036-.334-.018.308-.08m-.308.08c.103-.027 1.397-.1 1.94-.123"/><path d="M877.68 248.07l1.94-.123m-2.25.313c.104-.062 1.4-.188 1.945-.2"/><path d="M879.32 248.07l.3-.12m-.3.12l1.947-.056m-.007-.014l-1.638-.063m1.638.063l.303-.052"/><path d="M883.12 248.1c.36-.25-4.997-.093-3.19-.173"/><path d="M881.26 248l1.853.095m-2.163.065c.103-.05 1.335-.01 1.847.06m.003 0l.316-.12m-.316.12l1.847.16m.003 0c-.5-.093-.296-.147.322-.08m-.322.08c.107-.027 1.33.15 1.836.264"/><path d="M884.65 248.38l1.836.264m-2.166-.074c.108-.062 1.328.088 1.83.225m0 .005c.1-.05 1.315.17 1.807.326"/><path d="M886.15 248.8c.602.11 1.58.47 1.466.54"/><path d="M886.15 248.8l1.466.54m-3.296-.77c.6.075 1.607.394 1.496.48"/><path d="M885.82 249.05l1.8.286"/><path d="M885.82 249.05l1.46.607m0 .003c.113-.107 1.287.122 1.76.344"/><path d="M887.28 249.66c.587.115 1.53.603 1.415.732"/><path d="M887.28 249.66l1.415.732m-3.215-.992c.598.084 1.57.534 1.456.675"/><path d="M886.94 250.08l1.753.308m-1.753-.308l.846.7m.014 0c.302-.13 1.48.1 1.765.347m-1.765-.347c.588.116 1.155.65.85.8"/><path d="M887.8 250.78l.85.8m-2.65-1.05c.6.084 1.158.592.838.762m-.008.008c.603.097 1.162.67.838.858m-.838-.858c.28.286-.4.702-1.004.624"/><path d="M886.83 251.3l-1.004.624m.174-1.394c.28.254-.382.632-.992.567m-.008.003l.826.82m-.826-.82l-1.027.684m-.003-.004c.618.045 1.157.625.8.87m-.8-.87c.27.3-.433.822-1.054.798"/><path d="M883.97 251.78l-1.054.798m.234-1.578c.272.26-.42.76-1.037.747"/><path d="M882.12 251.74l.8.833m-.8-.833l-1.333.573m-.007.007c.7.087 1.244.667.8.87m-.8-.87c.267.3-.62.738-1.33.67"/><path d="M880.78 252.32l-1.33.67m.53-1.46c.27.262-.616.684-1.33.633"/><path d="M878.65 252.16l.8.823m-.8-.823l-1.317.726"/><path d="M877.33 252.9c4.856-1.863.354 2.672 0 0zm1.32-.74l-2.128-.043m-.002.003c.27.256-.594.774-1.296.776"/><path d="M876.52 252.12c-.432.26-1.835.304-2.104.068"/><path d="M876.52 252.12l-2.104.068m3.414-.758c-.438.23-1.856.24-2.126.018m-.004.002l-1.293.738m1.293-.738l-1.65-.123m.01.003c.12.287-.75.802-1.302.772"/><path d="M874.06 251.33c-.434.257-1.532.24-1.647-.025"/><path d="M874.06 251.33l-1.647-.025m2.967-.665c-.44.23-1.532.2-1.638-.06"/><path d="M873.74 250.58l-1.33.72"/><path d="M873.74 250.58l-1.623.038m.003.002c1.778 1.67-4.233.665 0 0zm1.62-.04l-.276-.624m-.004.004c-.45.22-1.5.287-1.6.1m1.6-.1c-.53.033-.685-.3-.233-.5m.233.5l-.233-.5m1.853.5c-.538.001-.716-.374-.267-.562"/><path d="M874.8 249.4l-1.58.066m1.58-.066l.318-.456"/><path d="M875.13 248.94c-.633.174-1.7.24-1.584.097m1.584-.097c-.528.032-.317-.206.317-.357"/><path d="M875.13 248.94l.317-.357m1.293.347c-.537.001-.324-.26.32-.4"/><path d="M877.06 248.54l-1.612.034m1.612-.034l.316-.3"/><path d="M877.37 248.26c-4.224 2.056-.865-1.245 0 0z"/><path d="M877.06 248.54l1.946-.26"/><path d="M879 248.3c-.543-.01-.333-.157.315-.22m-.315.22c.105-.073 1.406-.155 1.952-.123"/><path d="M879 248.3l1.952-.123m-2.272.423c.106-.107 1.4-.236 1.954-.193m.006.013l.316-.252m-.316.252l1.843.03m-.003-.01c-.5-.094-.296-.24.32-.22m-.32.22c.107-.073 1.335.01 1.842.126"/><path d="M882.48 248.44l1.842.126m-2.162.194c.107-.107 1.33-.044 1.836.094m.004.006c.1-.096 1.325.03 1.824.2"/><path d="M884 248.86c.608.063 1.6.427 1.5.546"/><path d="M884 248.86l1.5.546m-3.34-.646c.612.03 1.618.353 1.5.483m.01.007l1.817.157"/><path d="M883.67 249.25l1.487.613m.003-.003c.1-.152 1.3-.006 1.786.22m-1.786-.22c.595.073 1.152.516.835.665"/><path d="M885.16 249.86l.835.665m-2.655-.795c.604.042 1.155.464.826.632m.004.008c.607.053 1.16.538.83.727m-.83-.727c.276.242-.4.662-1.015.63"/><path d="M884.17 250.37l-1.015.63m.185-1.27c.275.2-.397.6-1 .567m-.01.003l.82.694m-.82-.694l-1.026.7m-.004 0c.615.001 1.155.5.8.75m-.8-.75c.27.25-.62.6-1.333.538"/><path d="M881.3 251l-1.333.538m.533-1.208c.27.22-.617.558-1.333.506m-.007.004l.814.695m-.814-.695l-1.328.597"/><path d="M877.83 251.43c4.858-1.668.5 2.284 0 0zm1.33-.6l-2.14-.038m0 .008c.27.212-.604.647-1.313.653"/><path d="M877.02 250.8c-.438.218-1.534.114-1.644-.156"/><path d="M877.02 250.8l-1.644-.156m2.974-.414c-.442.188-1.535.064-1.64-.186"/><path d="M876.7 250.05l-1.33.595m1.33-.595l-1.63-.092"/><path d="M875.08 249.95c1.796 1.73-4.168.362 0 0zm1.62.1l-.3-.626"/><path d="M876.42 249.42c-.447.178-1.518.16-1.607-.028m1.607.028c-.536-.01-.322-.333.32-.486"/><path d="M876.42 249.42l.32-.486m1.3.606c-.542-.04-.328-.384.32-.515"/><path d="M878.36 249.03l-1.626-.093m1.626.093l.32-.42"/><path d="M878.68 248.6c-3.905 2.488-1.2-1.782 0 0zm-.32.43l1.957-.262m.003-.008c-.545-.052-.333-.286.318-.35m-.318.35c.106-.117 1.332-.117 1.84 0"/><path d="M880.32 248.76h1.84m-2.16.44c.107-.15 1.332-.17 1.837-.03m.003.01c.108-.14 1.33-.098 1.832.063m-1.832-.063c.6.02 1.615.387 1.507.55"/><path d="M881.84 249.18l1.507.55M880 249.2c.612-.01 1.622.314 1.515.486m-.015.014c.6.01 1.156.412.82.6m-.82-.6c.273.2-.407.62-1.02.63"/><path d="M881.5 249.7l-1.02.63m-.48-1.13c.505.162.3.524-.32.543"/><path d="M879.68 249.76l.816.572m-.816-.572l-1.332.475"/><path d="M878.35 250.23c4.83-1.436.656 1.906 0 0zm1.65-1.03c-.107.18-1.412.4-1.957.328m-.003.012c1.804 1.8-4.105.082 0 0z"/><path d="M880 249.2c-3.68 2.733-1.415-2.166 0 0zm311.1-89.5c-9.065-7.577-23.274-7.96-32.97-1.35"/><path d="M1189.9 158.86c.033 0 .735.526 1.053.8"/><path d="M1189.9 158.86c.35.263.983.845.948.873"/><path d="M1190.9 159.73l1.044.85"/><path d="M1190.9 159.73l.915.998"/><path d="M1190.7 159.88c.372.282.965.986.9 1.055m-4.2 3.065l-.932.637"/><path d="M1187.4 164l-1.553-.58m-.047 0c.207.405-.435.87-.963.695"/><path d="M1185.8 163.42l-.963.695m.063-.015l.582 1.2m.318-1.88l-1.596-.46m-.004 0l.633 1.154m-.633-1.154l-.984.757m.084-.017c.54.132.932.9.6 1.138m-.6-1.138c.197.38-.5.927-1.032.82"/><path d="M1183.3 163.7l-1.032.82m.332-1.9c.212.366-.475.874-1.03.762m.03-.002l.633 1.156m-.633-1.156l-1.038.88m.038 0l1.67.276m-1.07.944c.347-.314 1.433-.142 1.628.258m-2.228-1.478c.2.406-.484 1.07-1.04.995"/><path d="M1180.6 164.26l-1.04.995m.34-2.155c.224.388-.467 1-1.037.933m-.063-.003c.223.4-.464 1.104-1.03 1.042"/><path d="M1178.8 164.03l-1.03 1.042m-.67-1.232c.236.4-.442 1.13-1.016 1.082m.016-.002l.705 1.3m-.705-1.3c-.332.392-1.5.32-1.736-.108m-1.764-.072c-.3.406-1.466.387-1.732-.03"/><path d="m1170.9 164.72-0.897 1.228"/><path d="M1170.9 164.72l-1.716.01m.016 0l-1.7.05m2.6-1.22c-.3.388-1.453.422-1.732.05m-.068-.01l-.854 1.166"/><path d="M1168.3 163.6l-1.7.097m0 .003c.282.356-.256 1.13-.808 1.16m.808-1.16c-.27.386-1.376.482-1.66.144"/><path d="M1166.6 163.7l-1.66.144m2.56-1.244c-.284.368-1.42.468-1.706.15"/><path d="M1165.8 162.76l-.806 1.098m.806-1.098l-1.658.204m-.042-.004l.852.894m-.852-.894l-.757 1.084"/><path d="M1162.5 163.23c.172 2.102 4.298-.827 1.703 1.77m-.103-2.04l-1.6.27m2.4-1.3c-.268.347-1.34.5-1.608.213m.008-.003l-.806 1.096m.806-1.106l-1.594.333m-.006-.003l.788.763m-1.588.397c.53-.132 1.085.368.834.75m-.034-1.9c-.267.386-1.308.7-1.562.455m1.562-.465l-1.562.455m2.462-1.555c-.284.367-1.33.63-1.57.393m-.03.007c-.28.388-1.3.73-1.53.512"/><path d="M1161 161.76l-1.53.512m.93-1.172c-.294.388-1.3.764-1.492.564m-.008.006l-.86 1.23m.86-1.23c-.475.226-.827-.134-.528-.54m-.472-.48c-.44.252-.68-.028-.357-.42m-.043 0l-1.265.784"/><path d="M1157.5 160.23l-.268-.355m.068-.005l-.178-.288m1.478-.422c-.43.24-.6.03-.24-.3m-.06 0l-1.226.74"/><path d="M1158.3 158.85l-.154-.237"/><path d="M1158.2 158.6c-.357.325-1.13.83-1.16.756"/><path d="M1158.2 158.6c-.386.252-.43.145-.066-.16"/><path d="M1158.2 158.6l-.066-.16m1.266-.5c-.412.225-.502.106-.135-.18"/><path d="M1159.3 157.75l-1.166.694m1.166-.694l-.05-.096"/><path d="M1160.4 157.02a46.22 46.22 0 0 0-2.279 1.426m-.02-.086c-.01.03-.748.597-1.1.852m31.9-1.132l1.027.785m-2.227-1.505c.4.238 1.134.752 1.1.77"/><path d="M1188.8 158.13l1.13.727"/><path d="M1188.8 158.13l.95.815m.05.005c.06-.03.812.494 1.128.785"/><path d="M1189.8 158.95c.376.262.994.886.927.936"/><path d="M1189.8 158.95l.927.936m-2.127-1.646c.402.238 1.023.823.932.877m-.032-.017l1.2.773"/><path d="M1189.5 159.1l.904.992m-.004.008c.1-.073.9.484 1.185.836"/><path d="M1190.4 160.1c.395.28.97 1.015.86 1.105"/><path d="M1190.4 160.1l.86 1.105m-2.16-1.855c.423.25 1.008.945.878 1.04m.022.01c.417.273.97 1.037.83 1.146"/><path d="M1190 160.4l.83 1.146m-.03-.006l1.223.884m-1.223-.884c.257.415-.086.672-.514.385m-.786-1.185c.438.264.97 1.05.8 1.178"/><path d="M1190.3 161.92l.573.986m-1.173-.546c.4.82 1.733 2.552-.693.495"/><path d="M1189.7 162.36l-.693.495m-.007.005l.67 1.293m-.67-1.293l-.776.545"/><path d="M1188.3 161.64c.262.637 2.016 2.613-.74.538"/><path d="M1187.6 162.18l.697 1.227m-.697-1.227l-.82.593"/><path d="M1186.7 162.77c3.874-.604-.523 3.073 0 0zm.9-.6l-1.533-.57m-.067 0l.713 1.163M1186 161.6l-.854.647"/><path d="M1185.2 162.25c3.896-.846-.386 3.03 0 0zm.8-.65l-1.575-.458"/><path d="M1184.4 161.15l.72 1.105m-.72-1.105l-.88.704m.08-.004c.534.134.986.87.68 1.105m-.68-1.105c.226.368-.4.878-.94.765"/><path d="M1183.6 161.85l-.94.765"/><path d="M1182.8 160.8c.52.783 1.8 2.05-.896.763"/><path d="M1181.9 161.56l.678 1.052m-.678-1.052l-1.028.708m.028.002c.57.115 1.02.852.676 1.106m-.676-1.106c.225.37-.465.916-1.035.82"/><path d="M1180.9 162.27l-1.035.82m.335-1.87c.24.35-.45.86-1.033.766"/><path d="M1179.2 162l.714 1.107M1179.2 162l-1.033.874"/><path d="M1178.1 162.86c.582.078 1.056.855.7 1.166m-.7-1.166c.237.4-.45 1.04-1.028.98"/><path d="M1178.1 162.86l-1.028.98m.328-2.08c.25.367-.434.98-1.025.92"/><path d="M1176.4 162.68l.745 1.16m-.745-1.16l-1.013 1.02m.013 0c.586.047 1.08.86.742 1.222m-.742-1.222c.247.407-.415 1.15-.994 1.114"/><path d="M1175.4 163.7l-.994 1.114m.194-2.254c.258.382-.402 1.082-1 1.05m0-.01l.772 1.208m-.772-1.208l-.967 1.14"/><path d="M1172.6 164.74c3.97-2.016-.057 3.78 0 0zm1-1.14l-1.766-.046m-.034.006c.266.395-.356 1.166-.933 1.156"/><path d="M1171.8 163.56c-.31.385-1.48.387-1.753.002"/><path d="M1171.8 163.56l-1.753.002m2.753-1.082c-.32.36-1.512.35-1.786-.015"/><path d="M1171 162.47l-.93 1.093"/><path d="M1171 162.47l-1.77.04"/><path d="M1169.2 162.5c.28.35-.316 1.086-.893 1.103"/><path d="M1169.2 162.5c-.298.368-1.46.432-1.742.096"/><path d="M1169.2 162.5l-1.742.096m2.742-1.116c-.3.344-1.496.402-1.78.086"/><path d="M1168.4 161.56l-.89 1.043"/><path d="M1168.4 161.56l-1.747.148"/><path d="M1166.6 161.7c.285.298-.28.995-.85 1.045m.85-1.045c-.283.348-1.42.488-1.704.2"/><path d="M1166.6 161.7l-1.704.2m2.604-1.2c-.296.33-1.46.466-1.746.206"/><path d="M1165.8 160.93l-.846 1"/><path d="M1165.8 160.93l-1.602.16m.002.01c.252.277-.316.972-.852 1.043"/><path d="M1164.2 161.1c-.284.348-1.347.53-1.595.274"/><path d="M1164.2 161.1l-1.595.274m2.495-1.274c-.298.328-1.358.475-1.6.22"/><path d="M1163.5 160.32l-.897 1.04"/><path d="M1163.5 160.32l-1.574.333m-.026.007c.226.235-.37.968-.894 1.1"/><path d="M1161.9 160.66c-.298.366-1.325.665-1.54.448"/><path d="M1161.9 160.66l-1.54.448m2.44-1.478c-.313.343-1.343.602-1.545.4"/><path d="m1161.3 160.02-0.934 1.087"/><path d="M1161.3 160.02l-1.505.5m.005 0c.2.196-.424.964-.92 1.152"/><path d="M1159.8 160.52c-.307.384-1.273.79-1.45.61"/><path d="M1159.8 160.52l-1.45.6m2.45-1.68c-.323.356-1.298.72-1.462.546"/><path d="m1159.3 160-0.957 1.133"/><path d="M1159.3 160l-1.4.652m0-.002c2 .88-3.55 2.194 0 0zm1.4-.65l-.4-.455m0-.005c-.33.37-1.227.828-1.346.688"/><path d="M1158.9 159.54c-.45.23-.666-.026-.326-.383"/><path d="M1158.9 159.54l-.326-.383m1.726-.207c-.47.196-.725-.084-.38-.42"/><path d="M1159.9 158.53l-1.36.623m1.36-.623l-.3-.34"/><path d="M1159.6 158.2c-.353.32-1.22.757-1.3.653"/><path d="M1159.6 158.2c-.433.218-.578.044-.218-.26"/><path d="M1159.6 158.2l-.218-.26m1.618-.3c-.454.187-.64-.007-.28-.3m-.02 0l-1.302.593m1.302-.593l-.202-.203"/><path d="M1160.5 157.14c-.367.265-1.2.677-1.235.617"/><path d="M1160.5 157.14c-.412.206-.493.13-.122-.115"/><path d="M1160.5 157.14l-.122-.115m1.422-.425c-.433.18-.56.085-.192-.142"/><path d="M1161.6 156.46l-1.228.566m1.228-.566l.025-.112"/><path d="M1162.9 155.8c-.665.066-2.1 1.082-2.527 1.153m26.127-.273l1.182.683m.018-.003l.1.008m-2.6-1.298c.445.203 1.275.64 1.245.655m-.045-.005l1.273.638"/><path d="M1186.4 156.72l1.17.748m.03.002c.035-.037.837.404 1.204.66"/><path d="M1187.6 157.47c.4.22 1.034.728.95.762"/><path d="M1187.6 157.47l.95.762m-2.25-1.352c.424.197 1.053.673.944.713"/><path d="M1187.3 157.6l1.276.64"/><path d="M1187.3 157.6l.933.823m-.033-.003c.114-.06.964.403 1.275.695"/><path d="M1188.2 158.42c.425.232 1.032.854.91.933"/><path d="M1188.2 158.42l.9.933m-2.2-1.553c.448.205 1.056.8.913.878"/><path d="M1187.8 158.68l1.34.67"/><path d="M1187.8 158.68l.887.98m.013 0c.15-.104 1.04.382 1.332.73"/><path d="M1188.7 159.66c.444.243 1 .964.85 1.082"/><path d="M1188.7 159.66l.85 1.082m-2.25-1.722c.467.213 1.04.893.86 1.02m-.06 0l1.4.7"/><path d="M1188.1 160.04l.82 1.115m.08.005c.2-.14 1.104.37 1.37.762"/><path d="M1189 161.16c.457.254.968 1.056.767 1.203"/><path d="M1189 161.16l.767 1.203m-2.267-1.863c.48.22 1.005.98.786 1.14"/><path d="M1188.3 161.64l2.106 1.146m-2.906-2.286l.786 1.14"/><path d="M1187.5 160.5l-.706.52m.006 0c3.655-.375-.257 2.657 0 0zm.7-.52l-1.5-.558"/><path d="M1186 159.94l.795 1.08m-.795-1.08l-.746.57"/><path d="M1185.3 160.5c3.764-.842-.222 2.898 0 0zm.7-.56l-1.545-.454m.045.014l.8 1.023m-.8-1.023l-.78.62"/><path d="M1183.7 160.1c.526.134 1.034.827.762 1.04m-.762-1.04c.254.347-.306.8-.84.694"/><path d="M1183.7 160.1l-.84.694m.04-1.654c.266.324-.27.775-.802.676"/><path d="M1182.1 159.8l.76 1m-.76-1l-.854.753"/><path d="M1181.2 160.56c.66.212 2.846-.013.717 1m-.717-1c.24.333-.446.77-1.027.656"/><path d="M1181.2 160.56l-1.027.656"/><path d="M1180.5 159.62c.264.573 2.445 2.282-1.026.61"/><path d="M1179.4 160.23l.752 1m-.752-1l-1.03.713m.03-.003c.594.093 1.094.8.75 1.044m-.75-1.044c.25.348-.437.893-1.03.818"/><path d="M1178.4 160.94l-1.03.818m.23-1.788c.26.325-.425.835-1.03.765m.03-.005l.78 1.028m-.78-1.028l-1.022.863m.022.007c.6.055 1.12.778.778 1.085m-.778-1.085c.26.362-.414 1-1 .96"/><path d="M1175.6 161.6l-1 .96m.2-1.96c.27.335-.402.936-1.007.902m.007-.002l.804 1.062m-.804-1.062l-1 1"/><path d="M1172.8 162.48c4.055-1.995.093 3.395 0 0zm1-.98l-1.813-.04"/><path d="M1172 161.45c.275.344-.367 1.02-.962 1.016"/><path d="M1172 161.45c-.32.34-1.523.354-1.803.023"/><path d="M1172 161.45l-1.803.023m2.703-.953c-.328.3-1.548.3-1.83-.002"/><path d="M1171.1 160.52l-.96.96"/><path d="M1171.1 160.52l-1.813.068m.013-.008c.285.297-.333.948-.926.977"/><path d="M1169.3 160.58c-.31.326-1.5.418-1.785.138"/><path d="M1169.3 160.58l-1.785.138m2.785-1.038c-.318.302-1.53.382-1.818.12"/><path d="M1168.4 159.8l-.922.925"/><path d="M1168.4 159.8l-1.785.195m.085.005c.288.243-.3.867-.883.936"/><path d="M1166.7 160c-.294.312-1.356.386-1.592.11"/><path d="M1166.7 160l-1.592.1m2.492-1c-.306.293-1.36.337-1.582.066"/><path d="M1166 159.18l-.928.923"/><path d="M1166 159.18l-1.584.17m-.016 0c.22.25-.405.9-.935.973"/><path d="M1164.4 159.35c-.312.324-1.36.5-1.57.278"/><path d="M1164.4 159.35l-1.57.278m2.57-1.178c-.323.3-1.366.452-1.565.227"/><path d="M1163.8 158.68l-.974.952"/><path d="M1163.8 158.68l-1.544.333m.044-.013c.2.206-.46.878-.975 1.008"/><path d="M1162.3 159c-.325.336-1.332.63-1.5.44"/><path d="M1162.3 159l-1.5.44m2.5-1.36c-.336.308-1.34.564-1.508.383"/><path d="M1161.8 158.47l-1.01.98"/><path d="M1161.8 158.47l-1.467.485"/><path d="M1160.3 158.95c2.068.952-3.65 1.782 0 0zm1.5-.48l-.43-.46m-.07-.01c-.346.315-1.3.666-1.418.526m1.418-.526c-.473.175-.7-.076-.355-.377"/><path d="M1161.3 158l-.355-.377m1.855-.043c-.5.143-.76-.136-.405-.42m.005 0l-1.417.47m1.417-.47l-.336-.327"/><path d="M1162.1 156.83c-.36.266-1.267.604-1.36.507"/><path d="M1162.1 156.83c-.453.17-.63.012-.264-.235"/><path d="M1162.1 156.83l-.264-.235m1.664-.195c-.47.14-.685-.042-.322-.273"/><path d="M1163.1 156.14l-1.352.458m1.352-.458l-.256-.174"/><path d="M1162.9 155.97c-.365.21-1.224.537-1.288.5"/><path d="M1162.9 155.97c-2.61 1.084-.777.245.03-.16"/><path d="M1162.9 155.97c0-.026.026-.132.03-.16"/><path d="M1164.2 155.55c-1.963.595-1.48.512.038-.2"/><path d="M1164.3 155.35l-1.35.456m1.35-.456l.035-.096"/><path d="M1165.7 154.84c.366-.932-3.367 1.84-2.755.92m20.855-.22c.027-.01.956.34 1.394.525"/><path d="M1185.2 156.07l.08.017m-1.48-.547l1.394.525"/><path d="M1183.8 155.54l1.303.62m-.003 0c.03-.03.92.343 1.336.56"/><path d="M1185.1 156.16c.445.187 1.268.665 1.234.717"/><path d="M1185.1 156.16l1.234.717m-2.634-1.197c.464.16 1.326.615 1.293.68m.007 0l1.332.52"/><path d="M1185 156.36l.936.668m-.036.002c.132-.05 1.025.326 1.34.564"/><path d="M1185.9 157.03c.447.188 1.067.703.93.773"/><path d="M1185.9 157.03l.93.773m-2.33-1.263c.465.162 1.08.646.923.727"/><path d="M1185.5 157.27l1.402.53"/><path d="M1185.5 157.27l.912.827m-.012.003c.163-.1 1.1.3 1.403.582"/><path d="M1186.4 158.1c.468.194 1.06.81.89.925"/><path d="M1186.4 158.1l.9.925m-2.4-1.425c.486.164 1.078.747.9.874m0 .006l1.457.544"/><path d="M1185.8 158.48l.863.965m.037-.005c.198-.14 1.167.26 1.454.6"/><path d="M1186.7 159.44c3.584-.6-.173 2.734 0 0zm-.9-.96l-.642.463m.042-.003c3.627-.796-.07 2.677 0 0zm-.3-1.34c.296.3-.114.574-.615.424"/><path d="M1184.3 158.03l.862.913m-.862-.913l-.682.5m-.018.01c.515.134 1.07.765.832.946m-.832-.946c.277.315-.22.712-.744.595"/><path d="M1183.6 158.54l-.744.595m-.056-1.455c.286.3-.2.663-.713.562"/><path d="M1182.1 158.24l.827.9m-.827-.9l-.766.65"/><path d="M1181.3 158.9c.53.083 1.058.7.8.925m-.8-.925c.264.308-.28.798-.816.734"/><path d="M1181.3 158.9l-.816.734m.016-1.604c.274.285-.246.757-.78.707m-.02.003l.784.883m-.784-.883l-1.025.565"/><path d="M1178.7 159.3c3.36-.26 1.582.426.783.927m-.783-.927c.38.623 2.386 2.15-1.03.665"/><path d="M1178.7 159.3l-1.03.665m.23-1.525c.27.286-.414.7-1.028.62m-.072 0l.8.903m-.8-.903l-1.028.716m.028.004c.613.062 1.152.697.8.952m-.8-.952c.27.317-.4.857-1.02.8"/><path d="M1175.8 159.78l-1.02.8"/><path d="M1175 158.9c.72.72 2.062 1.817-1.018.76m-.082.01l.83.92"/><path d="M1173.9 159.67l-1.005.85m.005 0c4.123-1.925.24 2.998 0 0zm1-.85l-1.852-.034m.052.004c.282.294-.372.882-.982.88"/><path d="M1172.1 159.64c-.327.294-1.554.322-1.84.042"/><path d="M1172.1 159.64l-1.84.042m2.84-.842c-.334.267-1.576.273-1.863.01"/><path d="M1171.2 158.85l-.98.832"/><path d="M1171.2 158.85l-1.846.093m.046-.003c.3.246-.345.82-.95.86"/><path d="M1169.4 158.94c-.317.286-1.53.404-1.818.176"/><path d="M1169.4 158.94l-1.818.176m2.818-.966c-.325.263-1.556.362-1.847.15"/><path d="M1168.5 158.3l-.946.815"/><path d="M1168.5 158.3l-1.57.025m-.03-.005c.208.263-.43.834-.957.856"/><path d="M1166.9 158.32c-.32.285-1.368.37-1.573.125"/><path d="M1166.9 158.32l-1.573.125m2.573-.905c-.327.262-1.37.317-1.563.083"/><path d="M1166.4 157.62l-.992.827"/><path d="M1166.4 157.62l-1.555.18m-.045 0c.188.215-.48.797-1.002.873"/><path d="M1164.8 157.8c-.334.29-1.36.478-1.54.28"/><path d="M1164.8 157.8l-1.54.28m2.54-1.08c-.34.264-1.36.42-1.53.235"/><path d="M1164.3 157.25l-1.032.838"/><path d="M1164.3 157.25l-1.503.332m.003-.002c2.12 1.014-3.652 1.4 0 0zm1.5-.33l-.448-.465"/><path d="M1163.9 156.78c-.352.266-1.325.518-1.46.378m1.46-.378c-.487.126-.744-.12-.386-.37m.386.37l-.386-.37"/><path d="M1165.3 156.5c-2.912.982-1.077.045-.43-.417m.03-.003l-1.45.333"/><path d="M1164.9 156.08l-.373-.316m-.027-.004c-.45-.1-1 1.193-1.4.376"/><path d="M1164.5 155.76c-1.243.33-1.975.59-.314-.213"/><path d="M1164.5 155.76l-.314-.213m1.814-.077c-.48.097-.725-.074-.367-.257"/><path d="M1165.6 155.22l-1.387.335m1.387-.335l.046-.238"/><path d="M1165.7 154.98c-.478.19-1.408.44-1.395.373"/><path d="M1165.7 154.98c-.465.124-.438.032.04-.14"/><path d="M1165.7 154.98l.04-.14m1.36-.14c-.48.096-.447-.022.048-.177"/><path d="M1167.2 154.5l-1.443.327m1.443-.327l.043-.078"/><path d="M1168.7 154.16c.62-.772-3.792 1.373-2.928.65m15.228-.2l-.07.017m.07.003l1.487.394"/><path d="M1181 154.63l1.408.47m-.008 0c.026-.025.988.27 1.443.44"/><path d="M1182.4 155.1c.48.147 1.384.532 1.355.577"/><path d="M1182.4 155.1l1.355.577m-2.855-.927c.495.118 1.427.472 1.4.53m0 0l1.44.4"/><path d="M1182.3 155.28l1.347.638"/><path d="M1183.6 155.92c.03-.08.955.217 1.386.444"/><path d="M1183.6 155.92c.462.148 1.08.566.927.627"/><path d="M1183.6 155.92l.927.627m-2.327-.997c.478.122 1.1.516.918.6"/><path d="M1183.1 156.14l1.443.404"/><path d="M1183.1 156.14l.915.685m-.015.005c.176-.094 1.143.204 1.45.446"/><path d="M1184 156.83c.484.15 1.088.67.906.78"/><path d="M1184 156.83l.906.78m-2.406-1.14c.497.12 1.097.6.9.737m0-.007c.5.134 1.1.686.884.827m-.884-.827c.295.276-.143.6-.656.472"/><path d="M1183.4 157.2l-.656.472m-.244-1.202c.3.246-.123.53-.634.425"/><path d="M1181.9 156.9l.877.784m-.877-.784l-.687.523"/><path d="M1181.2 157.4c.52.087 1.1.636.85.823m-.85-.823c.284.274-.207.686-.736.617"/><path d="M1181.2 157.4l-.736.617m-.164-1.347c.3.248-.183.633-.7.577m0 .003l.843.785m-.843-.785l-.748.673m.048-.003c.53.037 1.072.583.812.82m-.812-.82c.27.273-.413.623-1.026.525"/><path d="M1178.9 157.92l-1.026.525m.126-1.275c.28.25-.404.576-1.024.5"/><path d="M1177 157.66l.835.786m-.835-.786l-1.028.58m.028 0c.62.07 1.178.62.835.827m-.835-.827c.278.276-.405.723-1.025.67"/><path d="M1176 158.24l-1.025.67m.125-1.4c.285.25-.398.67-1.024.63"/><path d="M1174.1 158.12l.853.8m-.853-.8l-1.015.716"/><path d="M1173.1 158.84c4.144-1.8.4 2.602 0 0zm1-.72l-1.88-.03"/><path d="M1172.2 158.1c.686.627 2.303 1.6-1 .755"/><path d="M1172.2 158.1c-.63.434-1.264 1.5-1.87.06"/><path d="M1172.2 158.1l-1.87.06m2.87-.74c-.337.225-1.595.238-1.887.02"/><path d="M1171.4 157.44l-.995.715"/><path d="M1171.4 157.44l-1.87.116m-.03-.006c.292.2-.355.698-.97.748"/><path d="M1169.5 157.55c-.324.25-1.364.24-1.56-.012"/><path d="M1169.5 157.55l-1.56-.012m2.56-.668l-1 .68-.012-.016-.546-.708"/><path d="M1168.9 156.83l-1.002.712"/><path d="M1168.9 156.83l-1.552.045m.052-.005c.465.606 1.592 1.492-1.013.75"/><path d="M1167.4 156.87c-.55.36-1.175 1.422-1.546.14"/><path d="M1167.4 156.87l-1.546.14m2.546-.8c-.342.223-1.364.3-1.534.1"/><path d="M1166.9 156.3l-1.037.708"/><path d="M1166.9 156.3l-1.52.193m-.08.007c2.156 1.073-3.6 1.085 0 0zm1.6-.2l-.465-.467m-.035.007c-.352.22-1.34.382-1.484.243m1.484-.243c-.495.08-.773-.162-.417-.364m.417.364l-.417-.364m1.917.204c-.503.052-.805-.225-.453-.415"/><path d="M1167.5 155.27l-1.472.206m1.472-.206l-.4-.307"/><path d="M1167 154.96c-.354.17-1.306.342-1.428.256m1.428-.256c-.476.085-.44-.095.054-.27"/><path d="M1167 154.96l.054-.27m1.446.1c-.487.058-.446-.144.06-.303m.04-.007l-1.468.205m1.468-.205l.055-.212"/><path d="M1168.6 154.27c-.508.14-1.49.3-1.475.24"/><path d="M1168.6 154.27c-.492.08-.46.003.048-.116"/><path d="M1168.6 154.27l.048-.116m1.452-.034c-.5.05-.463-.05.055-.152"/><path d="M1170.2 153.97l-1.506.187"/><path d="M1170.2 153.97c.5-.5-2.073.415-1.462.17m1.462-.17l1.576-.187m-.076.087c.018-.03 1.078-.117 1.6-.13m.01 0l.053-.034m-.063.034l1.6-.012m-.1.072c.02-.02 1.065.025 1.57.07m.03-.01c.02-.01 1.062.094 1.563.158"/><path d="M1176.4 153.86l1.563.158m.037.002h.06"/><path d="M1178 154.02l1.547.25"/><path d="M1177.9 154.12c.022-.03 1.052.112 1.545.214"/><path d="M1179.4 154.33c.023-.02 1.036.185 1.52.305"/><path d="M1179.4 154.33c.507.102 1.47.382 1.444.42"/><path d="M1179.4 154.33l1.444.42m-2.944-.63c.515.07 1.496.315 1.47.366"/><path d="M1179.4 154.48l1.518.268"/><path d="M1179.4 154.48l1.437.48"/><path d="M1180.8 154.96c.027-.07 1.014.143 1.48.32"/><path d="M1180.8 154.96c.493.107 1.422.5 1.393.59"/><path d="M1180.8 154.96l1.393.6m-2.893-.83c.504.08 1.458.438 1.43.54"/><path d="M1180.7 155.26l1.476.29"/><path d="M1180.7 155.26l.9.557m-.01.003c.2-.1 1.18.125 1.485.322m-1.475-.322c.495.107 1.1.54.908.647"/><path d="M1181.6 155.82l.908.647m-2.408-.887c.506.08 1.106.488.9.612m0 .008c.508.1 1.102.557.9.7m-.9-.7c.297.233-.147.55-.666.477"/><path d="M1181 156.2l-.666.477m-.234-1.097c.3.204-.133.487-.65.425"/><path d="M1179.5 156l.884.664m-.884-.664l-.688.53m-.012.01c.524.044 1.1.518.863.7m-.863-.7c.288.237-.194.66-.722.633"/><path d="M1178.8 156.54l-.722.633m-.178-1.273c.292.2-.175.6-.7.586"/><path d="M1177.2 156.5l.856.678m-.856-.678l-1.024.456m.024-.006c.627.074 1.197.548.856.7m-.856-.7c.285.237-.4.6-1.026.543"/><path d="M1176.2 156.95l-1.026.543m.126-1.193c.3.2-.393.55-1.025.5"/><path d="M1174.3 156.82l.87.667m-.87-.667l-1.02.593"/><path d="M1173.2 157.42c4.223-1.64.494 2.23 0 0zm1.1-.6l-1.9-.025m0 .005c.293.206-.38.63-1 .638"/><path d="M1172.4 156.8c-.336.213-1.596.263-1.89.075"/><path d="M1172.4 156.8l-1.9.075m2.9-.635c-.34.186-1.608.206-1.902.03"/><path d="M1171.5 156.27l-1.006.604m1.006-.604l-1.54-.077m-.06.007c.178.227-.5.65-1.015.636"/><path d="M1169.9 156.2c-.338.212-1.366.22-1.542.01"/><path d="M1169.9 156.2h-1.542m2.642-.56c-.34.186-1.362.172-1.532-.02"/><path d="M1169.4 155.62l-1.033.588"/><path d="M1169.4 155.62l-1.524.067"/><path d="M1167.9 155.68c2.176 1.13-3.524.793 0 0zm1.5-.06l-.48-.47"/><path d="M1169 155.14c-.348.18-1.347.26-1.498.122m1.498-.122c-.5.04-.798-.198-.448-.358m.448.358l-.448-.358m1.948.318c-.505.012-.82-.263-.475-.413"/><path d="M1170 154.7l-1.487.1m1.487-.1l.067-.33"/><path d="M1170.1 154.36c-.518.14-1.513.22-1.493.12m1.493-.12c-.498.04-.457-.123.06-.244"/><path d="M1170.1 154.36l.06-.244m1.44.214c-.504.012-.46-.17.066-.272"/><path d="M1171.6 154.06l-1.516.063m1.516-.063l.06-.184"/><path d="M1171.7 153.87c-2.74 2.326-1.43-1.78 0 0z"/><path d="M1171.6 154.06l1.6-.2"/><path d="M1173.2 153.87c-.5.002-.47-.08.06-.124m-.06.124c.02-.04 1.08-.1 1.6-.072"/><path d="M1173.2 153.87l1.6-.072m-1.6.282c.022-.07 1.084-.16 1.594-.132"/><path d="M1174.8 153.95l.062-.152m-.062.152l1.567.04"/><path d="M1176.3 154c-.502-.064-.46-.146.064-.123m-.064.123c.02-.04 1.06.044 1.56.127"/><path d="M1176.3 154l1.56.127m-1.56.073c.023-.07 1.06-.005 1.558.098"/><path d="M1177.8 154.3c.023-.06 1.05.06 1.54.183"/><path d="M1177.8 154.3c.514.06 1.5.344 1.465.425"/><path d="M1177.8 154.3l1.465.425m-2.965-.525c.52.033 1.5.28 1.484.37m-.084 0l1.54.153"/><path d="M1177.7 154.57l1.46.485m.04.005c.027-.1 1.033.027 1.5.207m-1.5-.207c.503.07 1.105.42.902.525"/><path d="M1179.2 155.06l.902.525m-2.402-.655c.512.042 1.1.374.896.497m.004-.007c.514.052 1.1.438.892.58m-.892-.58c.297.193-.15.513-.673.48"/><path d="M1178.6 155.42l-.673.48m-.227-.97c.3.166-.143.45-.663.425m-.037-.005l.886.552m-.886-.552l-.687.536m-.013.014c.524.005 1.106.407.872.602m-.872-.602c.3.2-.4.483-1.023.424"/><path d="M1176.3 155.9l-1.023.424m.123-.964c.294.175-.387.44-1.022.396"/><path d="M1174.4 155.76l.882.552m-.882-.552l-1.023.478"/><path d="M1173.4 156.24c4.247-1.433.597 1.868 0 0zm1-.48l-1.9-.02m0 0c.295.166-.382.52-1.016.53"/><path d="M1172.5 155.74c-.34.176-1.36.106-1.533-.105"/><path d="M1172.5 155.74l-1.533-.105m2.533-.335c-.34.15-1.357.06-1.526-.133"/><path d="M1172 155.16l-1.027.477m1.027-.477l-1.524-.05"/><path d="M1170.5 155.1c2.187 1.187-3.446.532 0 0zm1.5.06l-.493-.47"/><path d="M1171.5 154.7c-.344.14-1.348.146-1.506.008m1.506-.008c-.502.003-.454-.236.072-.358"/><path d="M1171.5 154.7l.072-.358m1.428.418c-.506-.025-.456-.28.075-.384"/><path d="M1173.1 154.38l-1.52-.05m1.52.05l.07-.3"/><path d="M1173.2 154.08c-2.54 2.43-1.668-2.014 0 0z"/><path d="M1173.1 154.38l1.596-.192"/><path d="M1174.7 154.2c-.5-.036-.463-.195.068-.24m-.068.24c.023-.08 1.067-.07 1.567.013"/><path d="M1174.7 154.2l1.567.013m-1.667.287c.024-.108 1.068-.116 1.566-.012m.034.012c.024-.1 1.062-.053 1.557.07m-1.557-.07c.52.023 1.506.3 1.48.428"/><path d="M1176.2 154.5l1.48.428m-3.08-.428c.522-.004 1.516.244 1.5.372m0 .008c.518.015 1.113.327.892.47m-.892-.47c.297.156-.155.477-.678.48"/><path d="M1176.1 154.88l-.678.48m-.822-.86c.497.124.446.397-.077.4"/><path d="M1174.5 154.92l.9.443m-.9-.443l-1.02.37"/><path d="M1173.5 155.3c4.256-1.184.683 1.5 0 0zm1.1-.8c-.026.137-1.092.304-1.6.25m0 .01c2.2 1.245-3.37.284 0 0z"/><path d="M1174.6 154.5c-2.47 2.48-1.767-2.205 0 0z"/></g><g class="C"><path d="M924.38 539.6l-1.545 19.908m1.525-21.778l-1.932-18.946"/><path d="M922.43 518.8l1.3 20.008m-3.94-33.548c2.94 11.743 4.958 15.327-9.396 15.737m.006.003l13.328 17.795m-26.388 5.625l26.4-5.624"/><path d="M910.4 521l-13.07 23.42"/><path d="M910.4 521l-25.932 5.963m.012-.003l12.86 17.456"/><path d="M871.66 551.02l25.682-6.597M884.48 526.96l-12.82 24.053m12.82-24.053l-25.175 7.027m-.005.013l12.354 17.026"/><path d="M846.8 558.58l24.86-7.563M859.3 534l-12.505 24.6M859.3 534l-24.307 8.086m.007-.006l11.802 16.503"/><path d="M822.88 567.1l23.922-8.525M835 542.08l-12.12 25.028M835 542.08l-23.33 9.14m0 0l11.2 15.9"/><path d="M800 576.58l22.87-9.474m-11.2-15.886l-11.662 25.363m11.662-25.363l-22.23 10.18m0 0l10.568 15.183"/><path d="M778.3 587l21.698-10.4m-10.558-15.2l-11.13 25.594m11.13-25.594l-21.393 10.404m-.007-.004l10.263 15.2"/><path d="M757.9 598.32L778.308 587m-10.268-15.2l-10.135 26.52m10.135-26.52l-20.006 11.44m.006 0l9.87 15.08"/><path d="M738.94 610.55l18.97-12.23m-9.87-15.08l-9.098 27.3m9.098-27.3l-18.48 12.464m0-.004l9.383 14.846"/><path d="M721.53 623.66l17.406-13.104M729.56 595.7l-8.023 27.95m8.023-27.95l-16.808 13.46m-.002 0l8.785 14.5m-8.785-14.5l-1.87 7.686"/><path d="M712.75 609.16l-1.227 1.18m1.227-1.18l-.92-1.73m109.35-139.05l12.598-19.88m-34.538 30.72l21.942-10.84M778.4 491.42l20.853-12.2m-40.513 25.74l19.643-13.544"/><path d="M764.55 518.3l13.84-26.877m-19.65 13.537l5.802 13.333"/><path d="M744.7 529.37l19.855-11.07m-5.815-13.34l-14.053 24.404"/><path d="M758.74 504.96l-6.366 3.83m-1.194 34.13l13.367-24.625M744.7 529.37l6.488 13.554M732.28 554.93l18.904-12.012"/><path d="M744.7 529.37l-12.416 25.566"/><path d="M744.7 529.37l-9.26 6.343M721.6 581.57l10.682-26.634"/><path d="M721.6 581.57l17.885-12.812m-.005.002l-7.203-13.822"/><path d="M721.6 581.57c11.074 29.66 10.638-1.435 17.885-12.812m3.385-45.958c1.067 4.577 3.843 11.986-.493.763"/><path d="M739.48 568.76l11.7-25.834m7.8 14.174c-5.84 13.495-10.954 37.554-19.504 11.668L758.98 557.1zm0 0c-15-16.26-.503-17.454 12.66-24.895M758.98 557.1l12.66-24.895m8.32 14.375c-4.165 17.8-18.4 31.946-18.615 9.324l18.615-9.324zm0 0l-8.32-14.387m8.32 14.387l12.605-26.173m-.005-.007l-20.924 11.786M792.56 520.4l-7.743-14.762"/><path d="M784.82 505.64c-6.716 11.7-13.348 38.497-20.276 12.652l20.276-12.652zm7.74 14.76l13.724-26.136"/><path d="M806.3 494.27l-21.467 11.374M806.3 494.27l-7.05-15.05m-.01 0c-8.707 9.912-12.984 41.644-20.853 12.2m23.153 44.2c-16.056-17.14-1.767-18.5 13.116-25.792"/><path d="M814.66 509.83l-8.367-15.562m8.367 15.562l14.174-25.64"/><path d="M828.83 484.2c-19.746 11.264-26.386 10.7-11.25-9.55l3.603-6.263"/><path d="M828.83 484.2l-7.648-15.814m7.648 15.814l15.27-25.287m0-.013l-22.918 9.473M844.1 458.9l-4.917-11.502M844.1 458.9l8.6-12.94m22.02 2.98l10.74 5.7m-8.78 13.3c5.92-6.338 6.88-19.807 16.228-7.7m-16.228 7.7c6.23-.77 14.798-11.928 19.957-4.894m.003.014l2.654 2.658M886.78 485.46c11.173-14.795 9.692-28.962 23.366-5.158M898.05 503.2c11.057-13.698 11.067-33.48 20.04-4.016m.01-.014c4.838 8.23-5.035 14.557-7.685 21.83"/><path d="M898.05 503.2c21.32-8.997 21.42.43 12.356 17.815L898.05 503.2zm-11.27-17.74c21.054-7.838 27.144-4.275 12.8 14.864l-1.512 2.862M886.78 485.46l11.278 17.726m-25.438 6.384c17.945-6.03 32.6-9.56 15.513 10.98-4.247 15.614-10.394-7.45-15.513-10.98z"/><path d="M886.78 485.46l-14.152 24.114"/><path d="M886.78 485.46l-24.903 6.893m-.007-.003l10.75 17.22M848 517.1c17.73-7.03 31.54-10.857 15.06 10.017-4.455 16.287-9.667-6.1-15.06-10.017zm13.87-24.75l-13.887 24.76m13.887-24.76l-24.074 8.125m.004.005l10.187 16.636M824.25 525.8c19.982-9.868 28.106-9.318 13.28 11.4-2.722 13.734-9.58-9.85-13.28-11.4zm13.55-25.32l-13.545 25.322M837.8 500.48l-23.143 9.355M801.54 535.62c7.07-14.24 13.854-36.537 22.354-10.424l.36.6m-22.714 9.824c19.62-11.136 26.7-10.37 12.665 10.467-2.613 14.015-8.962-8.7-12.665-10.467zm75.14-67.67c-8.044 13.705-16.212 34.866-23.6 8.778l-.74-1.313m-.01.005c-7.846 13.823-15.782 35.714-23.184 9.353 5.82-3.7 15.836-6.218 23.184-9.353zm24.35-7.47l-24.35 7.465m24.35-7.465l-8.795-17.142m.015-.008c-8.4 13.5-17.2 35.245-23.555 8.56l-.232-.465"/><path d="M867.9 450.8c-21.62 8.113-27.54 9.07-4.22-3.3l1.4-.815"/><path d="M867.9 450.8l-1.753-3.944"/><path d="M874.72 448.94c-2.71-.223-10.896 5.292-4.55-1.427"/><path d="M876.68 467.95c-1.634-5.897.342-15.144-3.215-19.496m13.315 37.006c-18.2-13.725-.856-25.843 8.798-19.98l-8.798 19.98zm-106.82 61.12c19.16-12.468 25.18-11.385 11.954 9.54-2.433 14.082-8.324-7.56-11.954-9.54zm-67.88 59.2c.548 10.266 7.984-22.547 9.517-24.198M715.5 652.5l-4.578-7.04m15.848 22.7l-11.262-15.67m11.262 15.67l5.042-29.257m-.012-.003l-16.304 13.587"/><path d="M731.8 638.9l-10.278-15.245M710.3 633.64c22.954-25.12 3.966 8.27 5.216 18.848m11.254 15.672l16.78-13.34m0 0l-11.738-15.916m11.738 15.916l6.15-28.78m0 0c-18.748 17.956-18.998 8.685-11.722-11.658-.157-10.73 9.296 10.526 11.722 11.658zm-6.15 28.78l18.25-12.736m0-.004l-12.1-16.045m12.1 16.045l7.243-28.156m-.003-.004c-17.96 14.773-22.417 11.777-12.912-9.6.75-15.325 9.12 7.583 12.912 9.6zm-7.24 28.16l19.596-12.097m.004-.003l-12.353-16.06m12.353 16.06l8.324-27.388m-.004.008c-18.587 13.424-24.114 11.356-13.312-10.083 1.034-14.724 9.645 8.533 13.312 10.083zm-8.32 27.38l20.827-11.43m-.007 0l-12.503-15.958m12.503 15.958l9.38-26.483m0 .003c-19.1 12.158-25.687 10.867-13.558-10.532 1.324-13.993 10.042 9.52 13.558 10.532z"/><path d="M802.22 618.55l21.943-10.74m.007-.01l-12.563-15.744M824.17 607.8l10.926-24.6"/><path d="M835.1 583.22c-19.778 10.2-27.82 9.375-14.17-11.8 1.763-11.385 10.606 10.06 14.17 11.8zm-10.93 24.58l24.08-8.305"/><path d="M848.24 599.5l-13.153-16.285M848.24 599.5l11.337-24.277"/><path d="M859.58 575.23c-17.526 7.4-31.272 11.462-15.9-10.074 3.04-15.836 10.734 6.964 15.9 10.074zm-11.34 24.27l25.024-7.548"/><path d="M873.27 591.96l-13.687-16.73m13.687 16.73l11.7-23.858"/><path d="M884.96 568.1c-17.7 6.514-32.443 10.58-16.453-10.77 3.043-15.477 11.403 7.888 16.453 10.77zm-11.7 23.86l25.86-6.782"/><path d="M899.13 585.18l-14.17-17.076m14.17 17.076l11.985-23.33"/><path d="M911.12 561.85c-17.836 5.688-33.485 9.67-16.9-11.47 2.98-15 12.043 8.956 16.9 11.47zm8.25 18.75l-8.258-18.757M899.13 585.18l20.243-4.573"/><path d="M899.13 585.18c12.323 20.82 18.498 13.85 20.78-7.16l.954-4.6"/><path d="M887.8 608.7c6.24-17.313 12.975-30.694 24.216-8.22l1.535 1.824M887.8 608.7c5.88.996 33.422-14.1 23.03.353"/><path d="M887.8 608.7l23.03.353m-7.77 16.347c6.034-14.358 13.574-25.884 0 0z"/><path d="M887.8 608.7l15.276 16.7m-25.976 6.95l25.967-6.946"/><path d="M887.8 608.7l-10.7 23.647M862.27 615.9c5.973-17.38 12.45-31.243 24.103-8.83.8 4.408-18.9 6.06-24.103 8.83zm0 0l14.828 16.45m-25.138 7.5l25.14-7.5"/><path d="M862.27 615.9l-10.313 23.95m-14.317-16.1c5.718-17.492 11.928-31.66 23.608-9.05-2 4.064-17.383 6.122-23.608 9.05zm0 .01l14.318 16.094M830.3 651.28l21.663-11.422"/><path d="M837.64 623.76l-7.345 27.516M815.76 634.8c4.463-15.267 7.5-37.617 19.974-13.288 5.22 4.533-17.292 9.997-19.974 13.288zm0 0l14.528 16.476M809.56 663.18l20.728-11.903"/><path d="M815.76 634.8l-6.2 28.38m-14.64-16.76c3.87-15.432 6-38.706 18.784-14.1 5.773 4.654-16.098 10.57-18.784 14.1zm0 0l14.645 16.753M789.87 675.53l19.697-12.355"/><path d="M794.92 646.42l-5.052 29.108M775.2 658.6c3.285-15.558 4.507-39.643 17.582-14.777 6.004 4.687-14.94 11.017-17.582 14.777zm0 0l14.664 16.925M771.3 688.3l18.572-12.776"/><path d="M775.2 658.6l-3.908 29.7m-14.572-16.98c2.7-15.652 3.048-40.415 16.37-15.3 5.338 5.216-13.428 10.984-16.37 15.3zm0 0l14.57 16.993m-17.34 13.157l17.343-13.162"/><path d="M756.72 671.32l-2.772 30.155M739.6 684.52c2.138-15.722 1.62-41.015 15.146-15.7 5.03 5.008-12.47 11.297-15.146 15.7z"/><path d="M739.6 684.52l14.36 16.952M739.6 684.52l1.63 26.956m4.25 2.904l8.475-12.9M743.04 713.1l10.718 5.612m11.592 3.888c-15.13-1.688-11.3-8.83-11.4-21.134"/><path d="M765.35 722.6l-11.4-21.134m16.02 22.094c-8.27-.852-3.165-1.274-.158-4.652m4.838 4.962c-4.718.384-5.352-.34-4.84-4.97m17.36 4.76c-6.667-.293-13.468 2.426-17.36-4.756"/><path d="M787.17 723.66l-17.36-4.756m32.74 2.496c-18.945 5.104-15.554 1.353-15.325-15.706"/><path d="M787.22 705.7l-17.412 13.2m17.412-13.2c-13.056-18.7-19.3-18.52-17.025 5.232.183 21.3-16.444-25.86-25.9-1.302l-2.644 2.23m62.92 9.04c-6.487-.738-11.7-11.045-17.348-15.195"/><path d="M804.57 720.9l-17.348-15.195"/><path d="M811.57 718.27c-13.646 9.927-3.44-19.23-5.827-25.503m-.003.003c-17.997 17.62-20.88 9.1-16.314-12.267-2.243-13.197 13.385 11.394 16.314 12.267z"/><path d="M811.57 718.27l-5.827-25.503M822.8 713.7c-15.253 6.417-11.475 4.88-.02-3.46m.02-.01l-17.048-17.457M822.8 710.23l2.5-30.06"/><path d="M825.28 680.17c-17.068 14.964-23.17 12.562-16.64-9.853-1.333-16.977 11.62 7.453 16.64 9.853zm-2.48 30.06l19.234-12.913"/><path d="M842.03 697.32l-16.743-17.148m16.743 17.148l3.725-29.4"/><path d="M845.75 667.92c-17.53 14.124-24.288 12.555-16.6-10.06-.874-16.058 11.896 8.04 16.6 10.06zm-3.72 29.4l20.065-12.652m.005-.008l-16.34-16.747m16.34 16.747l4.972-28.612"/><path d="M867.06 656.05c-17.95 13.333-25.32 12.465-16.425-10.245-1.1-15.56 12.78 9.314 16.425 10.245zm-5.03 29.4c.02-.263 1.12-1.417 1.647-1.73m14.293-16.48c-14.726 21.85-15.58 12.472-11.224-8.62l.315-2.57"/><path d="M890.9 649.3c-10.327 11.68-10.146 26.026-23.85 6.75"/><path d="M877.1 632.35c18.592 14.817 10.22 21.132-10.032 23.7l10.032-23.7z"/><path d="M898.03 636.74c-.122 26.514-32.827-13.376-11.146-2.334l11.146 2.334zm5.75-10.6c-7.877 16.148-6.135 8.323 0 0zm-61.75 71.18c19.03-10.847 28.625-18.815 2.806 2.73"/><path d="M841.86 702.15c-2.227-10.98 6.815-.383 0 0zm-19.06 8.08c20.225-8.5 24.227-11.1 2.36 2.284m-2.36-2.284c6.02 1.726-2.817 7.066 0 0zm-83.2-25.7l-12.475 10.875"/><path d="M726.77 668.16l-1.236 24.642m12.746 16.028c2.515-16.816 2.044-28.744-11.506-40.674"/><path d="M717.7 676.45c15.947-19.03 5.794 4.205 6.87 14.8M922.83 559.5c-2.033 16.687-.383 16.02-11.718 2.348m11.718-2.348c-24.938 15.9 6.275-33.47.558-12.782l-.558 12.782z"/></g><path d="M856.7 266.72c-6.74 3.068-12.397 3.7-19.2.1m0 0c7.07-3.5 12.163-3.58 19.2-.1" class="D"/><g class="C"><path d="M927.3 535.95l.068 8m-.008.01l2.12-3.1"/><path d="M921.64 594.54c13.483-46.06 13.127-107.6-30.144-138-41.296-25.955-93.035.213-122.47 32.41-45.873 49.356-73.315 124.04-50.352 189.96 6.735 17.676 19.383 33.414 36.555 41.834"/><path d="M925.97 520.57l.87 7.712m-4.24-24.022l1.048 3.95m-.008-.01l2.182 1.093m-8.782-20.363l1.837 4.202m-1.837-4.202c.948 1.65 7.393 8.25 1.284 2.937M911.6 478.67c5.086-6.894 3.35-1.17 1.302 2.28m-10.652-14.53c1.94 2.6 4.36 4.628 6.924 6.575"/><path d="M904.36 467.18l-.87.678m-11.4-10.328l2.52 1.917m-12.3-7.977l-1.723-.55"/></g><path d="M1354.6 184.07L563.9 475.2" class="E"/><g class="C"><path d="M916.2 611.1c.622-3.85.186-7.937 1.648-11.613"/><path d="M755.23 720.75c48.038 21 99.07-13.574 127.85-50.782 15.95-20.33 28.224-43.464 36.35-67.985m-1.57-2.483c2.33 6.918 2.617-3.464 3.784-4.955m3.776-27.345l-.605 3.82m2.245-19.32l-.285 3.94m-.375 3.83l1.556 4.776"/></g><path d="M1326.4 511.6l28.226-327.52-274.34-66.877-786.34 227.94 57.824 383.52 251.27 170.13 723.35-387.2z" class="E"/><g class="C"><path d="M754.35 720.02l.878.73m-1.908-1.2l-.516-.273M907.15 626.66l-1.192 2.505"/><path d="M908.56 629c1.357-6.8 2.262-11.923-1.295-2.56m6.535-15.3c-.696 5.146-1.575 13.62-1.293 3.213m-6.887 15.487l-4.163 8.077m1.413-2.657l1.278 2.43m-7.548 8.74c-5.314 17.845 1.884-5.488-3.6 5.77m-1.63 2.48l-2.557 7.66m-1.253-2.1l-1.72 2.38m-5.5 7.2c7.017-1.696-5.4 2.488-3.28 7.405m-1.26-1.895l1.264 1.9"/><path d="M873.9 677.5c1.2-3.544 6.567 1.766 0 0zm-6.37 6.84c4.723 1.555 4.388-4.336 6.367-6.85"/><path d="M864.05 687.8c8.477-13.667-.356 8.283-1.002.996M783.58 726.16l-.164 1.058m-1.966-1.068l-2.686-.1m-3.704-.33c1.967-.406 3.515.727 5.166 1.48m-14.896-3.26l-2.894-.83m100.534-34.24l-2.036 1.895m.006-.005l-3.42 5.906m-1.28-1.686c1.56-1.145-5.84 8.92-6.912 5.634m-2.148 1.586c-2 1.32-2.668 7.386-6.084 4.3"/><path d="M846.63 702.6l-4.37 3.138m-2.18 1.442l-3.727 4.695m.097-2.395l-.916.58m-2.664 1.56l-3.795 4.265m1.765-3.145c-.75 3.52-2.715 3.42-5.636 2.95m4.726-2.45c-1.816 1.1-3.75 1.953-5.64 2.9m-11.4 4.7c1.707-.732 5.686 2.292 5.252-1.982m-27.512 6.972l-1.082.08m16.532-2.93l-3 .77m-1.78.4l3.713.773"/></g><path d="M293.9 345.14L563.87 475.2l39.132 423.6" class="E"/><g class="D F"><path d="M822.96 277.7c-6.74 3.068-12.397 3.7-19.2.11"/><path d="M803.76 277.82c7.07-3.49 12.163-3.58 19.2-.11"/></g><path d="M920.93 245.8c-6.75 3.354-11.878 3.246-18.67.105m0-.005c6.665-3.25 11.96-3.272 18.67-.105" class="D"/><g class="C"><path d="M916.03 604.9l-1.18 3.346M886.37 453.83l1.707.622m32.303 42.788l3.242 4.35M712.22 655.7l3.3-3.22m-1.54 11.54c2.554-21.884 1.146-5.662 1.314 4.95m3.606-93.4l2.7 5.983"/><path d="M718.8 575.87c4.586 5.787 1.937 6.675-2.9 10.6m13.4-38.27c5.952 7.9.047 8.5-5.63 13.4m34-59.68l1.064 3.04m5.406-10.7c-7.955 15.722-5.58 10.954.883-.994"/></g></g><path d="M786.82 288.73c-1.852 5.744-21.23 1.745-11.357-2.267 3.41-.473 9.42-1.27 11.357 2.267z" class="D"/><path d="M775.18 482.8c3.014 21.408 10.386-8.923 15.64-13.143m3.66-2.607c5.105 26.997 11.123-4.08 18.772-11.063m2.418-1.067l5.516 13.46m6.294-17.98c-12.12 30.877-2.53 11.203 8.186-2.277" class="B C"/><g class="D"><path d="M1144.2 172.8c-1.852 5.744-21.232 1.745-11.358-2.267 3.4-.474 9.42-1.27 11.358 2.267zM557.95 362.97c-1.852 5.744-21.23 1.745-11.357-2.267 3.4-.473 9.42-1.27 11.357 2.267zM979.6 226.2c-1.852 5.744-21.23 1.745-11.357-2.267 3.4-.474 9.42-1.27 11.357 2.267z"/><path d="M952.53 235.76c-6.74 3.068-12.397 3.7-19.2.1m0 0c7.07-3.5 12.163-3.58 19.2-.1" class="B F"/></g></g></svg>